<?xml version="1.0" standalone="no"?>
<!DOCTYPE svg PUBLIC "-//W3C//DTD SVG 1.1//EN" "http://www.w3.org/Graphics/SVG/1.1/DTD/svg11.dtd" >
<svg xmlns="http://www.w3.org/2000/svg" xmlns:xlink="http://www.w3.org/1999/xlink" version="1.1">
<metadata>
Created by FontForge 20190801 at Wed Oct  3 15:02:44 2018
 By Jimmy Wärting
Copyright \(c\) 2018 by Khurasan. All rights reserved.
</metadata>
<defs>
<font id="Rogeu" horiz-adv-x="380" >
  <font-face 
    font-family="Rogeu"
    font-weight="400"
    font-stretch="normal"
    units-per-em="1000"
    panose-1="0 0 0 0 0 0 0 0 0 0"
    ascent="800"
    descent="-200"
    x-height="610"
    cap-height="735"
    bbox="-22 -229 722 940"
    underline-thickness="50"
    underline-position="-100"
    stemh="227"
    stemv="80"
    unicode-range="U+000D-20AC"
  />
<missing-glyph horiz-adv-x="236" 
 />
    <glyph glyph-name=".notdef" horiz-adv-x="236" 
 />
    <glyph glyph-name="NULL" horiz-adv-x="0" 
 />
    <glyph glyph-name="NULL" horiz-adv-x="0" 
 />
    <glyph glyph-name="CR" unicode="&#xd;" horiz-adv-x="236" 
 />
    <glyph glyph-name="space" unicode=" " horiz-adv-x="236" 
 />
    <glyph glyph-name="E" unicode="E" horiz-adv-x="436" 
d="M419 634c5 -14 12 -27 7 -44c-7 -2 -14 -3 -24 -5c6 -6 12 -10 17 -15c-2 0 -4 -3 -5 -3c-6 -2 -12 -2 -18 -2c-44 3 -89 7 -133 8h-31c-11 -23 -13 -49 -20 -73c-4 -26 -7 -52 -11 -76c-3 -25 -12 -48 -12 -75c8 -2 14 -3 19 -3h73c24 1 47 0 71 -6c3 -4 5 -9 9 -14
c-6 -3 -9 -6 -13 -9h-155c8 -6 18 -6 29 -6c38 1 77 1 114 1c10 0 19 5 30 -4c3 -10 1 -20 -3 -31c-32 -2 -61 -4 -92 -6c-30 -1 -62 -3 -89 -3c-10 -11 -10 -23 -12 -32c-9 -105 -9 -139 -3 -169c10 0 18 0 26 1c40 8 79 14 120 20c15 2 33 2 50 2c22 0 25 -2 42 -22v-3
c-2 -3 -3 -4 -6 -8c4 -4 8 -8 11 -15c-2 -3 -5 -6 -7 -9v-15c-4 0 -5 -2 -7 -2c-25 5 -50 0 -76 -7c-54 -13 -112 -18 -168 -26c-32 -5 -66 -8 -100 -14c-13 -1 -27 0 -41 11c0 3 0 6 2 13c-9 10 -14 22 -6 36c15 12 24 1 39 12c-22 74 8 164 5 252c-3 24 3 48 6 71
c9 58 22 113 37 169c2 5 2 9 5 12c0 2 -3 4 -3 7c-10 1 -18 3 -29 7c-13 18 -13 38 -6 60c8 11 21 12 35 15c14 6 27 8 38 17v0v2v0c7 16 12 35 25 48c13 6 26 6 38 0c21 -12 38 -21 50 -43c24 -2 48 -2 72 -4c24 0 47 -1 69 -3c10 -5 20 -11 31 -17zM57 293v7h-2v-7h2z
M197 340h-4l1 -2zM150 65c0 3 -12 116 3 205l-6 -13s-19 -157 3 -203v11zM208 567c10 28 -5 18 -5 18s-44 -169 -50 -226l9 11s36 169 46 197z" />
    <glyph glyph-name="F" unicode="F" horiz-adv-x="282" 
d="M364 702c2 0 4 -3 7 -7c-3 -4 -6 -7 -10 -11c-1 -10 -1 -21 -2 -33c-4 -1 -9 -1 -11 -3c-23 -15 -51 -15 -78 -19c-25 -4 -50 -7 -78 -9c-10 -26 -11 -54 -16 -79c-5 -26 -9 -52 -11 -78c-2 -25 -11 -52 -7 -79c18 -8 35 -4 52 -7c16 -2 33 -5 50 -7c4 -7 7 -13 9 -18
c-1 -3 -3 -5 -4 -5c-20 0 -38 0 -56 1c-16 0 -31 2 -45 0c26 -2 53 -5 80 -7c9 -1 18 0 23 -9c-3 -9 -10 -9 -17 -9l-60 3c-12 0 -24 3 -37 -2c-5 -22 -3 -45 -4 -68c-2 -23 -3 -46 -3 -69c-1 -24 -1 -48 0 -72c1 -23 3 -45 5 -68c3 -23 11 -44 11 -71c-6 6 -9 8 -15 13
c-2 -4 -4 -7 -5 -10c-4 0 -7 6 -12 2c-2 -2 -8 0 -13 0c-5 -3 -11 -8 -18 -11l-27 6c-18 12 -27 30 -32 51c-3 21 -8 41 -9 62c-3 47 -5 94 -6 141c-1 22 3 43 3 65v18c-7 3 -13 5 -20 7c-2 6 -3 13 -4 19c-1 7 -3 13 -6 20c13 6 23 11 36 15c6 39 12 78 20 118
c8 38 18 75 27 115c-9 3 -16 4 -22 6c-8 12 -6 24 -6 36c12 14 30 12 45 19c6 10 13 21 20 33c6 -1 11 -2 15 -3c5 -1 10 -2 15 -2c7 -5 15 -10 22 -15c40 2 89 10 174 31c5 -3 13 -6 20 -10zM23 336c1 0 2 0 4 1c-2 0 -3 0 -5 1c1 -1 1 -2 1 -2zM115 42c1 -13 3 -25 10 -36
c-2 29 -6 57 -7 85c-6 62 -6 125 0 188c0 7 1 14 1 21v21c-7 -12 -9 -25 -10 -38c-1 -50 -2 -99 -1 -149c0 -31 4 -61 7 -92zM130 87v53h-1v-55c0 1 0 1 1 2zM129 242h1v29h-1v-29zM135 42v9h-1v-9h1zM129 392c14 73 28 146 43 219c0 0 -2 1 -2 2c-2 -1 -5 -1 -5 -2
c-20 -73 -33 -148 -46 -229c7 7 10 8 10 10z" />
    <glyph glyph-name="G" unicode="G" horiz-adv-x="520" 
d="M527 511c0 -4 2 -8 1 -12c-1 -83 -19 -163 -42 -243c-24 -82 -51 -162 -84 -240c-11 -26 -23 -52 -41 -74c-8 -11 -17 -21 -25 -31c-52 -8 -98 0 -137 33c-45 38 -56 94 -24 144c18 31 43 55 69 76c31 12 56 0 81 -17c-2 -5 -3 -11 -6 -16c-12 -19 -25 -38 -36 -58
c-9 -16 -16 -33 -22 -49c-4 -15 -3 -19 6 -34c12 10 17 24 24 37c30 50 54 103 73 158c17 47 32 94 48 141c2 8 5 15 4 25c-9 -8 -16 -15 -22 -22c-36 -37 -70 -73 -107 -109c-21 -21 -44 -41 -67 -59s-48 -31 -78 -30c-5 0 -11 -3 -17 -3c-11 -1 -23 -4 -32 -1
c-22 6 -44 15 -65 25c-19 9 -27 28 -28 49s-1 41 3 60c9 52 29 101 50 150c33 72 72 141 125 200c29 31 61 58 96 81c28 19 59 30 93 27c5 0 10 0 15 -1c25 -4 69 -33 85 -57c6 -26 -6 -46 -21 -66c2 11 5 22 5 33c2 8 2 17 2 27c0 6 -4 10 -13 13c0 -14 0 -27 -1 -39
s-5 -23 -9 -35c-3 -12 -9 -24 -14 -36c-6 -10 -10 -22 -21 -29c-19 -7 -26 18 -46 14c5 29 20 55 14 86c-6 -3 -12 -4 -15 -7c-41 -32 -78 -67 -105 -110c-53 -81 -92 -168 -118 -261c-4 -14 -6 -28 -8 -41c-1 -5 1 -10 1 -14c8 -1 13 3 17 7c46 34 87 74 127 113
c52 52 103 104 154 157c15 15 28 33 43 50c13 -1 34 9 49 -2c4 -8 -32 -164 -28 -174c6 5 41 160 47 164zM374 636l-1 -2h2zM151 403c3 2 4 5 4 10c-1 -4 -3 -8 -4 -10zM156 415c4 1 5 5 5 9c-1 -3 -3 -6 -5 -9zM97 192c1 17 1 33 4 51c8 45 24 88 41 130c3 9 5 19 7 28
l-1 -1c-29 -54 -50 -111 -63 -171c-2 -17 -4 -33 1 -50c3 -1 5 -1 9 -2c1 5 2 10 2 15z" />
    <glyph glyph-name="H" unicode="H" horiz-adv-x="518" 
d="M283 749h-1l1 2v-2zM282 749h1c-2 -1 -4 -4 -5 -6l-2 1c3 2 5 4 6 5zM503 706c9 -2 16 -9 22 -20c-1 -8 -1 -19 -3 -30c-11 -58 -23 -117 -34 -176c-5 -31 -11 -62 -15 -93c-2 -14 0 -28 -1 -41c-6 -56 -12 -113 -17 -169c-3 -25 -3 -51 4 -78c-10 -7 -19 -15 -29 -22
c-9 4 -16 7 -23 10c-5 -2 -10 -3 -13 -3c-26 5 -44 19 -61 36c-6 16 -5 31 -3 45l18 150c2 14 4 27 6 41c1 10 1 20 -3 31c-4 0 -8 1 -11 0c-51 -14 -102 -28 -152 -42c-11 -14 -12 -29 -13 -43c-12 -89 -29 -177 -16 -268c5 -8 11 -15 15 -21c-1 -4 0 -8 -1 -11
c-8 -6 -13 -10 -20 -16c-14 8 -28 18 -46 19c-25 4 -38 17 -42 43c-6 33 -6 66 -4 98c4 47 10 95 13 142c1 3 1 7 0 12c-12 2 -15 -7 -18 -15c-2 -9 -3 -19 -2 -29c-5 -61 -10 -123 -11 -184c-1 -20 5 -40 8 -59l-1 -1c-11 8 -13 20 -14 32c-1 18 -3 36 -2 53
c4 60 8 119 12 179c1 3 1 7 0 13c-7 2 -12 5 -19 8c-3 3 -4 6 -6 10h-15c-1 2 -2 5 -4 7c12 18 35 20 51 32c8 38 17 77 25 115c11 48 25 96 44 142c2 7 7 13 9 19c-1 -8 -2 -16 -4 -23c-28 -75 -44 -152 -60 -230c0 -6 -1 -11 0 -17c2 -1 5 -2 6 -1c4 1 8 3 10 6
c6 25 13 51 18 77c9 46 24 90 39 134c4 8 4 17 6 25v0c-1 1 -1 2 -1 2c-1 2 -1 1 0 0v0l1 -1c6 8 10 17 14 27c13 28 25 57 39 84c5 12 12 25 27 31c4 -1 10 -4 16 -8c5 4 12 8 20 11c8 -3 16 -7 25 -11c0 -3 1 -7 0 -9c-52 -97 -73 -205 -95 -313c-1 -3 -1 -9 0 -15
c32 2 58 14 87 19c27 6 56 13 83 19c4 7 7 13 11 20c0 -7 2 -13 3 -26c5 10 7 15 7 19c14 73 31 144 51 214c1 8 2 14 2 22c3 13 8 25 18 37h32c2 -3 3 -8 5 -14c3 1 8 3 12 5zM358 293c0 3 0 5 -1 7h-1c1 -2 1 -4 1 -7h1zM363 335c-6 -5 -6 -10 -1 -19c0 8 0 13 1 19z
M363 337c5 13 10 27 5 45c-8 -16 -7 -30 -5 -45zM372 392v1h-2zM175 690c-1 -5 -3 -9 -4 -12c-1 -5 -4 -9 -6 -12v0c2 4 3 8 5 12v0c1 4 4 8 5 12c2 4 4 8 5 12l6 12c1 4 3 8 5 11c0 5 2 9 5 12c2 2 4 5 5 7l1 -1c-1 -2 -3 -4 -6 -6c-2 -4 -3 -8 -5 -12c-1 -3 -3 -8 -5 -11
c-2 -5 -4 -9 -5 -12c-1 -5 -3 -9 -6 -12zM165 666c-2 -4 -3 -9 -4 -12c-1 -1 -1 -1 -1 -2v3c2 3 2 7 5 11zM149 659c-2 -3 -5 -7 -7 -12v-1v2c2 4 4 8 5 12c2 4 3 8 6 11l1 1l-1 -1c-2 -3 -4 -8 -4 -12zM159 652v0zM160 652h-1h1c-1 -2 -1 -1 0 0zM142 646c0 -4 0 -7 -4 -10
c2 4 3 7 4 10zM138 636v-1h-1v1h1zM137 635c1 -4 1 -9 -5 -12c0 6 0 10 5 12zM132 623v0c0 -1 0 -1 -1 -1c0 0 1 0 1 1v0zM151 626c1 1 1 0 0 0v0c1 1 1 1 0 0v0v-3l-1 1c0 1 1 1 1 2zM149 622v0v0v0v0v0zM151 623c-1 0 -1 -1 -2 -1c1 0 1 1 1 2zM149 622v0zM374 451
c-1 -1 -1 -1 -1 -2v0s0 1 -1 1c1 0 1 0 2 1v0v0c-1 1 0 1 0 0c-1 1 -1 1 0 0zM57 5l1 1v-1h-1zM60 2c-1 1 -1 2 -2 3c2 0 5 0 13 -1c-8 -1 -10 -2 -11 -2zM132 5l1 1c-4 2 -5 4 -8 6l1 1c2 -3 3 -5 6 -8z" />
    <glyph glyph-name="I" unicode="I" horiz-adv-x="312" 
d="M417 682c3 -5 7 -12 10 -16c-1 -11 -8 -15 -15 -17c-16 -5 -32 -10 -49 -15c-16 -5 -33 -9 -49 -13l-33 -12c-11 -23 -12 -46 -13 -70c3 9 7 19 12 31c0 -8 1 -16 0 -22c-21 -114 -41 -229 -60 -344c-6 -32 -10 -65 -14 -97c8 -16 21 -23 35 -29c1 -4 2 -7 4 -12
c5 -2 13 -4 19 -9c3 -2 5 -7 8 -12c-6 -3 -11 -7 -16 -7c-53 -7 -105 -16 -157 -28c-11 -3 -22 -2 -33 -3c-6 7 -13 12 -20 19c-7 1 -16 1 -26 1c-7 8 -15 15 -24 24c18 29 50 20 73 35c1 69 24 134 42 199c24 89 52 177 78 264c2 10 5 20 9 34c-12 -4 -20 -6 -29 -8
c-19 -7 -37 -8 -51 11c-11 2 -21 2 -31 3c-5 5 -10 10 -14 17c2 3 2 7 4 8c10 6 18 11 27 15c54 26 109 47 166 64c15 5 30 9 45 15c-1 9 -6 8 -9 6c-45 -14 -90 -30 -134 -46c-17 -6 -35 -14 -53 -22c-7 -1 -14 -2 -21 -4c17 10 34 20 51 29c52 25 106 44 160 63
c11 3 23 7 37 1c-5 -7 -8 -13 -12 -19c12 -10 23 -1 37 -2c13 -13 33 -14 46 -32zM260 509c1 5 1 7 1 9c0 1 -1 1 -1 1v-10zM265 589c1 4 2 9 3 12c-18 -25 -54 -181 -102 -426c-5 -23 -11 -46 -11 -72c2 2 4 2 4 3c31 162 68 322 106 483zM95 640l1 2h2c0 0 -1 -1 -2 -1z
" />
    <glyph glyph-name="Z" unicode="Z" horiz-adv-x="498" 
d="M522 39c4 -3 3 -10 5 -18c-36 13 -67 26 -100 37c-33 10 -67 15 -100 15s-66 0 -98 -1c-33 -1 -63 -7 -90 -17c-8 -9 -16 -16 -22 -24c-1 3 -2 6 -4 10c-13 -2 -11 -15 -20 -21h-52c-12 7 -32 7 -44 24c1 23 25 29 41 42c9 20 13 41 16 63c1 8 136 249 137 258
c-3 -5 -140 -242 -142 -246c-3 -7 -5 -13 -6 -20c-2 -7 -2 -13 -3 -25c-6 9 -11 14 -11 18c0 13 -2 27 0 39c4 15 11 31 18 45c46 90 97 175 163 253c7 9 7 9 25 15c33 46 68 94 102 142c-8 6 -12 4 -17 3c-68 -15 -130 -38 -188 -68c-11 -6 -18 -14 -27 -21
c-11 1 -19 9 -25 17c-4 10 -1 17 7 21c11 8 23 15 36 21c14 7 28 12 42 19v1c1 0 1 -1 1 -1c1 2 4 2 6 4c5 1 8 2 13 4c-5 1 -8 2 -13 3l1 -1c-1 0 -1 0 -1 1v-7c-2 1 -5 1 -6 2v6h-1h1c-16 -5 -32 -10 -47 -15c-9 -3 -18 -9 -29 -6c11 7 22 15 34 21c77 34 159 57 249 66
c10 2 19 4 31 4c14 -1 32 0 47 -15v-9c7 -4 13 -8 20 -11c-1 -5 -1 -8 -2 -8c-5 -3 -9 -4 -15 -5c-9 -3 -15 -9 -18 -17c5 0 10 1 15 1c9 -8 6 -16 6 -23c6 5 11 10 19 18c2 -9 4 -14 3 -18c-5 -11 -12 -21 -18 -32c-46 -71 -94 -142 -139 -214c-46 -74 -86 -151 -122 -230
c-2 -3 -3 -6 -4 -8c5 -7 10 -4 16 -4c38 3 77 4 118 -1c54 -7 106 -26 155 -55c13 -9 25 -21 37 -32zM430 626c5 1 6 5 5 9c-2 -2 -4 -6 -5 -9zM429 625c-4 -1 -7 -2 -2 -7c1 3 1 4 2 7zM302 659v0zM307 661v0zM172 624v0v0h1h-1zM116 31h1v-1v0h-1v1zM114 16
c-4 9 -2 12 2 14c0 -3 -1 -7 -2 -14zM87 609l1 2h2c-1 0 -1 -1 -1 -1zM164 624c0 0 1 0 1 1v-4c0 1 -1 1 -1 3zM166 626v-1h-1v1v0v0v0v0h1z" />
    <glyph glyph-name="Y" unicode="Y" horiz-adv-x="397" 
d="M88 260l-1 -2c4 2 10 2 15 3c-7 11 -18 11 -28 13c-44 41 -69 87 -74 142c-7 68 5 134 29 201c4 18 12 37 21 58c5 14 14 29 32 39c22 2 46 -1 60 -19c0 -4 1 -7 0 -9c-23 -63 -35 -125 -41 -192c-4 -54 3 -108 22 -163c4 -11 8 -24 18 -33c9 -2 12 5 15 8
c12 17 25 35 36 55c17 31 33 63 48 95c11 21 18 42 36 60c1 2 2 5 2 9c18 37 35 73 38 113c1 8 2 16 11 26c17 5 31 1 47 -11c0 -9 0 -21 1 -30c1 -15 1 -31 2 -46v-14c-3 -36 -6 -71 -13 -107c-14 -98 -37 -196 -62 -295c-2 -5 -2 -14 -3 -21c-9 -7 -6 -15 -6 -22
c-10 -11 -13 -24 -14 -38c-5 -5 -4 -11 -4 -16c-4 -5 -6 -10 -8 -16c-1 -2 -2 -4 -1 -1c0 -3 0 0 0 2c9 3 7 10 8 15c6 4 4 10 4 16c11 12 15 25 15 38c8 6 6 13 6 23c9 5 8 16 9 24c20 76 40 152 54 228c4 28 12 53 16 82c2 9 3 17 4 27c2 1 3 2 8 2c0 4 0 10 -2 15
c-2 20 -3 41 7 61c3 10 0 24 0 34c-4 6 -9 9 -13 14c3 2 9 4 11 3c4 -2 11 -6 12 -9c3 -9 5 -17 6 -25c2 -46 -1 -89 -8 -132c-12 -83 -27 -167 -48 -250c-13 -48 -28 -98 -43 -146c-7 -18 -16 -36 -26 -54c-6 -11 -11 -19 -20 -25c-11 -11 -26 -18 -44 -16
c-18 4 -37 1 -55 -1c-28 -2 -55 7 -68 29c-27 39 -46 80 -56 122c-5 27 6 46 31 61c7 -1 15 -3 24 -3c6 -8 13 -15 22 -23c4 2 9 3 16 4c0 -33 13 -61 27 -89c12 0 12 8 13 13c15 44 31 87 45 130c16 49 29 101 42 149c1 4 2 8 -2 12c-4 -8 -6 -14 -10 -22
c-10 -18 -20 -37 -30 -55c-12 -18 -25 -35 -52 -40c-7 -1 -12 -6 -16 -9h-43c-9 1 -16 1 -22 8zM113 136h3v9h-3v-9zM258 28h-2l1 -2z" />
    <glyph glyph-name="X" unicode="X" horiz-adv-x="404" 
d="M369 97c9 -12 21 -22 34 -34c-2 -3 -4 -8 -6 -14h-20c-3 -5 -5 -10 -8 -15c0 0 -1 -2 -2 -2c-37 -16 -55 -16 -80 9c-12 12 -23 26 -33 41c-27 41 -52 84 -78 127c-4 7 -6 16 -15 21c-8 -8 -7 -14 -4 -20c4 -10 6 -18 10 -27c-4 3 -7 4 -9 7c-5 6 -8 12 -14 20
c-5 -6 -9 -10 -13 -14l-72 -105c-6 -9 -11 -19 -24 -26c-3 3 -8 6 -13 9c-10 -1 -19 3 -29 7c1 13 6 25 12 36c13 25 29 51 45 77c13 20 27 40 40 60c7 8 12 17 17 25c-3 10 -7 18 -10 25c-26 62 -46 125 -49 194c-1 22 2 44 5 67c0 11 1 11 14 29c13 7 28 14 44 11
c7 -6 7 -16 7 -25c3 -45 13 -89 26 -131c2 -6 6 -10 9 -15c-2 9 -2 19 -5 28c-12 37 -14 77 -18 117c0 5 2 10 3 20c4 -5 8 -7 9 -10c2 -13 5 -26 6 -39c10 -51 25 -98 52 -143l12 12l87 105c6 7 11 17 21 20c0 -3 -1 -6 -1 -10c3 4 6 8 8 10h-1h1h-7c3 9 7 13 15 17
c-1 -4 -1 -8 -2 -11v0c3 3 7 8 9 12l-1 -1s1 0 1 1h-7c2 6 8 12 15 15c-1 -3 -1 -7 -2 -11v0c3 4 5 8 9 11c7 9 16 16 23 23c11 11 22 23 34 33c7 9 15 14 28 12c9 -9 24 -14 27 -32c-19 -22 -40 -45 -59 -68c-21 -23 -41 -47 -59 -71c-20 -24 -38 -47 -57 -71
s-38 -48 -56 -72c2 -6 3 -12 5 -17c30 -62 61 -123 100 -181c8 -12 16 -25 26 -36zM121 307c0 0 1 1 2 1c-1 2 -2 3 -3 4l-2 -1c1 -1 2 -3 3 -4zM153 433c-1 -5 -2 -9 4 -11c1 5 1 9 -4 11zM158 421c-2 -4 -1 -8 3 -10c1 5 1 8 -3 10zM161 410c-1 -5 -1 -8 4 -10
c-1 4 -3 6 -4 10zM166 399c0 -5 -1 -8 4 -10c-1 4 -2 6 -4 10zM171 388c-2 -3 -2 -6 4 -6c-2 2 -4 4 -4 6zM335 562v-1v0v1v0zM320 544v0v0v0v0zM186 150c-7 3 -9 8 -9 15c7 -3 9 -9 9 -15zM177 165h-1v1l1 -1v0zM176 166c-7 3 -9 8 -8 16c6 -4 8 -9 8 -16zM168 182h-1v1h1
v-1zM191 143c-2 2 -4 4 -5 6v1l1 -1c0 -2 3 -4 5 -6c1 -3 2 -7 4 -11c1 -2 3 -3 5 -5l-1 -1c-2 2 -3 4 -5 6c-2 4 -3 8 -4 11zM357 577h-7v0v1h7v-1v0z" />
    <glyph glyph-name="W" unicode="W" horiz-adv-x="629" 
d="M143 33v0v-1h-1c0 1 0 1 1 1zM677 671c7 -19 10 -38 11 -58c1 -37 -5 -72 -12 -108c-13 -66 -29 -131 -55 -193c-8 -19 -17 -36 -26 -54c-17 -31 -40 -57 -69 -80c-34 -26 -74 -29 -115 -24c-15 3 -27 11 -35 21c-11 12 -23 26 -31 41c-24 40 -38 83 -47 126
c-1 5 -2 8 -4 13c-10 -2 -9 -9 -12 -15c-20 -53 -41 -107 -61 -161c-12 -32 -24 -64 -38 -95c-5 -14 -15 -27 -23 -40c-2 4 -4 5 -5 0c-9 -1 -11 -5 -12 -11c-13 0 -26 2 -39 -4c-6 -2 -16 -2 -23 -1c-6 1 -13 3 -20 1c-15 -2 -24 6 -32 16c-10 13 -15 27 -19 41
c-9 42 -13 83 -10 125c6 75 18 148 40 220c5 17 11 32 17 49c4 10 9 18 18 27c7 7 11 16 18 27c9 10 26 9 41 9c8 -3 10 -10 8 -16c-23 -62 -38 -125 -50 -189c-9 -54 -16 -109 -12 -164c4 30 6 59 9 90c5 30 9 61 16 92c5 30 12 60 20 91c8 30 15 61 28 91
c7 -3 13 -6 20 -9c0 -11 0 -21 -2 -33c-8 -48 -17 -97 -25 -147c-8 -54 -15 -109 -14 -164c0 -7 0 -13 1 -20c10 0 11 6 12 11c18 39 34 79 52 119c29 67 58 133 87 201c7 13 15 27 22 41c4 6 9 13 14 18c27 9 51 7 73 -3c0 -4 1 -6 0 -7c-21 -17 -25 -40 -28 -63
c-4 -32 -3 -64 2 -100c3 8 4 11 5 15c10 -30 19 -61 29 -91c8 -27 21 -52 38 -75c7 -12 15 -23 29 -32c5 4 10 8 14 12c18 23 32 48 44 73c28 61 46 123 59 187c5 30 9 60 13 90c3 27 -2 53 -6 79h-1v1c1 0 1 0 1 -1c0 1 1 1 1 2s-1 3 -1 3h-1v0h1c-2 26 -23 41 -44 56
c5 1 8 3 12 4c1 5 3 9 4 12c3 1 4 3 6 3c24 5 46 -1 67 -8s33 -23 40 -41zM38 79c0 1 1 2 1 2c0 1 -1 1 -2 1v-2c0 0 1 0 1 -1zM46 62h-1h1zM48 58v0zM66 470h2l-1 2zM287 396v0zM178 139c-11 -10 -16 -22 -17 -36c10 10 17 22 17 36zM149 82c5 2 6 5 5 9c-5 -2 -5 -6 -5 -9
zM155 92c5 2 5 5 5 10c-5 -2 -5 -6 -5 -10zM178 141c14 17 26 46 30 67c-12 -18 -25 -47 -30 -67zM216 219c17 39 33 79 50 118c2 5 1 10 2 14c-2 -2 -5 -4 -6 -7c-17 -41 -35 -82 -52 -122c-1 -4 -1 -9 -1 -13c2 3 5 6 7 10zM269 353c11 12 15 26 17 40
c-10 -11 -16 -24 -17 -40zM374 354v14h-2v-14h2zM379 336h1l-1 2v-2zM155 43h-1l1 1v0v-1zM160 43v1v0s0 -1 1 -1h-1zM155 34v9h5c-2 -3 -4 -6 -5 -9zM154 32c-4 -3 -8 -5 -11 0h11c0 1 0 1 1 1v1v-2h-1zM590 644c0 1 1 1 1 1v-4c0 1 -1 2 -1 3zM579 656h1v0h-1z" />
    <glyph glyph-name="V" unicode="V" horiz-adv-x="392" 
d="M494 671c4 1 9 3 16 5c-1 -5 0 -8 -2 -10c-19 -20 -32 -43 -44 -66c-61 -119 -108 -241 -138 -370c-11 -44 -21 -88 -31 -133c-1 -1 -2 -4 -4 -9c-4 19 2 34 5 50c19 109 48 217 89 322c8 18 15 36 22 54c2 5 1 9 2 14c9 6 12 15 12 26c11 11 17 23 18 37
c12 12 17 28 24 42l6 12h2h-2l-6 -12c-14 -11 -21 -25 -23 -42c-12 -10 -18 -23 -19 -38c-9 -6 -12 -15 -12 -26c-3 -5 -8 -9 -10 -15c-50 -113 -87 -229 -109 -347c-7 -36 -14 -72 -22 -108c5 -7 9 -15 13 -23c-2 -3 -5 -7 -9 -9c-7 2 -14 2 -20 4c-4 -2 -7 -5 -11 -8
c-16 -3 -29 1 -41 7c-19 12 -36 24 -48 43c-67 96 -111 200 -135 311c-3 18 -5 35 -8 53c-2 14 -4 27 -6 42c-1 8 0 16 3 23c1 -6 2 -14 3 -20c2 -7 4 -14 8 -25c1 30 2 55 4 80c1 2 3 3 5 6c11 2 25 7 36 1c16 -7 37 4 50 -15c5 -31 9 -64 16 -95c6 -32 15 -64 25 -96
s21 -63 35 -93c13 -30 23 -62 46 -93c6 31 12 58 18 84c26 111 60 219 109 323c17 35 38 67 61 98c10 13 13 14 35 25c9 1 18 1 29 2c3 -3 6 -7 8 -12c-1 0 -1 0 -2 -1zM215 74l-1 -1c4 0 9 -2 12 -4l1 1c-4 1 -8 3 -12 4zM197 90c2 -2 3 -4 5 -6v1c-2 2 -3 4 -5 5zM190 96
c2 -2 4 -4 7 -6v0c-2 2 -4 4 -7 6h-2h2zM179 112l-1 -1c1 0 1 -1 2 -1c0 1 -1 1 -1 2zM178 111l1 1l-2 1zM227 70l-1 -1c1 0 2 -1 3 -1c-1 0 -2 1 -2 2zM214 73l1 1c-3 2 -4 4 -6 6v-1c2 -2 3 -4 5 -6zM202 85v-1c2 -1 4 -3 7 -5v1c-2 2 -4 4 -7 5z" />
    <glyph glyph-name="U" unicode="U" horiz-adv-x="476" 
d="M50 415c-2 -3 -6 -6 -7 -9c-14 -40 -25 -81 -30 -124c-3 -21 -6 -41 -8 -66c-7 32 -2 61 3 88c10 58 27 114 55 169c9 19 23 36 35 55c6 9 15 16 29 20c18 4 34 -6 52 -13c2 -4 5 -9 8 -13c0 -3 0 -4 -1 -5c-19 -39 -30 -79 -40 -120c-6 -26 -12 -50 -8 -76
c1 -9 -1 -19 -2 -27c-4 -34 1 -67 13 -100c4 -11 8 -23 19 -33c14 6 21 16 30 26c23 28 37 59 48 92c20 61 40 123 60 183c12 39 24 78 37 115c5 12 7 25 19 33c19 4 35 -2 52 -5c7 -6 15 -10 23 -15c6 -19 7 -38 4 -59c-13 -92 -21 -183 -23 -274c-1 -39 1 -80 5 -119
c3 -37 13 -72 43 -100c-4 -7 -9 -12 -13 -19c-12 0 -24 -1 -36 1c-10 1 -21 6 -32 8c-26 17 -40 41 -49 68c-10 30 -14 60 -18 91c0 5 0 9 -1 14c-8 -1 -8 -6 -7 -11c3 -32 4 -65 14 -97c2 -4 1 -9 1 -13h1c-3 3 -6 5 -7 8c-4 21 -8 42 -13 63c-1 8 -2 16 -3 25
c-10 0 -10 -5 -12 -8c-3 -3 -6 -7 -8 -11c-10 -15 -23 -28 -42 -35v1c-32 -15 -67 -17 -102 -11c-39 7 -77 18 -99 53c-6 8 -10 17 -13 26c-3 7 -1 12 4 17c-1 -7 -1 -12 6 -17c1 -8 2 -16 13 -20c2 -4 3 -7 5 -11l1 -1l-2 1c-2 4 -2 7 -4 11c-5 6 -9 13 -13 20
c-2 6 -4 11 -6 17c-2 25 -9 50 -6 76c4 37 11 74 20 110c2 7 3 14 5 21c1 3 2 7 3 10c-1 1 -1 1 -3 1v-11zM247 181c6 4 11 9 11 16c23 23 40 59 40 84c-13 -26 -26 -52 -39 -79c-1 -2 0 -3 0 -5c-8 -3 -11 -10 -12 -17v1zM349 442c9 13 12 27 10 42c-4 -8 -8 -16 -9 -24
c-1 -6 0 -12 -1 -18c-6 -4 -5 -9 -2 -20c1 10 1 16 2 20zM361 85c0 -1 1 -3 0 -1c1 -2 0 0 0 1c-2 13 -5 26 -7 40c-2 12 -4 24 -5 37s-1 26 -2 39s-1 25 -2 37c-2 13 2 25 -6 43c-1 -14 -3 -20 -3 -27c1 -30 1 -60 3 -90c2 -20 7 -39 11 -58c1 -8 2 -16 11 -21zM83 257
l3 30c1 9 3 19 5 28c1 10 3 20 6 30c1 9 3 19 5 28c3 10 6 21 8 32l9 27c3 10 6 19 10 29c3 9 7 18 11 27c3 8 10 16 7 31c-21 -34 -31 -66 -41 -98c-15 -53 -29 -107 -23 -164zM57 443v-3l2 2zM372 16c-14 4 -24 12 -29 26h-1c10 -9 20 -17 30 -26zM331 63v1
c-7 4 -6 10 -5 16h-1c6 -5 5 -10 6 -17zM235 112v-1c-1 -1 -3 -1 -2 -1c-1 -1 0 1 2 2zM331 64v-1c2 -3 4 -6 6 -10h1c-8 2 -7 7 -7 11zM342 42h1c-6 2 -6 7 -5 11h-1c1 -3 3 -7 5 -11zM241 117c0 1 1 1 1 2c0 0 -1 2 -1 3v1v-6l-6 -6v1c1 1 3 3 6 5z" />
    <glyph glyph-name="T" unicode="T" horiz-adv-x="300" 
d="M59 720c49 18 101 29 151 38c73 16 146 23 220 30c39 2 76 5 113 6c23 1 45 0 69 -2c26 -2 39 -7 58 -23c1 -4 0 -7 1 -11c14 -9 29 -19 20 -39c-15 -6 -29 -6 -44 -5c-48 5 -95 2 -142 0c-55 -5 -111 -10 -166 -19c-9 -12 -16 -23 -25 -35h4c-5 -14 -7 -27 -11 -39
c-21 -50 -35 -100 -45 -151c-9 -37 -49 -210 -54 -247c-6 -53 -9 -105 -4 -157c2 -28 11 -54 29 -74c-1 -7 -1 -14 -2 -19c-6 -1 -11 -1 -16 -3c-30 -12 -54 -5 -76 11c-27 20 -45 44 -49 76c-2 27 -8 56 -7 85c-1 63 34 264 49 327c5 29 14 57 21 85v-1c6 9 9 16 2 23v0
c0 3 1 7 1 11h11v14c17 21 23 44 40 69c-16 3 -29 -2 -42 -6c-13 -3 -26 -6 -41 -11c-12 -3 -24 -5 -37 -9c-14 -4 -27 -10 -38 -17c-10 -1 -18 -3 -26 -4c-7 6 -14 11 -20 16c-3 10 -9 20 -13 32c2 4 5 10 11 12c6 6 15 12 23 15c11 3 10 16 22 17c0 -1 1 -1 1 -2l-1 1
c3 2 8 4 13 6l1 -1zM155 579v1c-9 -7 -9 -17 -14 -28c-6 -14 -8 -26 -12 -40c-5 -14 -9 -28 -13 -42c-5 16 3 31 7 46c8 24 17 50 26 74c2 4 6 8 9 12v0c0 -8 -2 -16 -3 -23z" />
    <glyph glyph-name="S" unicode="S" horiz-adv-x="421" 
d="M171 569l1 1c-6 -6 -14 -13 -19 -20c-18 -24 -32 -51 -40 -81c10 -6 19 -11 25 -20c8 -13 22 -22 37 -30c31 -16 62 -34 93 -49c28 -13 54 -29 73 -53c3 -3 8 -5 11 -9v1c0 -1 1 -2 2 -3c2 1 3 2 4 3v-1c4 -4 8 -6 12 -11c13 -18 20 -40 24 -62c8 -53 -3 -104 -27 -152
c-4 -10 -12 -19 -22 -25l1 1c-10 -9 -19 -19 -30 -27c-14 -9 -28 -20 -44 -27c-37 -17 -75 -32 -113 -46c-3 -2 -8 -2 -12 -2c2 2 5 6 8 10h-37c-28 -1 -53 2 -78 12c3 1 4 1 9 3c-7 5 -13 9 -19 13c-6 5 -10 9 -18 14c-1 -14 12 -17 17 -26c-6 1 -11 2 -18 4
c0 -4 -1 -6 0 -9c6 -13 17 -21 32 -26c19 -6 39 -6 58 -3c16 3 32 6 47 9c-11 -12 -26 -12 -41 -14c-21 -5 -43 -5 -64 1c-24 7 -38 20 -42 41c-3 12 -4 25 -2 38c4 41 16 82 39 118s47 70 74 103c25 32 57 57 94 77c1 3 1 5 2 8v0c7 -1 13 -8 21 -3c-23 24 -63 47 -117 67
v0v0v-5v0c-6 3 -12 5 -17 9c-9 7 -17 16 -25 24c-15 14 -23 31 -19 51c2 13 4 28 10 41c16 37 39 70 68 99c39 41 83 75 131 106c30 19 64 32 100 40c24 7 49 6 74 4c13 -2 26 -4 38 -6c32 -8 47 -24 48 -54c0 -22 -7 -42 -15 -62c-11 -26 -26 -50 -43 -73
c-11 -14 -19 -29 -32 -41v1c0 -1 -2 -2 -1 -3c0 -1 1 -2 1 -4v1c-5 -3 -9 -7 -12 -11v0c-2 -2 -5 -3 -7 -5l1 1c-3 -3 -4 -5 -7 -7l1 1c-2 -2 -5 -4 -7 -6l1 1c-2 -4 -4 -8 -7 -11h1c-2 -2 -5 -4 -7 -6l1 1c-2 -3 -4 -5 -7 -7l1 1c-2 -1 -5 -4 -7 -6v1
c-13 -7 -28 -12 -42 -19c-22 -11 -43 -11 -63 1c-4 10 2 14 7 20c18 24 37 47 53 71c18 27 33 56 49 84c13 23 19 47 8 72c4 0 7 -1 11 -1c1 10 -3 17 -10 26c-5 -3 -9 -4 -13 -6c1 -9 15 -10 13 -20c-9 5 -17 8 -27 13c-10 -5 -21 -9 -31 -16c-46 -27 -88 -59 -125 -95
c-6 -7 -13 -12 -21 -18v-1h-6v0c-2 -4 -5 -7 -7 -11zM196 42l-2 -2c0 1 1 1 1 2c3 2 5 4 7 6c1 1 4 0 5 1c33 21 61 46 79 79c7 13 13 26 9 45c-3 -8 -5 -11 -6 -16c-12 -33 -33 -61 -60 -84c-9 -9 -18 -17 -27 -25zM178 31l1 1l-2 -2zM208 31l1 1l-2 -1v0h1zM280 282
c-2 1 -5 3 -7 5c-7 15 -7 15 -20 18c5 -9 11 -15 21 -17l6 -6c1 -1 2 -1 2 -2c0 1 -1 1 -2 2zM358 292c2 -3 4 -6 5 -10c1 -2 3 -3 1 -2c1 -1 0 0 0 2c-1 4 -4 8 -7 11zM94 90c-16 -29 -15 -41 4 -55c-1 18 -3 37 -4 55c4 3 6 6 2 11c-1 -5 -1 -8 -2 -11zM137 27h7
c85 41 139 103 151 189c5 35 -12 63 -51 80c-16 -15 -28 -32 -40 -50c-34 -49 -64 -100 -81 -156c-2 -10 -4 -21 -4 -31c1 -13 5 -24 18 -32zM360 133c9 14 17 29 14 46c-3 -2 -5 -2 -5 -2c-3 -14 -6 -29 -9 -44zM484 709c-1 -12 -2 -19 -3 -26c0 -7 -1 -14 -2 -26
c16 34 16 36 5 52zM240 321c0 -1 -1 -3 -2 -4h5c-1 1 -2 3 -3 4zM372 261h2l-1 2zM487 715v2l-1 -1zM171 351h1c-8 1 -15 4 -18 11v-1c8 0 15 -2 17 -10zM190 340v1c-8 1 -14 4 -18 10h-1c9 -1 15 -3 19 -11zM208 330c-8 1 -15 4 -18 11v-1c8 0 14 -4 18 -10zM135 372l1 1
c-8 0 -13 4 -18 10v0c8 -1 14 -4 17 -11zM154 361v1c-8 1 -14 4 -18 11l-1 -1c9 -1 15 -3 19 -11zM406 495v1c-3 -4 -5 -8 -7 -11h1v11l-1 -1h7zM352 309v-1v12v-1c2 -4 4 -7 6 -11v1h-6zM352 320v-1l-1 1h1zM118 383c-2 2 -5 4 -6 6v0zM381 469l1 -1h-7v1h6zM388 473h-1
c-1 0 -3 -2 -6 -4l1 -1v6l-1 -1h7zM394 479h-1l-6 -6h1v7l-1 -1h7zM400 485h-1c-1 -2 -3 -4 -6 -6h1v6h-1h7zM412 500h-1c-2 -1 -3 -3 -5 -4v-1v6l-1 -1h7zM418 506c-3 -2 -5 -4 -7 -6h1v7l-1 -1h7zM418 511c0 -1 1 -3 2 -3c0 0 -2 -1 -2 -2v0v5zM430 528v-1c0 -1 1 -2 2 -4
l-2 -1v-1v7zM345 58l1 1l1 -2zM28 -16c4 -2 8 -4 13 -6c-5 2 -9 4 -13 6z" />
    <glyph glyph-name="R" unicode="R" horiz-adv-x="633" 
d="M563 448h1c3 7 7 15 12 23c11 19 21 38 26 60c5 21 5 42 -5 62c-1 4 -4 6 -9 12c0 -8 0 -13 1 -17c7 -35 -1 -67 -17 -98c-8 -15 -17 -28 -27 -42c-31 -43 -65 -83 -105 -120c-33 -30 -66 -61 -116 -74c5 -9 8 -16 12 -22c24 -35 50 -69 80 -101c28 -31 62 -58 104 -76
c8 1 17 1 26 2c1 -2 2 -4 4 -7c8 -1 8 7 16 10c10 -4 24 5 37 -4c5 -11 -2 -20 -10 -26c-20 -14 -40 -29 -69 -27c-17 1 -34 -5 -51 -2c-78 12 -140 46 -187 102c-12 15 -23 30 -38 49c-4 -15 -2 -26 -3 -37c-1 -10 -3 -21 -4 -31c-1 -12 0 -23 -2 -35c-2 -10 -1 -21 -8 -31
c-12 5 -14 16 -22 24c0 28 -1 56 0 85c1 27 4 56 5 84c-11 -26 -13 -55 -15 -82c-2 -33 0 -66 8 -98c1 -8 3 -15 -1 -24c-10 -1 -21 -3 -33 -3c-16 13 -41 9 -59 24c-10 14 -14 32 -19 48c-13 47 -8 94 -3 141c8 81 36 158 69 233c5 13 12 26 17 40c1 1 1 3 1 6
c-2 1 -4 3 -5 5v-1c5 9 17 15 17 28h1l-1 -1c-9 -8 -20 -15 -24 -27l1 1c-3 -2 -4 -5 -7 -6l1 1c-10 -11 -22 -22 -32 -33c-16 -21 -32 -42 -49 -64c-30 -7 -54 5 -76 17c-4 12 1 22 6 30c12 20 24 41 38 61c41 54 91 101 149 140c40 27 84 47 135 54c3 1 7 1 12 1
c57 3 113 -3 166 -23c30 -11 55 -28 79 -46c26 -21 33 -49 31 -79c-4 -38 -23 -72 -51 -103c-1 -1 -5 -2 -7 -3zM289 602l-1 -1c-2 -2 -4 -3 -7 -5c-12 -5 -12 -5 -15 -14c5 5 10 9 15 15c2 2 4 3 6 5h2zM281 138c2 -4 4 -7 6 -10l2 -1l-1 1c-2 3 -4 7 -6 11c-2 2 -4 3 -6 5
c-2 4 -4 8 -6 11s-3 7 -6 10c-2 2 -4 4 -7 6c-1 1 -2 3 -1 1c0 2 0 0 1 -2c2 -2 4 -4 7 -5c2 -4 3 -7 5 -11c2 -3 4 -7 6 -11c3 -1 4 -3 6 -5zM257 400c9 6 9 16 11 24c13 35 25 71 38 106c1 3 5 6 10 14c-1 -11 0 -14 -1 -19c-7 -28 -14 -55 -23 -83
c-11 -35 -14 -71 -18 -105c5 -12 10 -22 18 -28c4 0 6 0 8 1c7 4 15 10 23 16c50 44 93 94 131 147c19 27 33 56 40 87c6 28 6 58 -18 85c-9 0 -18 3 -28 4c-32 3 -62 -4 -89 -18c-25 -14 -49 -31 -73 -46c-2 -1 -3 -4 -4 -7c5 -3 9 -7 13 -11c5 -12 5 -23 2 -34
c-7 -18 -11 -36 -17 -54c-7 -27 -15 -53 -23 -80c-4 -4 -6 -9 -2 -17c1 7 1 12 2 18zM102 11l-1 -1c-2 6 -4 10 -6 16v1c2 -6 5 -11 7 -16zM563 448h1c-2 -4 -4 -8 -6 -11h-1c2 3 4 7 6 11zM95 27v-1c0 1 0 3 0 1c-1 2 0 0 0 0zM557 437h1l-2 -1zM167 496l1 -1h-7l1 1h5z
M174 500v1c-3 -2 -5 -4 -7 -5l1 -1v6l-1 -1h7zM107 4l1 1l1 -1h-2zM101 10l1 1l6 -6l-1 -1c-1 2 -4 4 -6 6z" />
    <glyph glyph-name="Q" unicode="Q" horiz-adv-x="514" 
d="M525 473h-1c12 -21 13 -43 9 -66c-7 -54 -29 -102 -57 -147c-21 -33 -45 -63 -73 -91c-7 -7 -13 -14 -22 -22c10 -33 24 -63 38 -94c15 -30 30 -59 60 -77c-17 -13 -39 -16 -54 -7c-18 9 -32 22 -42 38c-15 26 -29 53 -43 78c-6 9 -9 18 -15 27c-6 -2 -11 -4 -15 -5
c-45 -24 -92 -28 -142 -17c-44 10 -83 29 -117 58c-32 26 -45 62 -49 102c-4 39 0 75 10 113c16 59 45 112 79 164c21 31 43 61 67 91c15 19 34 37 52 53c19 16 40 24 65 16c5 -2 12 -1 17 -2c18 -3 31 -11 42 -27c-11 -16 -25 -25 -45 -32c-11 -15 -23 -31 -34 -48
c-13 -21 -25 -42 -37 -64c-3 -5 -4 -11 -6 -17c-14 -12 -21 -29 -24 -47c-2 -5 -3 -9 -5 -13c-10 -8 -12 -18 -13 -29c-6 -5 -7 -12 -6 -19c-2 -2 -4 -4 -5 -6c-17 -39 -27 -80 -30 -122c-2 -25 3 -50 14 -73c2 -4 7 -9 12 -17c-5 18 -7 31 -10 45c-9 45 -1 89 9 133
c4 13 7 27 10 41c2 5 4 12 6 18c8 8 11 19 12 30c2 4 3 8 5 12c12 14 20 30 24 48c5 1 9 3 14 5h-1c-13 -34 -28 -68 -39 -103c-16 -50 -28 -100 -27 -153c1 -25 6 -49 16 -72c2 -6 6 -10 9 -15c30 5 70 33 99 65c-5 15 -9 30 -12 45c-5 24 -12 47 -15 71
c-7 55 3 109 24 160c14 34 40 54 74 60c70 12 145 -26 156 -100c4 -25 4 -50 0 -75c-1 -10 -2 -21 -4 -32c0 -2 -1 -4 0 -2c0 -3 0 0 0 2c14 16 16 36 18 55c3 21 1 43 2 64zM397 505c-15 1 -28 1 -40 2c-35 -51 -40 -170 -17 -213c4 4 9 8 12 12c27 39 45 82 54 128
c6 24 4 48 -9 71zM225 503h-1c1 2 2 5 1 2c0 3 0 0 0 -2zM525 473h-1l-1 1z" />
    <glyph glyph-name="P" unicode="P" horiz-adv-x="534" 
d="M155 681c25 2 46 3 65 -15c1 -5 2 -11 4 -21c5 3 10 5 15 7c2 -1 4 -1 5 -3c3 -4 5 -10 6 -16c1 -7 0 -15 0 -25c9 4 16 7 22 12c57 35 117 38 180 21c71 -21 111 -85 116 -148c3 -29 -1 -56 -9 -83c-23 -74 -62 -139 -120 -190c-63 -56 -138 -83 -223 -75
c-1 4 -2 6 -3 8h-33c-8 -24 -22 -136 -32 -254c-8 -4 -16 -8 -27 -13c-26 -4 -48 14 -70 22c-11 13 -12 26 -12 39c-1 48 0 96 4 144c18 176 52 350 92 524c5 22 9 44 20 66zM224 477c-12 -86 -26 -175 -39 -261c6 -9 11 -16 16 -22c15 -3 29 4 43 8c59 20 108 54 148 103
c39 50 72 103 87 165c8 30 11 61 2 92c-12 37 -36 53 -74 47c-4 0 -7 -1 -10 -2c-25 -6 -48 -17 -70 -31c-40 -24 -72 -57 -103 -99zM126 -92c1 2 1 3 1 4c0 0 -1 0 -1 -1v-3zM94 533h-1c0 -7 1 -15 -1 -23c-8 -31 -13 -62 -17 -94c-10 -76 -20 -152 -31 -228
c-10 -72 -16 -145 -16 -218c0 -9 -1 -19 -3 -29c-9 33 -10 67 -7 101c2 30 2 59 1 89c-11 -67 -9 -135 -12 -202c-2 6 -3 11 -4 18c-6 96 1 193 19 288c18 90 36 180 60 269c3 10 3 22 12 29zM24 156h1v18h-1v-18zM93 533h1c0 9 -2 18 6 24h-1c-1 -8 3 -17 -6 -24zM99 557h1
c0 4 0 8 1 12c1 0 2 -1 4 -1c-2 -3 -4 -7 -6 -11z" />
    <glyph glyph-name="O" unicode="O" 
d="M264 138h1c-11 -10 -21 -20 -33 -30c-20 -16 -43 -24 -69 -24c-8 0 -16 0 -23 -1c-3 0 -6 -2 -9 -4c4 -7 9 -14 13 -19v0c-9 5 -18 11 -31 18c-16 2 -36 10 -55 20c-21 10 -36 28 -44 50c-9 21 -13 44 -14 67c-3 50 5 99 15 148c3 17 9 32 7 50c-1 5 3 12 5 17
c16 49 40 94 75 132c9 10 16 22 20 36c13 35 39 59 77 68c19 3 38 3 57 -1c67 -20 116 -59 129 -134c10 -58 7 -117 -9 -174c-18 -70 -49 -135 -86 -196c-4 -7 -9 -11 -13 -17v-1h-7l1 1c-2 -2 -4 -4 -7 -6zM301 270l-1 -1h1c1 3 2 5 1 3c1 2 0 0 -1 -2zM312 301
c6 1 5 6 6 11c7 4 7 12 7 18c3 6 8 13 10 20c11 32 17 66 22 100c5 41 -3 81 -12 120c-2 9 -7 18 -12 27c-2 3 -6 6 -13 13c3 -11 4 -15 6 -20c13 -31 17 -64 18 -98c3 -45 -3 -89 -14 -133c-3 -10 -3 -20 -5 -29c-8 -5 -6 -12 -6 -18l-6 -12c-1 -2 -3 -4 -1 -1
c0 -4 0 -1 0 2zM127 474c1 2 3 4 1 1c0 3 0 1 -1 -2c-2 -3 -4 -8 -6 -11c-3 -7 -8 -12 -10 -19c-18 -46 -30 -95 -36 -144c-4 -29 -6 -57 -6 -87c0 -19 6 -38 10 -58c3 -9 7 -19 19 -22v-2l-1 1c-1 7 -1 13 -3 19c-9 27 -11 56 -11 84c-1 67 11 130 30 194c3 11 5 22 8 34
c6 1 5 7 6 12zM253 593v1c-5 3 -10 5 -15 9c-24 -21 -26 -48 -22 -79c-8 4 -14 6 -20 8c-27 -38 -44 -79 -55 -123s-20 -90 -23 -135c-4 -35 -3 -70 4 -105c2 -9 2 -20 13 -26c16 11 26 25 37 40c42 55 73 117 94 183c16 52 26 107 22 162c-2 25 -6 49 -16 72
c-2 6 -5 11 -10 17c-4 -3 -9 -6 -12 -7c1 -7 2 -11 3 -17zM304 525c0 0 0 -1 -1 -1v-59h1v60zM195 593c-7 -3 -10 -8 -7 -17c6 4 7 11 7 17zM144 603c-11 1 -15 -4 -15 -15c6 7 11 11 15 15zM297 553h1v10h-1v-10zM292 579v4c0 0 -1 0 -1 -1c0 0 0 -1 1 -3zM241 96h1
c-1 8 5 13 11 18h-1c0 -8 -5 -13 -11 -18zM229 84h-1c-4 -6 -9 -11 -17 -11v-1c4 6 10 11 18 12zM193 60l-1 1c-4 -7 -10 -7 -21 -3c11 1 17 1 22 2zM144 60c4 -1 8 -1 12 -2c-1 -1 -1 -2 -1 -3c-3 2 -7 4 -11 5zM265 126v12h-1h7h-1c-1 -4 -3 -8 -5 -12v0zM193 60l-1 1
c4 1 9 3 12 5l1 -1c-4 -2 -8 -3 -12 -5zM211 73v-1c-2 -2 -4 -4 -6 -7l-1 1zM235 90v-1c-2 -2 -4 -4 -6 -5h-1c3 1 5 4 7 6zM235 89v1c1 2 4 4 6 6h1c-3 -2 -5 -5 -7 -7zM258 120v-1l-5 -5h-1zM265 126c-2 -2 -4 -5 -7 -7v1c2 2 5 4 7 6zM277 143v1c-2 -2 -5 -4 -7 -6h1v6
l-1 -1h7zM265 564l-1 -1c2 -3 5 -6 6 -10c0 -1 -1 -4 -3 -7c-1 6 -2 12 -2 18zM264 563l1 1c-7 4 -7 11 -6 17h-1c8 -5 7 -11 6 -18zM253 594v-1c5 -2 5 -6 5 -12h1c-6 3 -6 7 -6 13z" />
    <glyph glyph-name="N" unicode="N" horiz-adv-x="508" 
d="M414 552c4 9 10 18 14 28l36 69c5 7 10 15 16 22c4 5 7 9 9 12h38v-21c10 -1 11 12 22 12c8 -3 15 -11 21 -20c0 -5 -1 -10 -2 -15c5 -3 8 -5 13 -6c4 -11 -1 -19 -5 -27c-14 -40 -30 -80 -47 -120c-33 -83 -59 -169 -77 -257c-8 -45 -15 -90 -14 -136v-18
c10 -11 17 -20 25 -30c-3 -6 -6 -13 -10 -18c-4 -7 -10 -14 -15 -21v-1c-1 4 -2 8 -2 11h-8c-1 -3 -2 -7 -3 -11l1 1c-9 12 -20 21 -36 23c-4 -1 -9 -2 -15 -3c-32 10 -63 20 -66 78c-51 103 -101 201 -130 309c-1 4 -4 8 -6 12c0 3 0 7 -1 11c-1 0 -2 0 -4 -1
c2 -3 4 -7 6 -9c0 -18 -4 -33 -9 -50c-4 -17 -5 -35 -7 -53c-6 -41 -11 -81 -15 -122c-4 -46 -7 -93 -11 -139v-13c-8 -14 -15 -27 -24 -41c-7 8 -14 16 -23 24c-4 -5 -9 -8 -14 -14c-10 2 -20 4 -28 6c-11 6 -20 13 -32 21c-2 5 -5 15 -6 23c-5 50 -3 99 3 149
c4 28 7 55 10 83h-1c9 8 4 20 7 30v-1c9 22 11 46 16 69c18 68 35 135 62 201c7 17 14 36 29 52c9 3 19 5 26 7c21 1 37 -7 52 -16c12 -9 25 -19 42 -24c7 -50 15 -99 28 -146c14 -48 29 -96 46 -147c14 23 13 47 24 66c3 -1 5 -1 9 -1c14 44 29 88 44 132l-1 -1
c8 9 12 20 13 31v0zM305 187c1 -3 2 -5 1 -2c2 -2 0 -1 -1 1c0 6 1 13 -5 17l-7 7c2 12 -3 21 -7 32c-9 25 -20 49 -30 74c-26 77 -43 156 -53 237c0 3 2 9 -5 11c-7 -13 -6 -25 -3 -38c7 -36 13 -71 22 -106c17 -72 43 -142 76 -210c3 -2 5 -4 7 -6c0 -6 -1 -14 5 -17z
M384 233c-8 -11 -7 -23 -3 -34c1 11 1 23 2 34c4 6 5 12 2 17c-1 -5 -1 -11 -1 -17zM369 87c1 0 3 -1 5 -1c0 2 1 5 3 10c-5 -4 -7 -6 -8 -9zM401 521l1 1c-7 -8 -12 -16 -19 -24v-1c1 17 7 31 19 42l-1 1v-19zM300 49c-11 10 -3 22 -2 33c0 -11 1 -22 2 -34v1zM12 300h-1
c-1 -10 4 -21 -6 -30v0c2 10 -2 21 7 30zM330 29h-1c-5 -2 -9 -6 -16 -10c-2 4 -5 8 -8 11v-1h25zM5 270v-24c-5 9 -5 17 0 24zM17 300h1h-7h1c0 10 -2 21 6 29l-1 1v-30zM18 329c0 6 1 11 1 17c1 1 2 1 3 1c0 -6 1 -12 2 -18v1h-7zM300 49v-1c6 -5 6 -11 5 -19v1
c-7 4 -5 11 -5 19zM402 539l-1 1c2 3 4 8 6 12v0c-2 -5 -3 -9 -5 -13zM176 380l1 -2h-1v2zM438 5v1c-5 -6 -9 -6 -12 0l-1 -1h13zM407 552h7v0h-7zM330 29h-1l1 1v-1zM383 498v-1l-1 -1z" />
    <glyph glyph-name="M" unicode="M" horiz-adv-x="647" 
d="M705 771c6 -1 10 -4 17 -7c-8 -22 -27 -30 -41 -46c-2 -5 -4 -12 -6 -18c-22 -78 -45 -156 -66 -234c-17 -63 -25 -129 -29 -195c-3 -45 -4 -90 -4 -134c-1 -19 2 -38 5 -57c0 -5 3 -9 5 -15c6 -3 12 -6 19 -11c3 -4 6 -11 9 -16c-2 -4 -3 -7 -5 -9
c-18 -12 -39 -10 -58 -6c-17 3 -32 10 -48 15c-20 6 -32 19 -39 38c-3 12 -8 23 -10 35c-3 27 -6 54 -6 80c0 90 6 179 28 268c1 4 1 9 2 14c-4 -2 -7 -4 -9 -7c-32 -51 -63 -105 -86 -161c-12 -30 -24 -61 -20 -94c-9 -20 -27 -21 -45 -24c-5 4 -11 10 -17 14
c-3 -3 -6 -8 -9 -12c-13 -4 -20 6 -27 13c-6 1 -12 2 -18 2c-1 4 -2 6 -3 8c-1 11 -1 22 -4 33c-19 68 -46 132 -70 198c1 -32 -7 -62 -9 -95c-3 -54 -7 -109 -12 -163c-5 -38 -12 -76 -19 -113c0 -7 -3 -13 -5 -21c-10 -7 -21 -13 -34 -23c-12 1 -27 3 -42 4
c-6 18 -3 35 -1 51c7 71 15 143 22 215c11 107 16 215 21 323c1 15 1 31 2 47c0 7 2 13 3 19c11 5 16 -1 22 -8c3 1 7 2 11 3c20 -4 28 -20 34 -37c8 -4 14 -8 24 -12c12 -27 23 -56 36 -84c12 -29 24 -57 37 -85c12 -28 23 -57 40 -86c4 8 8 14 12 19
c52 94 116 179 194 254c34 32 68 64 104 96c11 10 25 18 39 25c14 9 30 12 45 1c3 -2 8 0 11 -2zM475 332v9h-1v-9h1zM479 474v1v-1zM478 364c12 53 24 104 35 155c0 2 0 5 1 8c-9 -4 -10 -12 -12 -19c-7 -35 -14 -69 -21 -103c-3 -12 -3 -25 -3 -41zM71 447
c-5 -62 -10 -123 -17 -185c-5 -60 -13 -119 -19 -178c-2 -14 -3 -28 -13 -44c-8 4 -14 7 -21 10c1 25 2 49 3 72c3 34 6 68 11 101c5 50 12 100 16 149c4 33 7 67 6 101c-2 35 3 70 6 105l3 27c1 26 8 51 18 74c4 1 7 2 10 3c5 -18 5 -37 4 -56c-2 -60 -4 -119 -7 -179z
M460 43v-1v-1v1v1c-10 14 -12 30 -9 45c3 -15 6 -29 9 -45zM460 41c5 -2 6 -6 5 -11c-4 2 -5 7 -5 11zM465 30h1l-1 -1v1zM482 18c-4 1 -8 0 -9 5c2 -1 6 -3 9 -5h2l1 -2l-1 2h-2zM472 24c1 0 1 0 1 -1c0 1 -1 1 -1 1zM465 29l1 1c2 -2 4 -3 6 -6v0c-2 2 -4 3 -7 5z" />
    <glyph glyph-name="L" unicode="L" horiz-adv-x="265" 
d="M396 -72c4 -3 8 -8 12 -14c-4 -4 -8 -9 -12 -9c-6 -3 -13 -5 -20 -7c-71 -15 -142 -30 -212 -46c-40 -8 -81 -21 -118 -44c-4 1 -9 2 -13 3c1 6 3 12 6 17c-7 3 -14 5 -20 7c-3 15 -4 30 -7 45c-6 1 -10 2 -15 2c2 30 4 60 7 90c1 16 4 34 9 50c-1 -25 -2 -49 -3 -73
c-1 -14 -1 -27 5 -38c0 -3 3 -4 6 -7c5 81 9 202 19 281c10 78 24 156 39 234c-2 -4 -5 -10 -7 -15c-5 2 -3 8 -2 12c2 13 4 27 8 41c13 50 28 97 50 144c12 30 29 57 48 83c26 3 53 14 75 -10c2 -5 5 -12 5 -19c2 -14 1 -28 2 -43c-5 -1 -9 -3 -12 -4
c-39 -73 -124 -531 -127 -665c7 0 6 6 6 10c2 17 3 34 6 51c10 98 29 239 49 336c17 75 34 148 56 221c4 10 9 21 13 31c4 -16 -1 -32 -3 -49c-7 -34 -14 -67 -18 -101c-9 -77 -23 -154 -37 -232c-4 -29 -8 -57 -13 -86c-6 -35 -12 -112 -16 -146c-2 -9 -2 -18 -3 -28
c8 1 15 1 22 1c58 12 117 24 175 36c7 2 13 2 20 3c6 -5 14 -9 19 -12c11 -32 11 -32 1 -50zM87 439c0 3 0 8 1 11h-2c-1 -3 -1 -8 -1 -11h2zM96 474c0 2 0 5 2 11c-3 -5 -4 -6 -4 -7c1 -1 1 -3 2 -4zM102 505h2c1 2 1 3 1 5h-2c0 -2 0 -3 -1 -5zM112 538v0v0v-1v1zM74 -149
c97 34 197 46 296 72c-10 1 -20 2 -30 -1c-58 -12 -116 -24 -174 -38c-25 -6 -51 -16 -78 -25c-5 -1 -9 -5 -14 -8zM-6 -126c-3 6 -2 8 2 8c-1 -2 -1 -4 -2 -8zM-4 -118v0h1v0h-1zM31 -190l1 1h1v0z" />
    <glyph glyph-name="K" unicode="K" horiz-adv-x="419" 
d="M172 651c-6 -25 -14 -50 -20 -75c-9 -44 -17 -88 -27 -132v-15c28 18 46 42 68 61c21 20 42 41 62 61c21 21 41 43 63 65c2 -3 5 -5 8 -6c5 1 9 4 14 6c14 0 -118 -122 -111 -132c17 -1 98 99 143 120c11 5 7 -34 21 -32c20 3 22 -14 25 -16c-3 -17 -16 -25 -27 -36
c-27 -23 -55 -46 -83 -69c-49 -42 -98 -84 -148 -126c-6 -6 -12 -12 -19 -18c41 -59 81 -116 121 -174c24 -35 52 -68 82 -98c12 -11 24 -21 39 -25c5 -6 8 -11 12 -16c9 -1 17 -2 27 -3c1 -5 2 -9 3 -15c-17 -6 -34 -6 -49 3c-28 -11 -52 -3 -75 11c-28 15 -50 38 -72 62
c-36 44 -69 89 -97 137c-5 9 -10 17 -16 25c-8 -4 -5 -10 -5 -15c0 -47 1 -94 2 -141c0 -8 -1 -16 -2 -23c-4 1 -6 1 -9 1c-2 6 -5 14 -9 21c0 11 1 21 0 32c-1 22 -3 44 -4 66c0 26 1 52 2 78c0 10 1 10 -5 28c-1 -8 -2 -13 -2 -17c-4 -59 3 -118 6 -176c0 -4 2 -7 4 -11
c-5 -6 -11 -12 -15 -18c-9 1 -15 2 -23 2c-3 -1 -8 -3 -12 -6c-8 4 -15 10 -22 15c-12 37 -20 76 -23 115c-4 68 1 135 11 202c12 79 28 157 54 232c11 33 26 63 39 94c5 11 10 22 22 28c22 1 34 -15 50 -26c2 -7 4 -15 6 -23c-3 -7 -6 -15 -10 -22c0 6 5 12 -3 15
c-16 -24 -31 -66 -47 -137c-17 -70 -21 -96 -18 -119c1 2 3 3 4 5c2 6 3 14 5 20c10 65 24 129 47 190c3 9 9 19 13 27z" />
    <glyph glyph-name="J" unicode="J" horiz-adv-x="452" 
d="M454 611c0 -9 -1 -17 0 -26c6 -61 -4 -120 -19 -178c-24 -99 -55 -196 -93 -290c-17 -41 -35 -81 -61 -117c-13 -18 -27 -35 -42 -50c-23 -21 -49 -31 -80 -23c-19 4 -38 5 -57 8c-28 3 -51 16 -67 40c-11 18 -20 36 -28 55c-8 20 -8 39 -4 59c8 41 28 77 54 109
c61 74 140 121 232 146c8 2 14 4 22 5c25 65 46 131 61 201c-15 -3 -23 -11 -32 -16c-13 -6 -25 -17 -41 -18v5c-3 -2 -7 -3 -12 -5v-1v0v1c-3 -2 -7 -4 -12 -7v0v0v1c-11 -3 -23 -8 -30 -18c-12 -5 -24 -8 -36 -13c-15 -6 -29 -13 -47 -12c-21 8 -44 16 -66 25v16
c33 19 66 36 98 56c60 35 117 79 171 124c10 8 18 17 33 19c3 -2 8 -5 13 -6c6 -2 11 -2 20 -3c6 -5 14 -11 19 -16c8 -16 6 -32 6 -47c4 3 10 6 15 8c1 -3 2 -6 3 -10c-6 -7 -13 -14 -20 -22zM319 534c6 1 12 5 15 11c-6 -2 -13 -4 -15 -11zM354 558c7 1 12 5 17 10
c-7 0 -13 -3 -17 -10zM143 167c-9 -5 -16 -12 -18 -23c11 5 15 13 18 23zM93 -6c-1 18 -3 30 -2 41c0 12 1 24 5 35c6 17 13 33 19 49c3 9 7 16 10 24c-23 -19 -31 -47 -39 -73c-6 -19 -6 -37 -1 -56c1 -5 4 -10 8 -20zM141 7c22 22 40 48 55 75c30 49 53 102 74 156
c2 3 3 7 4 12c-5 -1 -9 -1 -11 -3c-50 -31 -93 -70 -126 -120c-15 -23 -27 -49 -33 -77c-3 -20 -5 -41 7 -60c17 5 18 6 30 17zM223 -30c11 6 16 11 16 17c-4 -4 -8 -8 -16 -17zM381 280c2 5 3 10 4 16c-8 -3 -10 -8 -12 -14c-6 -15 -11 -32 -17 -48
c-28 -81 -59 -160 -108 -231c-1 -3 -1 -6 -2 -8c5 5 11 9 16 16c20 28 36 59 51 91c27 58 48 118 68 178zM447 530c4 23 5 46 -2 71c-2 -25 -4 -49 -7 -73c-4 -24 -8 -47 -13 -71s-13 -48 -19 -72c-7 -24 -16 -46 -21 -72c4 2 7 2 7 3c25 69 44 140 55 214zM299 515v1v0v-1
v0zM287 510v5h12c-2 -5 -7 -5 -12 -5zM275 505v4h11c-3 -1 -7 -3 -11 -4zM286 509l1 1v0v-1h-1zM274 502c0 1 0 1 1 2v1v-1c0 -1 -1 -2 -1 -2zM246 491l-1 1v0v0z" />
    <glyph glyph-name="a" unicode="a" horiz-adv-x="415" 
d="M404 51c4 -21 10 -40 15 -61c-8 -8 -8 -8 -24 -8c-13 9 -29 16 -48 7c-8 -3 -17 0 -27 0c-8 5 -12 15 -15 25c-7 29 -16 59 -22 89c-6 31 -9 63 -14 95c0 2 -1 5 -3 10c-41 6 -80 -9 -118 -11c-13 -8 -15 -19 -18 -29c-15 -38 -29 -77 -43 -115c-3 -9 -7 -18 -12 -28
c-8 -1 -16 -2 -25 -4c-2 3 -4 6 -7 8c-7 -4 -15 -2 -21 3c-8 10 2 18 1 29c-3 1 -5 2 -9 6c4 17 10 35 14 53c5 18 17 34 14 55c-14 9 -25 -9 -39 -3c-1 5 -3 12 -4 18c17 21 43 21 65 33c9 22 18 45 26 69c43 112 86 224 129 335c5 14 10 28 20 40c6 7 8 17 12 26
s7 17 11 26c25 5 44 -14 65 -14c10 -10 19 -19 29 -30c2 -8 3 -18 3 -28c3 -42 6 -85 8 -128c3 -74 4 -148 8 -221c5 -83 12 -166 29 -247zM47 123v3h-1zM164 246c26 0 81 9 100 15c0 4 -1 7 -2 12c-25 6 -49 -8 -79 0c30 5 53 8 79 13v217c-2 -1 -3 -1 -4 -1
c-32 -84 -64 -167 -96 -251v-3s2 -1 2 -2z" />
    <glyph glyph-name="b" unicode="b" horiz-adv-x="518" 
d="M483 256c32 -34 29 -89 -9 -139c-10 -15 -24 -29 -40 -41c-24 -24 -53 -42 -82 -58c-51 -27 -87 -41 -141 -56c-29 -2 -49 -3 -69 -3c-27 0 -53 1 -74 16c-4 3 -8 5 -13 7c-2 1 -5 2 -7 3c-11 6 -20 13 -25 24c-8 22 -29 39 -24 68c1 2 4 4 5 5l15 6c3 -2 6 -3 10 -4
c3 -10 7 -21 12 -32c6 1 12 1 21 2c3 -5 8 -11 12 -17c4 -1 8 -2 11 -2c36 0 70 8 105 20c61 19 115 51 167 93c24 20 43 43 56 72c13 25 7 54 -15 68c-26 15 -53 25 -86 26c-13 0 -27 -3 -42 -7c-5 -1 -12 -5 -19 -8c-4 5 -6 11 -10 15l-21 -3c-2 -3 -5 -6 -5 -9
c-3 -20 -7 -41 -8 -62c-5 -39 -7 -77 -4 -110c2 -15 21 -19 12 -37c-5 -5 -14 -9 -21 -14c-6 -5 -11 -12 -16 -18c-13 1 -13 15 -21 22c-4 -1 -11 -3 -19 -5c-11 5 -25 10 -39 17c-16 8 -26 22 -26 42c2 27 -1 52 3 79c10 118 35 235 85 352c1 3 0 6 2 11
c-10 -8 -19 -14 -25 -21c0 4 -1 7 1 10c-4 -3 -6 -7 -8 -11v1c0 -1 0 -1 1 -1h-1c-4 -4 -6 -8 -10 -12v1l1 -2l-1 1c-8 -9 -14 -17 -22 -26c3 -9 5 -17 7 -24c-24 -10 -31 -8 -46 11c-3 17 7 33 18 47c32 46 70 86 114 120c6 6 14 11 22 17h-1h1c8 10 19 14 31 19
s23 11 35 16c-1 0 -1 1 -2 1c1 0 2 -1 3 -1h-1c4 0 8 1 12 2c1 2 1 4 2 6c2 1 4 3 6 3c7 0 15 1 24 2c55 9 102 2 143 -24c8 -7 19 -12 26 -19c35 -29 43 -70 22 -120c-18 -44 -46 -83 -80 -118c-25 -25 -51 -48 -75 -72c-5 -5 -11 -11 -18 -17l15 -9c21 -11 43 -21 60 -35
c24 -21 44 -45 66 -68zM178 73c0 0 -1 -1 -2 -1c1 -1 1 -2 2 -3l2 2c0 1 -1 2 -2 2zM286 388c46 36 87 76 124 120c18 20 33 42 43 65c10 19 14 39 16 59c1 15 -3 28 -12 38c-10 10 -16 21 -35 19v-5c-2 2 -3 4 -5 5h-1c-7 3 -17 7 -26 11c-40 -5 -80 -13 -124 -39
c14 -4 25 -8 27 -26c-4 -17 -9 -40 -17 -63c-23 -64 -34 -127 -47 -190c-1 -4 0 -8 1 -13c8 2 15 5 23 8c3 -5 7 -6 12 -3c7 4 15 8 21 14zM317 338h5v2h-5v-2zM283 56c3 2 6 6 9 9c-6 -2 -12 -3 -19 -6c-32 -16 -65 -28 -99 -35c-25 -7 -50 -10 -78 -16c0 -5 5 -5 10 -5
c60 7 120 23 177 53zM295 66c8 0 13 4 18 11c-8 -1 -14 -4 -18 -11zM315 78c7 1 15 5 20 11c-8 -1 -14 -4 -20 -11zM350 103c6 0 11 2 13 10c-5 -5 -9 -7 -13 -10zM440 153c9 16 18 32 19 49c0 5 -4 9 -5 20c-9 -52 -36 -89 -70 -121l-5 -5c4 1 6 1 8 3c21 15 38 32 53 54z
M46 184c2 39 6 79 20 119c-3 -28 -6 -57 -9 -85c-4 -34 -5 -67 -2 -99c-1 -14 1 -28 11 -37c-9 -6 -11 -1 -13 2c-2 10 -6 20 -7 30c-2 23 -1 46 0 70zM140 -50c-14 -3 -29 -3 -43 0h43zM87 400c-1 -2 0 -3 0 -5c-1 -1 -2 -2 -4 -7c1 6 3 9 4 12zM162 -46c0 1 0 2 1 3h13
c-1 -1 -1 -2 -1 -3h-13zM196 695c5 2 8 4 13 6c1 -4 3 -8 4 -11h-12c1 0 1 0 0 -1v1c-29 -18 -57 -39 -83 -59c2 3 4 8 7 12c22 19 45 39 71 53v-1zM278 726v0v0v0zM255 724l3 -1l-3 -1v2zM51 556c-1 -1 -2 -1 0 0v0v0c-1 -1 -1 -2 0 0zM37 533l1 3v-3h-1zM212 703
c-1 -1 -1 -1 -3 -2v0l1 1s1 0 2 1zM108 623c3 3 5 5 8 7c1 0 1 0 2 1c-1 -1 -1 -1 -1 -2c-3 -2 -5 -4 -9 -6c-1 -1 -3 -4 -7 -6c-4 -4 -6 -7 -8 -12c-3 -2 -5 -4 -8 -6c-3 -4 -6 -8 -7 -11c-3 -2 -6 -5 -9 -7c-2 -4 -6 -7 -7 -11c-4 -5 -6 -8 -9 -12c0 -1 -2 -2 -2 -2
s2 1 2 2c2 5 5 8 8 12c1 4 6 8 8 12c2 2 5 4 9 6c1 4 4 8 7 11l7 7c3 4 7 8 10 12c2 2 4 4 6 5zM137 557v1h1v-1h-1zM132 554c-1 1 0 2 0 3h5c-2 -1 -4 -2 -5 -3zM440 633c-4 -16 -8 -33 -12 -49h-2c4 16 8 33 12 49h2zM290 413c-2 -8 -8 -12 -14 -17c1 8 7 13 14 17z
M315 433c2 6 6 11 11 15c-3 -5 -7 -9 -11 -15zM415 564c4 -6 -1 -9 -3 -11c1 3 3 7 3 11zM412 553c0 0 -1 0 -1 -1v-2v3h1zM402 536c3 5 5 9 9 14c-3 -6 -4 -10 -9 -14zM434 658c1 -2 1 -2 0 0c1 -2 1 -2 0 0zM425 678c-2 1 -1 3 -4 5l1 1v0c2 -2 1 -5 4 -6c1 -2 3 -4 6 -6
c0 -4 2 -8 3 -12c-1 -1 -1 -2 -1 -2s0 1 -1 1c0 5 -2 9 -2 12c-2 2 -4 4 -6 7zM261 383c-2 -2 -4 -4 -8 -6v0v1c3 2 5 4 7 5c2 2 5 5 8 7c2 2 4 3 8 6v0v-1c-3 -2 -5 -4 -8 -6s-6 -4 -7 -6zM298 419c-2 -2 -4 -3 -6 -5l-2 -1l2 1c1 2 3 3 7 6c2 2 5 4 7 6s4 4 7 6
c1 0 2 1 2 1s-1 -1 -1 -2c-4 -2 -6 -3 -8 -6c-2 -2 -5 -4 -8 -6zM336 455c-2 -2 -5 -4 -8 -5c0 -1 -1 -1 -2 -2l2 2c2 1 6 4 8 6c2 4 6 8 8 12c2 2 6 4 7 5c3 2 5 5 7 7c5 4 6 8 9 12s7 8 10 12c2 2 3 4 7 6c3 4 5 8 8 12s5 9 8 12l2 2c0 -1 -2 -2 -2 -3c-2 -3 -5 -7 -7 -12
c-3 -3 -6 -8 -8 -12c-4 -1 -5 -3 -9 -6c-3 -4 -5 -7 -8 -11c-3 -5 -4 -8 -9 -13c-2 -2 -5 -4 -7 -6c-3 -2 -6 -4 -8 -6c-2 -4 -6 -7 -8 -12z" />
    <glyph glyph-name="c" unicode="c" horiz-adv-x="427" 
d="M52 402v0v-1v1v0zM435 359c8 -9 14 -15 22 -24c-7 -11 -12 -24 -20 -36c-49 -77 -103 -152 -163 -221c-14 -16 -29 -28 -45 -41c-19 -16 -41 -28 -70 -30c-15 2 -32 6 -50 7c-40 2 -68 25 -86 60c-13 26 -18 54 -19 81c-2 39 5 77 14 113c5 24 13 48 20 72
c3 11 6 21 8 32c7 9 11 19 12 29c-2 1 -4 1 -6 1c1 16 7 29 17 41l3 -6c2 2 3 4 4 7v-1v1v0c3 4 4 7 0 11v0v1v0c3 6 4 13 7 19c34 67 78 128 129 182c10 11 22 22 33 31c25 20 53 27 84 17c3 -2 8 -2 12 -3c9 14 17 27 25 38c27 9 44 -2 54 -21c5 -1 9 -1 14 -2
c1 -4 3 -9 3 -11c-6 -17 -12 -31 -17 -46c3 -7 5 -14 9 -24c-13 -68 -26 -140 -40 -214c0 -1 -4 -4 -8 -6c-3 1 -8 2 -8 5c-3 7 -5 13 -5 19c0 25 1 49 1 74c-2 -6 -4 -10 -4 -15c-3 -25 -6 -49 -9 -75c-12 8 -23 15 -34 23c-15 14 -20 32 -19 53c3 41 7 80 16 119
c2 10 3 21 7 36c-8 -5 -13 -7 -17 -10c-11 -12 -23 -23 -32 -35c-84 -109 -143 -230 -174 -365c-9 -41 -11 -81 -9 -123c3 -24 6 -49 21 -72c20 6 35 18 51 31c36 29 66 63 96 99c37 47 73 95 110 142c12 14 23 30 40 42c8 -2 16 -4 23 -5zM407 685v0zM406 684v0zM405 682
c-8 -10 -9 -22 -11 -40c7 16 12 27 11 40zM383 605v-10c1 -1 2 -1 2 -1c1 4 1 7 1 11h-3zM378 576v-11h1v11h-1zM370 516c7 9 4 19 1 29c-1 -10 -1 -19 -1 -29zM58 402c2 2 5 3 1 7c-1 -3 -1 -4 -1 -7zM34 361c1 10 4 20 12 28v-18c-4 -3 -8 -7 -12 -10zM46 371v1v0v-1v0z
M10 280v1c0 1 1 1 1 1v-1zM8 258c-4 12 -3 18 2 22c0 -5 -1 -11 -2 -22zM15 304v2h1v-1zM11 282c0 8 -1 16 4 22c0 -7 2 -15 -4 -22zM0 244l1 1c1 -3 1 -6 1 -9c-1 0 -2 0 -2 -1v9zM22 325c1 6 0 12 6 16c-1 -6 0 -13 -6 -16zM28 341v1v0v-1v0zM22 324v1v0v-1v0
c0 -7 1 -13 -6 -18c0 7 0 13 6 18zM28 342c0 6 0 13 6 17c0 -6 1 -12 -6 -17zM34 359v1v1v-2v0zM76 455v-11h-6c2 4 4 7 6 11zM70 444v-1h-1v1h1zM46 390v-1v0v1v0zM52 401c0 -5 -1 -9 -6 -11c0 4 0 9 6 11z" />
    <glyph glyph-name="d" unicode="d" horiz-adv-x="501" 
d="M509 546c10 -38 15 -79 9 -119c-14 -102 -53 -194 -112 -281c-37 -50 -86 -85 -139 -112c-38 -18 -79 -29 -122 -32c-11 -1 -23 1 -35 2c-9 0 -17 1 -27 2c-5 3 -10 8 -15 11c-13 2 -25 4 -37 7c-4 1 -7 4 -10 6h17c0 10 -7 14 -12 20c-8 10 -13 20 -7 36
c6 -2 10 -4 15 -6c5 3 12 5 16 8c17 -12 32 -23 48 -33c21 -2 41 5 62 12c6 2 12 6 19 8c-4 12 -15 8 -20 11c-7 3 -14 4 -20 6c-10 7 -21 15 -31 24c-7 8 -8 21 -9 34c1 41 2 82 8 123c11 94 31 187 61 279c2 6 3 13 5 23c-22 -8 -29 -28 -46 -39c-12 5 -24 8 -31 17
c-6 12 7 24 1 35c-3 -2 -5 -4 -6 -6c-2 -2 -5 -4 -7 -6l-2 -1l1 1c2 2 6 5 8 7c1 2 3 4 5 5h1c2 4 3 9 5 11c44 41 93 73 152 87c86 20 215 -16 255 -140zM376 636c-1 4 -3 6 -7 1c2 0 5 0 7 -1zM383 251c0 3 1 5 2 7c-2 -2 -5 -3 -2 -7zM386 260c6 4 7 9 7 15
c-2 -5 -5 -10 -7 -15zM392 313h2l-1 1zM394 279c14 14 18 32 21 50c-12 -15 -16 -33 -21 -50zM399 332c2 0 2 -1 3 -1c1 4 1 6 2 10c-1 -3 -3 -6 -5 -9zM444 427c10 46 8 91 -6 135c-4 14 -11 26 -18 38c-9 18 -25 29 -43 36c0 -4 -1 -8 -2 -12c-14 8 -27 15 -43 22
c-18 -4 -36 -3 -53 -13c3 -9 7 -17 10 -25c-4 -28 -10 -55 -16 -83c-6 -34 -16 -67 -22 -101c-13 -81 -26 -161 -38 -242c-4 -25 -7 -50 2 -74c1 -1 -1 -5 -1 -7c-5 -8 -21 -5 -18 -20c13 3 24 11 36 18c39 26 69 60 94 99c47 76 78 157 92 242c4 16 3 32 3 48
c-2 20 -3 39 -4 58c-8 9 -11 19 -10 30c-7 4 -9 11 -10 18c-7 5 -10 10 -11 18c7 -3 11 -10 11 -18c7 -4 10 -10 11 -18c6 -9 10 -18 10 -30c0 -2 2 -4 3 -6c8 -43 9 -86 -1 -130l-15 -66c5 5 10 10 13 15c0 -9 -1 -18 -2 -27c2 3 4 5 6 9c10 28 17 57 22 86zM119 -8l1 1h36
l-1 -1h-36zM7 38c-4 3 -3 4 -2 21c4 -9 9 -19 14 -28c-4 2 -9 3 -12 7zM19 31h1s1 0 1 -1h-1zM419 361c-1 -1 -1 -1 -1 -2v0v1zM420 377c5 -6 4 -11 -1 -16c0 6 0 10 1 16z" />
    <glyph glyph-name="e" unicode="e" horiz-adv-x="436" 
d="M419 634c5 -14 12 -27 7 -44c-7 -2 -14 -3 -24 -5c6 -6 12 -10 17 -15c-2 0 -4 -3 -5 -3c-6 -2 -12 -2 -18 -2c-44 3 -89 7 -133 8h-31c-11 -23 -13 -49 -20 -73c-4 -26 -7 -52 -11 -76c-3 -25 -12 -48 -12 -75c8 -2 14 -3 19 -3h73c24 1 47 0 71 -6c3 -4 5 -9 9 -14
c-6 -3 -9 -6 -13 -9h-155c8 -6 18 -6 29 -6c38 1 77 1 114 1c10 0 19 5 30 -4c3 -10 1 -20 -3 -31c-32 -2 -61 -4 -92 -6c-30 -1 -62 -3 -89 -3c-10 -11 -10 -23 -12 -32c-9 -105 -9 -139 -3 -169c10 0 18 0 26 1c40 8 79 14 120 20c15 2 33 2 50 2c22 0 25 -2 42 -22v-3
c-2 -3 -3 -4 -6 -8c4 -4 8 -8 11 -15c-2 -3 -5 -6 -7 -9v-15c-4 0 -5 -2 -7 -2c-25 5 -50 0 -76 -7c-54 -13 -112 -18 -168 -26c-32 -5 -66 -8 -100 -14c-13 -1 -27 0 -41 11c0 3 0 6 2 13c-9 10 -14 22 -6 36c15 12 24 1 39 12c-22 74 8 164 5 252c-3 24 3 48 6 71
c9 58 22 113 37 169c2 5 2 9 5 12c0 2 -3 4 -3 7c-10 1 -18 3 -29 7c-13 18 -13 38 -6 60c8 11 21 12 35 15c14 6 27 8 38 17v0v2v0c7 16 12 35 25 48c13 6 26 6 38 0c21 -12 38 -21 50 -43c24 -2 48 -2 72 -4c24 0 47 -1 69 -3c10 -5 20 -11 31 -17zM57 293v7h-2v-7h2z
M197 340h-4l1 -2zM150 65c0 3 -12 116 3 205l-6 -13s-19 -157 3 -203v11zM208 567c10 28 -5 18 -5 18s-44 -169 -50 -226l9 11s36 169 46 197z" />
    <glyph glyph-name="f" unicode="f" horiz-adv-x="282" 
d="M364 702c2 0 4 -3 7 -7c-3 -4 -6 -7 -10 -11c-1 -10 -1 -21 -2 -33c-4 -1 -9 -1 -11 -3c-23 -15 -51 -15 -78 -19c-25 -4 -50 -7 -78 -9c-10 -26 -11 -54 -16 -79c-5 -26 -9 -52 -11 -78c-2 -25 -11 -52 -7 -79c18 -8 35 -4 52 -7c16 -2 33 -5 50 -7c4 -7 7 -13 9 -18
c-1 -3 -3 -5 -4 -5c-20 0 -38 0 -56 1c-16 0 -31 2 -45 0c26 -2 53 -5 80 -7c9 -1 18 0 23 -9c-3 -9 -10 -9 -17 -9l-60 3c-12 0 -24 3 -37 -2c-5 -22 -3 -45 -4 -68c-2 -23 -3 -46 -3 -69c-1 -24 -1 -48 0 -72c1 -23 3 -45 5 -68c3 -23 11 -44 11 -71c-6 6 -9 8 -15 13
c-2 -4 -4 -7 -5 -10c-4 0 -7 6 -12 2c-2 -2 -8 0 -13 0c-5 -3 -11 -8 -18 -11l-27 6c-18 12 -27 30 -32 51c-3 21 -8 41 -9 62c-3 47 -5 94 -6 141c-1 22 3 43 3 65v18c-7 3 -13 5 -20 7c-2 6 -3 13 -4 19c-1 7 -3 13 -6 20c13 6 23 11 36 15c6 39 12 78 20 118
c8 38 18 75 27 115c-9 3 -16 4 -22 6c-8 12 -6 24 -6 36c12 14 30 12 45 19c6 10 13 21 20 33c6 -1 11 -2 15 -3c5 -1 10 -2 15 -2c7 -5 15 -10 22 -15c40 2 89 10 174 31c5 -3 13 -6 20 -10zM23 336c1 0 2 0 4 1c-2 0 -3 0 -5 1c1 -1 1 -2 1 -2zM115 42c1 -13 3 -25 10 -36
c-2 29 -6 57 -7 85c-6 62 -6 125 0 188c0 7 1 14 1 21v21c-7 -12 -9 -25 -10 -38c-1 -50 -2 -99 -1 -149c0 -31 4 -61 7 -92zM130 87v53h-1v-55c0 1 0 1 1 2zM129 242h1v29h-1v-29zM135 42v9h-1v-9h1zM129 392c14 73 28 146 43 219c0 0 -2 1 -2 2c-2 -1 -5 -1 -5 -2
c-20 -73 -33 -148 -46 -229c7 7 10 8 10 10z" />
    <glyph glyph-name="g" unicode="g" horiz-adv-x="520" 
d="M527 511c0 -4 2 -8 1 -12c-1 -83 -19 -163 -42 -243c-24 -82 -51 -162 -84 -240c-11 -26 -23 -52 -41 -74c-8 -11 -17 -21 -25 -31c-52 -8 -98 0 -137 33c-45 38 -56 94 -24 144c18 31 43 55 69 76c31 12 56 0 81 -17c-2 -5 -3 -11 -6 -16c-12 -19 -25 -38 -36 -58
c-9 -16 -16 -33 -22 -49c-4 -15 -3 -19 6 -34c12 10 17 24 24 37c30 50 54 103 73 158c17 47 32 94 48 141c2 8 5 15 4 25c-9 -8 -16 -15 -22 -22c-36 -37 -70 -73 -107 -109c-21 -21 -44 -41 -67 -59s-48 -31 -78 -30c-5 0 -11 -3 -17 -3c-11 -1 -23 -4 -32 -1
c-22 6 -44 15 -65 25c-19 9 -27 28 -28 49s-1 41 3 60c9 52 29 101 50 150c33 72 72 141 125 200c29 31 61 58 96 81c28 19 59 30 93 27c5 0 10 0 15 -1c25 -4 69 -33 85 -57c6 -26 -6 -46 -21 -66c2 11 5 22 5 33c2 8 2 17 2 27c0 6 -4 10 -13 13c0 -14 0 -27 -1 -39
s-5 -23 -9 -35c-3 -12 -9 -24 -14 -36c-6 -10 -10 -22 -21 -29c-19 -7 -26 18 -46 14c5 29 20 55 14 86c-6 -3 -12 -4 -15 -7c-41 -32 -78 -67 -105 -110c-53 -81 -92 -168 -118 -261c-4 -14 -6 -28 -8 -41c-1 -5 1 -10 1 -14c8 -1 13 3 17 7c46 34 87 74 127 113
c52 52 103 104 154 157c15 15 28 33 43 50c13 -1 34 9 49 -2c4 -8 -32 -164 -28 -174c6 5 41 160 47 164zM374 636l-1 -2h2zM151 403c3 2 4 5 4 10c-1 -4 -3 -8 -4 -10zM156 415c4 1 5 5 5 9c-1 -3 -3 -6 -5 -9zM97 192c1 17 1 33 4 51c8 45 24 88 41 130c3 9 5 19 7 28
l-1 -1c-29 -54 -50 -111 -63 -171c-2 -17 -4 -33 1 -50c3 -1 5 -1 9 -2c1 5 2 10 2 15z" />
    <glyph glyph-name="h" unicode="h" horiz-adv-x="518" 
d="M283 749h-1l1 2v-2zM282 749h1c-2 -1 -4 -4 -5 -6l-2 1c3 2 5 4 6 5zM503 706c9 -2 16 -9 22 -20c-1 -8 -1 -19 -3 -30c-11 -58 -23 -117 -34 -176c-5 -31 -11 -62 -15 -93c-2 -14 0 -28 -1 -41c-6 -56 -12 -113 -17 -169c-3 -25 -3 -51 4 -78c-10 -7 -19 -15 -29 -22
c-9 4 -16 7 -23 10c-5 -2 -10 -3 -13 -3c-26 5 -44 19 -61 36c-6 16 -5 31 -3 45l18 150c2 14 4 27 6 41c1 10 1 20 -3 31c-4 0 -8 1 -11 0c-51 -14 -102 -28 -152 -42c-11 -14 -12 -29 -13 -43c-12 -89 -29 -177 -16 -268c5 -8 11 -15 15 -21c-1 -4 0 -8 -1 -11
c-8 -6 -13 -10 -20 -16c-14 8 -28 18 -46 19c-25 4 -38 17 -42 43c-6 33 -6 66 -4 98c4 47 10 95 13 142c1 3 1 7 0 12c-12 2 -15 -7 -18 -15c-2 -9 -3 -19 -2 -29c-5 -61 -10 -123 -11 -184c-1 -20 5 -40 8 -59l-1 -1c-11 8 -13 20 -14 32c-1 18 -3 36 -2 53
c4 60 8 119 12 179c1 3 1 7 0 13c-7 2 -12 5 -19 8c-3 3 -4 6 -6 10h-15c-1 2 -2 5 -4 7c12 18 35 20 51 32c8 38 17 77 25 115c11 48 25 96 44 142c2 7 7 13 9 19c-1 -8 -2 -16 -4 -23c-28 -75 -44 -152 -60 -230c0 -6 -1 -11 0 -17c2 -1 5 -2 6 -1c4 1 8 3 10 6
c6 25 13 51 18 77c9 46 24 90 39 134c4 8 4 17 6 25v0c-1 1 -1 2 -1 2c-1 2 -1 1 0 0v0l1 -1c6 8 10 17 14 27c13 28 25 57 39 84c5 12 12 25 27 31c4 -1 10 -4 16 -8c5 4 12 8 20 11c8 -3 16 -7 25 -11c0 -3 1 -7 0 -9c-52 -97 -73 -205 -95 -313c-1 -3 -1 -9 0 -15
c32 2 58 14 87 19c27 6 56 13 83 19c4 7 7 13 11 20c0 -7 2 -13 3 -26c5 10 7 15 7 19c14 73 31 144 51 214c1 8 2 14 2 22c3 13 8 25 18 37h32c2 -3 3 -8 5 -14c3 1 8 3 12 5zM358 293c0 3 0 5 -1 7h-1c1 -2 1 -4 1 -7h1zM363 335c-6 -5 -6 -10 -1 -19c0 8 0 13 1 19z
M363 337c5 13 10 27 5 45c-8 -16 -7 -30 -5 -45zM372 392v1h-2zM175 690c-1 -5 -3 -9 -4 -12c-1 -5 -4 -9 -6 -12v0c2 4 3 8 5 12v0c1 4 4 8 5 12c2 4 4 8 5 12l6 12c1 4 3 8 5 11c0 5 2 9 5 12c2 2 4 5 5 7l1 -1c-1 -2 -3 -4 -6 -6c-2 -4 -3 -8 -5 -12c-1 -3 -3 -8 -5 -11
c-2 -5 -4 -9 -5 -12c-1 -5 -3 -9 -6 -12zM165 666c-2 -4 -3 -9 -4 -12c-1 -1 -1 -1 -1 -2v3c2 3 2 7 5 11zM149 659c-2 -3 -5 -7 -7 -12v-1v2c2 4 4 8 5 12c2 4 3 8 6 11l1 1l-1 -1c-2 -3 -4 -8 -4 -12zM159 652v0zM160 652h-1h1c-1 -2 -1 -1 0 0zM142 646c0 -4 0 -7 -4 -10
c2 4 3 7 4 10zM138 636v-1h-1v1h1zM137 635c1 -4 1 -9 -5 -12c0 6 0 10 5 12zM132 623v0c0 -1 0 -1 -1 -1c0 0 1 0 1 1v0zM151 626c1 1 1 0 0 0v0c1 1 1 1 0 0v0v-3l-1 1c0 1 1 1 1 2zM149 622v0v0v0v0v0zM151 623c-1 0 -1 -1 -2 -1c1 0 1 1 1 2zM149 622v0zM374 451
c-1 -1 -1 -1 -1 -2v0s0 1 -1 1c1 0 1 0 2 1v0v0c-1 1 0 1 0 0c-1 1 -1 1 0 0zM57 5l1 1v-1h-1zM60 2c-1 1 -1 2 -2 3c2 0 5 0 13 -1c-8 -1 -10 -2 -11 -2zM132 5l1 1c-4 2 -5 4 -8 6l1 1c2 -3 3 -5 6 -8z" />
    <glyph glyph-name="i" unicode="i" horiz-adv-x="312" 
d="M417 682c3 -5 7 -12 10 -16c-1 -11 -8 -15 -15 -17c-16 -5 -32 -10 -49 -15c-16 -5 -33 -9 -49 -13l-33 -12c-11 -23 -12 -46 -13 -70c3 9 7 19 12 31c0 -8 1 -16 0 -22c-21 -114 -41 -229 -60 -344c-6 -32 -10 -65 -14 -97c8 -16 21 -23 35 -29c1 -4 2 -7 4 -12
c5 -2 13 -4 19 -9c3 -2 5 -7 8 -12c-6 -3 -11 -7 -16 -7c-53 -7 -105 -16 -157 -28c-11 -3 -22 -2 -33 -3c-6 7 -13 12 -20 19c-7 1 -16 1 -26 1c-7 8 -15 15 -24 24c18 29 50 20 73 35c1 69 24 134 42 199c24 89 52 177 78 264c2 10 5 20 9 34c-12 -4 -20 -6 -29 -8
c-19 -7 -37 -8 -51 11c-11 2 -21 2 -31 3c-5 5 -10 10 -14 17c2 3 2 7 4 8c10 6 18 11 27 15c54 26 109 47 166 64c15 5 30 9 45 15c-1 9 -6 8 -9 6c-45 -14 -90 -30 -134 -46c-17 -6 -35 -14 -53 -22c-7 -1 -14 -2 -21 -4c17 10 34 20 51 29c52 25 106 44 160 63
c11 3 23 7 37 1c-5 -7 -8 -13 -12 -19c12 -10 23 -1 37 -2c13 -13 33 -14 46 -32zM260 509c1 5 1 7 1 9c0 1 -1 1 -1 1v-10zM265 589c1 4 2 9 3 12c-18 -25 -54 -181 -102 -426c-5 -23 -11 -46 -11 -72c2 2 4 2 4 3c31 162 68 322 106 483zM95 640l1 2h2c0 0 -1 -1 -2 -1z
" />
    <glyph glyph-name="j" unicode="j" horiz-adv-x="452" 
d="M454 611c0 -9 -1 -17 0 -26c6 -61 -4 -120 -19 -178c-24 -99 -55 -196 -93 -290c-17 -41 -35 -81 -61 -117c-13 -18 -27 -35 -42 -50c-23 -21 -49 -31 -80 -23c-19 4 -38 5 -57 8c-28 3 -51 16 -67 40c-11 18 -20 36 -28 55c-8 20 -8 39 -4 59c8 41 28 77 54 109
c61 74 140 121 232 146c8 2 14 4 22 5c25 65 46 131 61 201c-15 -3 -23 -11 -32 -16c-13 -6 -25 -17 -41 -18v5c-3 -2 -7 -3 -12 -5v-1v0v1c-3 -2 -7 -4 -12 -7v0v0v1c-11 -3 -23 -8 -30 -18c-12 -5 -24 -8 -36 -13c-15 -6 -29 -13 -47 -12c-21 8 -44 16 -66 25v16
c33 19 66 36 98 56c60 35 117 79 171 124c10 8 18 17 33 19c3 -2 8 -5 13 -6c6 -2 11 -2 20 -3c6 -5 14 -11 19 -16c8 -16 6 -32 6 -47c4 3 10 6 15 8c1 -3 2 -6 3 -10c-6 -7 -13 -14 -20 -22zM319 534c6 1 12 5 15 11c-6 -2 -13 -4 -15 -11zM354 558c7 1 12 5 17 10
c-7 0 -13 -3 -17 -10zM143 167c-9 -5 -16 -12 -18 -23c11 5 15 13 18 23zM93 -6c-1 18 -3 30 -2 41c0 12 1 24 5 35c6 17 13 33 19 49c3 9 7 16 10 24c-23 -19 -31 -47 -39 -73c-6 -19 -6 -37 -1 -56c1 -5 4 -10 8 -20zM141 7c22 22 40 48 55 75c30 49 53 102 74 156
c2 3 3 7 4 12c-5 -1 -9 -1 -11 -3c-50 -31 -93 -70 -126 -120c-15 -23 -27 -49 -33 -77c-3 -20 -5 -41 7 -60c17 5 18 6 30 17zM223 -30c11 6 16 11 16 17c-4 -4 -8 -8 -16 -17zM381 280c2 5 3 10 4 16c-8 -3 -10 -8 -12 -14c-6 -15 -11 -32 -17 -48
c-28 -81 -59 -160 -108 -231c-1 -3 -1 -6 -2 -8c5 5 11 9 16 16c20 28 36 59 51 91c27 58 48 118 68 178zM447 530c4 23 5 46 -2 71c-2 -25 -4 -49 -7 -73c-4 -24 -8 -47 -13 -71s-13 -48 -19 -72c-7 -24 -16 -46 -21 -72c4 2 7 2 7 3c25 69 44 140 55 214zM299 515v1v0v-1
v0zM287 510v5h12c-2 -5 -7 -5 -12 -5zM275 505v4h11c-3 -1 -7 -3 -11 -4zM286 509l1 1v0v-1h-1zM274 502c0 1 0 1 1 2v1v-1c0 -1 -1 -2 -1 -2zM246 491l-1 1v0v0z" />
    <glyph glyph-name="k" unicode="k" horiz-adv-x="419" 
d="M172 651c-6 -25 -14 -50 -20 -75c-9 -44 -17 -88 -27 -132v-15c28 18 46 42 68 61c21 20 42 41 62 61c21 21 41 43 63 65c2 -3 5 -5 8 -6c5 1 9 4 14 6c14 0 -118 -122 -111 -132c17 -1 98 99 143 120c11 5 7 -34 21 -32c20 3 22 -14 25 -16c-3 -17 -16 -25 -27 -36
c-27 -23 -55 -46 -83 -69c-49 -42 -98 -84 -148 -126c-6 -6 -12 -12 -19 -18c41 -59 81 -116 121 -174c24 -35 52 -68 82 -98c12 -11 24 -21 39 -25c5 -6 8 -11 12 -16c9 -1 17 -2 27 -3c1 -5 2 -9 3 -15c-17 -6 -34 -6 -49 3c-28 -11 -52 -3 -75 11c-28 15 -50 38 -72 62
c-36 44 -69 89 -97 137c-5 9 -10 17 -16 25c-8 -4 -5 -10 -5 -15c0 -47 1 -94 2 -141c0 -8 -1 -16 -2 -23c-4 1 -6 1 -9 1c-2 6 -5 14 -9 21c0 11 1 21 0 32c-1 22 -3 44 -4 66c0 26 1 52 2 78c0 10 1 10 -5 28c-1 -8 -2 -13 -2 -17c-4 -59 3 -118 6 -176c0 -4 2 -7 4 -11
c-5 -6 -11 -12 -15 -18c-9 1 -15 2 -23 2c-3 -1 -8 -3 -12 -6c-8 4 -15 10 -22 15c-12 37 -20 76 -23 115c-4 68 1 135 11 202c12 79 28 157 54 232c11 33 26 63 39 94c5 11 10 22 22 28c22 1 34 -15 50 -26c2 -7 4 -15 6 -23c-3 -7 -6 -15 -10 -22c0 6 5 12 -3 15
c-16 -24 -31 -66 -47 -137c-17 -70 -21 -96 -18 -119c1 2 3 3 4 5c2 6 3 14 5 20c10 65 24 129 47 190c3 9 9 19 13 27z" />
    <glyph glyph-name="l" unicode="l" horiz-adv-x="265" 
d="M396 -72c4 -3 8 -8 12 -14c-4 -4 -8 -9 -12 -9c-6 -3 -13 -5 -20 -7c-71 -15 -142 -30 -212 -46c-40 -8 -81 -21 -118 -44c-4 1 -9 2 -13 3c1 6 3 12 6 17c-7 3 -14 5 -20 7c-3 15 -4 30 -7 45c-6 1 -10 2 -15 2c2 30 4 60 7 90c1 16 4 34 9 50c-1 -25 -2 -49 -3 -73
c-1 -14 -1 -27 5 -38c0 -3 3 -4 6 -7c5 81 9 202 19 281c10 78 24 156 39 234c-2 -4 -5 -10 -7 -15c-5 2 -3 8 -2 12c2 13 4 27 8 41c13 50 28 97 50 144c12 30 29 57 48 83c26 3 53 14 75 -10c2 -5 5 -12 5 -19c2 -14 1 -28 2 -43c-5 -1 -9 -3 -12 -4
c-39 -73 -124 -531 -127 -665c7 0 6 6 6 10c2 17 3 34 6 51c10 98 29 239 49 336c17 75 34 148 56 221c4 10 9 21 13 31c4 -16 -1 -32 -3 -49c-7 -34 -14 -67 -18 -101c-9 -77 -23 -154 -37 -232c-4 -29 -8 -57 -13 -86c-6 -35 -12 -112 -16 -146c-2 -9 -2 -18 -3 -28
c8 1 15 1 22 1c58 12 117 24 175 36c7 2 13 2 20 3c6 -5 14 -9 19 -12c11 -32 11 -32 1 -50zM87 439c0 3 0 8 1 11h-2c-1 -3 -1 -8 -1 -11h2zM96 474c0 2 0 5 2 11c-3 -5 -4 -6 -4 -7c1 -1 1 -3 2 -4zM102 505h2c1 2 1 3 1 5h-2c0 -2 0 -3 -1 -5zM112 538v0v0v-1v1zM74 -149
c97 34 197 46 296 72c-10 1 -20 2 -30 -1c-58 -12 -116 -24 -174 -38c-25 -6 -51 -16 -78 -25c-5 -1 -9 -5 -14 -8zM-6 -126c-3 6 -2 8 2 8c-1 -2 -1 -4 -2 -8zM-4 -118v0h1v0h-1zM31 -190l1 1h1v0z" />
    <glyph glyph-name="m" unicode="m" horiz-adv-x="647" 
d="M705 771c6 -1 10 -4 17 -7c-8 -22 -27 -30 -41 -46c-2 -5 -4 -12 -6 -18c-22 -78 -45 -156 -66 -234c-17 -63 -25 -129 -29 -195c-3 -45 -4 -90 -4 -134c-1 -19 2 -38 5 -57c0 -5 3 -9 5 -15c6 -3 12 -6 19 -11c3 -4 6 -11 9 -16c-2 -4 -3 -7 -5 -9
c-18 -12 -39 -10 -58 -6c-17 3 -32 10 -48 15c-20 6 -32 19 -39 38c-3 12 -8 23 -10 35c-3 27 -6 54 -6 80c0 90 6 179 28 268c1 4 1 9 2 14c-4 -2 -7 -4 -9 -7c-32 -51 -63 -105 -86 -161c-12 -30 -24 -61 -20 -94c-9 -20 -27 -21 -45 -24c-5 4 -11 10 -17 14
c-3 -3 -6 -8 -9 -12c-13 -4 -20 6 -27 13c-6 1 -12 2 -18 2c-1 4 -2 6 -3 8c-1 11 -1 22 -4 33c-19 68 -46 132 -70 198c1 -32 -7 -62 -9 -95c-3 -54 -7 -109 -12 -163c-5 -38 -12 -76 -19 -113c0 -7 -3 -13 -5 -21c-10 -7 -21 -13 -34 -23c-12 1 -27 3 -42 4
c-6 18 -3 35 -1 51c7 71 15 143 22 215c11 107 16 215 21 323c1 15 1 31 2 47c0 7 2 13 3 19c11 5 16 -1 22 -8c3 1 7 2 11 3c20 -4 28 -20 34 -37c8 -4 14 -8 24 -12c12 -27 23 -56 36 -84c12 -29 24 -57 37 -85c12 -28 23 -57 40 -86c4 8 8 14 12 19
c52 94 116 179 194 254c34 32 68 64 104 96c11 10 25 18 39 25c14 9 30 12 45 1c3 -2 8 0 11 -2zM475 332v9h-1v-9h1zM479 474v1v-1zM478 364c12 53 24 104 35 155c0 2 0 5 1 8c-9 -4 -10 -12 -12 -19c-7 -35 -14 -69 -21 -103c-3 -12 -3 -25 -3 -41zM71 447
c-5 -62 -10 -123 -17 -185c-5 -60 -13 -119 -19 -178c-2 -14 -3 -28 -13 -44c-8 4 -14 7 -21 10c1 25 2 49 3 72c3 34 6 68 11 101c5 50 12 100 16 149c4 33 7 67 6 101c-2 35 3 70 6 105l3 27c1 26 8 51 18 74c4 1 7 2 10 3c5 -18 5 -37 4 -56c-2 -60 -4 -119 -7 -179z
M460 43v-1v-1v1v1c-10 14 -12 30 -9 45c3 -15 6 -29 9 -45zM460 41c5 -2 6 -6 5 -11c-4 2 -5 7 -5 11zM465 30h1l-1 -1v1zM482 18c-4 1 -8 0 -9 5c2 -1 6 -3 9 -5h2l1 -2l-1 2h-2zM472 24c1 0 1 0 1 -1c0 1 -1 1 -1 1zM465 29l1 1c2 -2 4 -3 6 -6v0c-2 2 -4 3 -7 5z" />
    <glyph glyph-name="n" unicode="n" horiz-adv-x="508" 
d="M414 552c4 9 10 18 14 28l36 69c5 7 10 15 16 22c4 5 7 9 9 12h38v-21c10 -1 11 12 22 12c8 -3 15 -11 21 -20c0 -5 -1 -10 -2 -15c5 -3 8 -5 13 -6c4 -11 -1 -19 -5 -27c-14 -40 -30 -80 -47 -120c-33 -83 -59 -169 -77 -257c-8 -45 -15 -90 -14 -136v-18
c10 -11 17 -20 25 -30c-3 -6 -6 -13 -10 -18c-4 -7 -10 -14 -15 -21v-1c-1 4 -2 8 -2 11h-8c-1 -3 -2 -7 -3 -11l1 1c-9 12 -20 21 -36 23c-4 -1 -9 -2 -15 -3c-32 10 -63 20 -66 78c-51 103 -101 201 -130 309c-1 4 -4 8 -6 12c0 3 0 7 -1 11c-1 0 -2 0 -4 -1
c2 -3 4 -7 6 -9c0 -18 -4 -33 -9 -50c-4 -17 -5 -35 -7 -53c-6 -41 -11 -81 -15 -122c-4 -46 -7 -93 -11 -139v-13c-8 -14 -15 -27 -24 -41c-7 8 -14 16 -23 24c-4 -5 -9 -8 -14 -14c-10 2 -20 4 -28 6c-11 6 -20 13 -32 21c-2 5 -5 15 -6 23c-5 50 -3 99 3 149
c4 28 7 55 10 83h-1c9 8 4 20 7 30v-1c9 22 11 46 16 69c18 68 35 135 62 201c7 17 14 36 29 52c9 3 19 5 26 7c21 1 37 -7 52 -16c12 -9 25 -19 42 -24c7 -50 15 -99 28 -146c14 -48 29 -96 46 -147c14 23 13 47 24 66c3 -1 5 -1 9 -1c14 44 29 88 44 132l-1 -1
c8 9 12 20 13 31v0zM305 187c1 -3 2 -5 1 -2c2 -2 0 -1 -1 1c0 6 1 13 -5 17l-7 7c2 12 -3 21 -7 32c-9 25 -20 49 -30 74c-26 77 -43 156 -53 237c0 3 2 9 -5 11c-7 -13 -6 -25 -3 -38c7 -36 13 -71 22 -106c17 -72 43 -142 76 -210c3 -2 5 -4 7 -6c0 -6 -1 -14 5 -17z
M384 233c-8 -11 -7 -23 -3 -34c1 11 1 23 2 34c4 6 5 12 2 17c-1 -5 -1 -11 -1 -17zM369 87c1 0 3 -1 5 -1c0 2 1 5 3 10c-5 -4 -7 -6 -8 -9zM401 521l1 1c-7 -8 -12 -16 -19 -24v-1c1 17 7 31 19 42l-1 1v-19zM300 49c-11 10 -3 22 -2 33c0 -11 1 -22 2 -34v1zM12 300h-1
c-1 -10 4 -21 -6 -30v0c2 10 -2 21 7 30zM330 29h-1c-5 -2 -9 -6 -16 -10c-2 4 -5 8 -8 11v-1h25zM5 270v-24c-5 9 -5 17 0 24zM17 300h1h-7h1c0 10 -2 21 6 29l-1 1v-30zM18 329c0 6 1 11 1 17c1 1 2 1 3 1c0 -6 1 -12 2 -18v1h-7zM300 49v-1c6 -5 6 -11 5 -19v1
c-7 4 -5 11 -5 19zM402 539l-1 1c2 3 4 8 6 12v0c-2 -5 -3 -9 -5 -13zM176 380l1 -2h-1v2zM438 5v1c-5 -6 -9 -6 -12 0l-1 -1h13zM407 552h7v0h-7zM330 29h-1l1 1v-1zM383 498v-1l-1 -1z" />
    <glyph glyph-name="o" unicode="o" 
d="M264 138h1c-11 -10 -21 -20 -33 -30c-20 -16 -43 -24 -69 -24c-8 0 -16 0 -23 -1c-3 0 -6 -2 -9 -4c4 -7 9 -14 13 -19v0c-9 5 -18 11 -31 18c-16 2 -36 10 -55 20c-21 10 -36 28 -44 50c-9 21 -13 44 -14 67c-3 50 5 99 15 148c3 17 9 32 7 50c-1 5 3 12 5 17
c16 49 40 94 75 132c9 10 16 22 20 36c13 35 39 59 77 68c19 3 38 3 57 -1c67 -20 116 -59 129 -134c10 -58 7 -117 -9 -174c-18 -70 -49 -135 -86 -196c-4 -7 -9 -11 -13 -17v-1h-7l1 1c-2 -2 -4 -4 -7 -6zM301 270l-1 -1h1c1 3 2 5 1 3c1 2 0 0 -1 -2zM312 301
c6 1 5 6 6 11c7 4 7 12 7 18c3 6 8 13 10 20c11 32 17 66 22 100c5 41 -3 81 -12 120c-2 9 -7 18 -12 27c-2 3 -6 6 -13 13c3 -11 4 -15 6 -20c13 -31 17 -64 18 -98c3 -45 -3 -89 -14 -133c-3 -10 -3 -20 -5 -29c-8 -5 -6 -12 -6 -18l-6 -12c-1 -2 -3 -4 -1 -1
c0 -4 0 -1 0 2zM127 474c1 2 3 4 1 1c0 3 0 1 -1 -2c-2 -3 -4 -8 -6 -11c-3 -7 -8 -12 -10 -19c-18 -46 -30 -95 -36 -144c-4 -29 -6 -57 -6 -87c0 -19 6 -38 10 -58c3 -9 7 -19 19 -22v-2l-1 1c-1 7 -1 13 -3 19c-9 27 -11 56 -11 84c-1 67 11 130 30 194c3 11 5 22 8 34
c6 1 5 7 6 12zM253 593v1c-5 3 -10 5 -15 9c-24 -21 -26 -48 -22 -79c-8 4 -14 6 -20 8c-27 -38 -44 -79 -55 -123s-20 -90 -23 -135c-4 -35 -3 -70 4 -105c2 -9 2 -20 13 -26c16 11 26 25 37 40c42 55 73 117 94 183c16 52 26 107 22 162c-2 25 -6 49 -16 72
c-2 6 -5 11 -10 17c-4 -3 -9 -6 -12 -7c1 -7 2 -11 3 -17zM304 525c0 0 0 -1 -1 -1v-59h1v60zM195 593c-7 -3 -10 -8 -7 -17c6 4 7 11 7 17zM144 603c-11 1 -15 -4 -15 -15c6 7 11 11 15 15zM297 553h1v10h-1v-10zM292 579v4c0 0 -1 0 -1 -1c0 0 0 -1 1 -3zM241 96h1
c-1 8 5 13 11 18h-1c0 -8 -5 -13 -11 -18zM229 84h-1c-4 -6 -9 -11 -17 -11v-1c4 6 10 11 18 12zM193 60l-1 1c-4 -7 -10 -7 -21 -3c11 1 17 1 22 2zM144 60c4 -1 8 -1 12 -2c-1 -1 -1 -2 -1 -3c-3 2 -7 4 -11 5zM265 126v12h-1h7h-1c-1 -4 -3 -8 -5 -12v0zM193 60l-1 1
c4 1 9 3 12 5l1 -1c-4 -2 -8 -3 -12 -5zM211 73v-1c-2 -2 -4 -4 -6 -7l-1 1zM235 90v-1c-2 -2 -4 -4 -6 -5h-1c3 1 5 4 7 6zM235 89v1c1 2 4 4 6 6h1c-3 -2 -5 -5 -7 -7zM258 120v-1l-5 -5h-1zM265 126c-2 -2 -4 -5 -7 -7v1c2 2 5 4 7 6zM277 143v1c-2 -2 -5 -4 -7 -6h1v6
l-1 -1h7zM265 564l-1 -1c2 -3 5 -6 6 -10c0 -1 -1 -4 -3 -7c-1 6 -2 12 -2 18zM264 563l1 1c-7 4 -7 11 -6 17h-1c8 -5 7 -11 6 -18zM253 594v-1c5 -2 5 -6 5 -12h1c-6 3 -6 7 -6 13z" />
    <glyph glyph-name="p" unicode="p" horiz-adv-x="534" 
d="M155 681c25 2 46 3 65 -15c1 -5 2 -11 4 -21c5 3 10 5 15 7c2 -1 4 -1 5 -3c3 -4 5 -10 6 -16c1 -7 0 -15 0 -25c9 4 16 7 22 12c57 35 117 38 180 21c71 -21 111 -85 116 -148c3 -29 -1 -56 -9 -83c-23 -74 -62 -139 -120 -190c-63 -56 -138 -83 -223 -75
c-1 4 -2 6 -3 8h-33c-8 -24 -22 -136 -32 -254c-8 -4 -16 -8 -27 -13c-26 -4 -48 14 -70 22c-11 13 -12 26 -12 39c-1 48 0 96 4 144c18 176 52 350 92 524c5 22 9 44 20 66zM224 477c-12 -86 -26 -175 -39 -261c6 -9 11 -16 16 -22c15 -3 29 4 43 8c59 20 108 54 148 103
c39 50 72 103 87 165c8 30 11 61 2 92c-12 37 -36 53 -74 47c-4 0 -7 -1 -10 -2c-25 -6 -48 -17 -70 -31c-40 -24 -72 -57 -103 -99zM126 -92c1 2 1 3 1 4c0 0 -1 0 -1 -1v-3zM94 533h-1c0 -7 1 -15 -1 -23c-8 -31 -13 -62 -17 -94c-10 -76 -20 -152 -31 -228
c-10 -72 -16 -145 -16 -218c0 -9 -1 -19 -3 -29c-9 33 -10 67 -7 101c2 30 2 59 1 89c-11 -67 -9 -135 -12 -202c-2 6 -3 11 -4 18c-6 96 1 193 19 288c18 90 36 180 60 269c3 10 3 22 12 29zM24 156h1v18h-1v-18zM93 533h1c0 9 -2 18 6 24h-1c-1 -8 3 -17 -6 -24zM99 557h1
c0 4 0 8 1 12c1 0 2 -1 4 -1c-2 -3 -4 -7 -6 -11z" />
    <glyph glyph-name="q" unicode="q" horiz-adv-x="514" 
d="M525 473h-1c12 -21 13 -43 9 -66c-7 -54 -29 -102 -57 -147c-21 -33 -45 -63 -73 -91c-7 -7 -13 -14 -22 -22c10 -33 24 -63 38 -94c15 -30 30 -59 60 -77c-17 -13 -39 -16 -54 -7c-18 9 -32 22 -42 38c-15 26 -29 53 -43 78c-6 9 -9 18 -15 27c-6 -2 -11 -4 -15 -5
c-45 -24 -92 -28 -142 -17c-44 10 -83 29 -117 58c-32 26 -45 62 -49 102c-4 39 0 75 10 113c16 59 45 112 79 164c21 31 43 61 67 91c15 19 34 37 52 53c19 16 40 24 65 16c5 -2 12 -1 17 -2c18 -3 31 -11 42 -27c-11 -16 -25 -25 -45 -32c-11 -15 -23 -31 -34 -48
c-13 -21 -25 -42 -37 -64c-3 -5 -4 -11 -6 -17c-14 -12 -21 -29 -24 -47c-2 -5 -3 -9 -5 -13c-10 -8 -12 -18 -13 -29c-6 -5 -7 -12 -6 -19c-2 -2 -4 -4 -5 -6c-17 -39 -27 -80 -30 -122c-2 -25 3 -50 14 -73c2 -4 7 -9 12 -17c-5 18 -7 31 -10 45c-9 45 -1 89 9 133
c4 13 7 27 10 41c2 5 4 12 6 18c8 8 11 19 12 30c2 4 3 8 5 12c12 14 20 30 24 48c5 1 9 3 14 5h-1c-13 -34 -28 -68 -39 -103c-16 -50 -28 -100 -27 -153c1 -25 6 -49 16 -72c2 -6 6 -10 9 -15c30 5 70 33 99 65c-5 15 -9 30 -12 45c-5 24 -12 47 -15 71
c-7 55 3 109 24 160c14 34 40 54 74 60c70 12 145 -26 156 -100c4 -25 4 -50 0 -75c-1 -10 -2 -21 -4 -32c0 -2 -1 -4 0 -2c0 -3 0 0 0 2c14 16 16 36 18 55c3 21 1 43 2 64zM397 505c-15 1 -28 1 -40 2c-35 -51 -40 -170 -17 -213c4 4 9 8 12 12c27 39 45 82 54 128
c6 24 4 48 -9 71zM225 503h-1c1 2 2 5 1 2c0 3 0 0 0 -2zM525 473h-1l-1 1z" />
    <glyph glyph-name="r" unicode="r" horiz-adv-x="633" 
d="M563 448h1c3 7 7 15 12 23c11 19 21 38 26 60c5 21 5 42 -5 62c-1 4 -4 6 -9 12c0 -8 0 -13 1 -17c7 -35 -1 -67 -17 -98c-8 -15 -17 -28 -27 -42c-31 -43 -65 -83 -105 -120c-33 -30 -66 -61 -116 -74c5 -9 8 -16 12 -22c24 -35 50 -69 80 -101c28 -31 62 -58 104 -76
c8 1 17 1 26 2c1 -2 2 -4 4 -7c8 -1 8 7 16 10c10 -4 24 5 37 -4c5 -11 -2 -20 -10 -26c-20 -14 -40 -29 -69 -27c-17 1 -34 -5 -51 -2c-78 12 -140 46 -187 102c-12 15 -23 30 -38 49c-4 -15 -2 -26 -3 -37c-1 -10 -3 -21 -4 -31c-1 -12 0 -23 -2 -35c-2 -10 -1 -21 -8 -31
c-12 5 -14 16 -22 24c0 28 -1 56 0 85c1 27 4 56 5 84c-11 -26 -13 -55 -15 -82c-2 -33 0 -66 8 -98c1 -8 3 -15 -1 -24c-10 -1 -21 -3 -33 -3c-16 13 -41 9 -59 24c-10 14 -14 32 -19 48c-13 47 -8 94 -3 141c8 81 36 158 69 233c5 13 12 26 17 40c1 1 1 3 1 6
c-2 1 -4 3 -5 5v-1c5 9 17 15 17 28h1l-1 -1c-9 -8 -20 -15 -24 -27l1 1c-3 -2 -4 -5 -7 -6l1 1c-10 -11 -22 -22 -32 -33c-16 -21 -32 -42 -49 -64c-30 -7 -54 5 -76 17c-4 12 1 22 6 30c12 20 24 41 38 61c41 54 91 101 149 140c40 27 84 47 135 54c3 1 7 1 12 1
c57 3 113 -3 166 -23c30 -11 55 -28 79 -46c26 -21 33 -49 31 -79c-4 -38 -23 -72 -51 -103c-1 -1 -5 -2 -7 -3zM289 602l-1 -1c-2 -2 -4 -3 -7 -5c-12 -5 -12 -5 -15 -14c5 5 10 9 15 15c2 2 4 3 6 5h2zM281 138c2 -4 4 -7 6 -10l2 -1l-1 1c-2 3 -4 7 -6 11c-2 2 -4 3 -6 5
c-2 4 -4 8 -6 11s-3 7 -6 10c-2 2 -4 4 -7 6c-1 1 -2 3 -1 1c0 2 0 0 1 -2c2 -2 4 -4 7 -5c2 -4 3 -7 5 -11c2 -3 4 -7 6 -11c3 -1 4 -3 6 -5zM257 400c9 6 9 16 11 24c13 35 25 71 38 106c1 3 5 6 10 14c-1 -11 0 -14 -1 -19c-7 -28 -14 -55 -23 -83
c-11 -35 -14 -71 -18 -105c5 -12 10 -22 18 -28c4 0 6 0 8 1c7 4 15 10 23 16c50 44 93 94 131 147c19 27 33 56 40 87c6 28 6 58 -18 85c-9 0 -18 3 -28 4c-32 3 -62 -4 -89 -18c-25 -14 -49 -31 -73 -46c-2 -1 -3 -4 -4 -7c5 -3 9 -7 13 -11c5 -12 5 -23 2 -34
c-7 -18 -11 -36 -17 -54c-7 -27 -15 -53 -23 -80c-4 -4 -6 -9 -2 -17c1 7 1 12 2 18zM102 11l-1 -1c-2 6 -4 10 -6 16v1c2 -6 5 -11 7 -16zM563 448h1c-2 -4 -4 -8 -6 -11h-1c2 3 4 7 6 11zM95 27v-1c0 1 0 3 0 1c-1 2 0 0 0 0zM557 437h1l-2 -1zM167 496l1 -1h-7l1 1h5z
M174 500v1c-3 -2 -5 -4 -7 -5l1 -1v6l-1 -1h7zM107 4l1 1l1 -1h-2zM101 10l1 1l6 -6l-1 -1c-1 2 -4 4 -6 6z" />
    <glyph glyph-name="s" unicode="s" horiz-adv-x="421" 
d="M171 569l1 1c-6 -6 -14 -13 -19 -20c-18 -24 -32 -51 -40 -81c10 -6 19 -11 25 -20c8 -13 22 -22 37 -30c31 -16 62 -34 93 -49c28 -13 54 -29 73 -53c3 -3 8 -5 11 -9v1c0 -1 1 -2 2 -3c2 1 3 2 4 3v-1c4 -4 8 -6 12 -11c13 -18 20 -40 24 -62c8 -53 -3 -104 -27 -152
c-4 -10 -12 -19 -22 -25l1 1c-10 -9 -19 -19 -30 -27c-14 -9 -28 -20 -44 -27c-37 -17 -75 -32 -113 -46c-3 -2 -8 -2 -12 -2c2 2 5 6 8 10h-37c-28 -1 -53 2 -78 12c3 1 4 1 9 3c-7 5 -13 9 -19 13c-6 5 -10 9 -18 14c-1 -14 12 -17 17 -26c-6 1 -11 2 -18 4
c0 -4 -1 -6 0 -9c6 -13 17 -21 32 -26c19 -6 39 -6 58 -3c16 3 32 6 47 9c-11 -12 -26 -12 -41 -14c-21 -5 -43 -5 -64 1c-24 7 -38 20 -42 41c-3 12 -4 25 -2 38c4 41 16 82 39 118s47 70 74 103c25 32 57 57 94 77c1 3 1 5 2 8v0c7 -1 13 -8 21 -3c-23 24 -63 47 -117 67
v0v0v-5v0c-6 3 -12 5 -17 9c-9 7 -17 16 -25 24c-15 14 -23 31 -19 51c2 13 4 28 10 41c16 37 39 70 68 99c39 41 83 75 131 106c30 19 64 32 100 40c24 7 49 6 74 4c13 -2 26 -4 38 -6c32 -8 47 -24 48 -54c0 -22 -7 -42 -15 -62c-11 -26 -26 -50 -43 -73
c-11 -14 -19 -29 -32 -41v1c0 -1 -2 -2 -1 -3c0 -1 1 -2 1 -4v1c-5 -3 -9 -7 -12 -11v0c-2 -2 -5 -3 -7 -5l1 1c-3 -3 -4 -5 -7 -7l1 1c-2 -2 -5 -4 -7 -6l1 1c-2 -4 -4 -8 -7 -11h1c-2 -2 -5 -4 -7 -6l1 1c-2 -3 -4 -5 -7 -7l1 1c-2 -1 -5 -4 -7 -6v1
c-13 -7 -28 -12 -42 -19c-22 -11 -43 -11 -63 1c-4 10 2 14 7 20c18 24 37 47 53 71c18 27 33 56 49 84c13 23 19 47 8 72c4 0 7 -1 11 -1c1 10 -3 17 -10 26c-5 -3 -9 -4 -13 -6c1 -9 15 -10 13 -20c-9 5 -17 8 -27 13c-10 -5 -21 -9 -31 -16c-46 -27 -88 -59 -125 -95
c-6 -7 -13 -12 -21 -18v-1h-6v0c-2 -4 -5 -7 -7 -11zM196 42l-2 -2c0 1 1 1 1 2c3 2 5 4 7 6c1 1 4 0 5 1c33 21 61 46 79 79c7 13 13 26 9 45c-3 -8 -5 -11 -6 -16c-12 -33 -33 -61 -60 -84c-9 -9 -18 -17 -27 -25zM178 31l1 1l-2 -2zM208 31l1 1l-2 -1v0h1zM280 282
c-2 1 -5 3 -7 5c-7 15 -7 15 -20 18c5 -9 11 -15 21 -17l6 -6c1 -1 2 -1 2 -2c0 1 -1 1 -2 2zM358 292c2 -3 4 -6 5 -10c1 -2 3 -3 1 -2c1 -1 0 0 0 2c-1 4 -4 8 -7 11zM94 90c-16 -29 -15 -41 4 -55c-1 18 -3 37 -4 55c4 3 6 6 2 11c-1 -5 -1 -8 -2 -11zM137 27h7
c85 41 139 103 151 189c5 35 -12 63 -51 80c-16 -15 -28 -32 -40 -50c-34 -49 -64 -100 -81 -156c-2 -10 -4 -21 -4 -31c1 -13 5 -24 18 -32zM360 133c9 14 17 29 14 46c-3 -2 -5 -2 -5 -2c-3 -14 -6 -29 -9 -44zM484 709c-1 -12 -2 -19 -3 -26c0 -7 -1 -14 -2 -26
c16 34 16 36 5 52zM240 321c0 -1 -1 -3 -2 -4h5c-1 1 -2 3 -3 4zM372 261h2l-1 2zM487 715v2l-1 -1zM171 351h1c-8 1 -15 4 -18 11v-1c8 0 15 -2 17 -10zM190 340v1c-8 1 -14 4 -18 10h-1c9 -1 15 -3 19 -11zM208 330c-8 1 -15 4 -18 11v-1c8 0 14 -4 18 -10zM135 372l1 1
c-8 0 -13 4 -18 10v0c8 -1 14 -4 17 -11zM154 361v1c-8 1 -14 4 -18 11l-1 -1c9 -1 15 -3 19 -11zM406 495v1c-3 -4 -5 -8 -7 -11h1v11l-1 -1h7zM352 309v-1v12v-1c2 -4 4 -7 6 -11v1h-6zM352 320v-1l-1 1h1zM118 383c-2 2 -5 4 -6 6v0zM381 469l1 -1h-7v1h6zM388 473h-1
c-1 0 -3 -2 -6 -4l1 -1v6l-1 -1h7zM394 479h-1l-6 -6h1v7l-1 -1h7zM400 485h-1c-1 -2 -3 -4 -6 -6h1v6h-1h7zM412 500h-1c-2 -1 -3 -3 -5 -4v-1v6l-1 -1h7zM418 506c-3 -2 -5 -4 -7 -6h1v7l-1 -1h7zM418 511c0 -1 1 -3 2 -3c0 0 -2 -1 -2 -2v0v5zM430 528v-1c0 -1 1 -2 2 -4
l-2 -1v-1v7zM345 58l1 1l1 -2zM28 -16c4 -2 8 -4 13 -6c-5 2 -9 4 -13 6z" />
    <glyph glyph-name="t" unicode="t" horiz-adv-x="300" 
d="M59 720c49 18 101 29 151 38c73 16 146 23 220 30c39 2 76 5 113 6c23 1 45 0 69 -2c26 -2 39 -7 58 -23c1 -4 0 -7 1 -11c14 -9 29 -19 20 -39c-15 -6 -29 -6 -44 -5c-48 5 -95 2 -142 0c-55 -5 -111 -10 -166 -19c-9 -12 -16 -23 -25 -35h4c-5 -14 -7 -27 -11 -39
c-21 -50 -35 -100 -45 -151c-9 -37 -49 -210 -54 -247c-6 -53 -9 -105 -4 -157c2 -28 11 -54 29 -74c-1 -7 -1 -14 -2 -19c-6 -1 -11 -1 -16 -3c-30 -12 -54 -5 -76 11c-27 20 -45 44 -49 76c-2 27 -8 56 -7 85c-1 63 34 264 49 327c5 29 14 57 21 85v-1c6 9 9 16 2 23v0
c0 3 1 7 1 11h11v14c17 21 23 44 40 69c-16 3 -29 -2 -42 -6c-13 -3 -26 -6 -41 -11c-12 -3 -24 -5 -37 -9c-14 -4 -27 -10 -38 -17c-10 -1 -18 -3 -26 -4c-7 6 -14 11 -20 16c-3 10 -9 20 -13 32c2 4 5 10 11 12c6 6 15 12 23 15c11 3 10 16 22 17c0 -1 1 -1 1 -2l-1 1
c3 2 8 4 13 6l1 -1zM155 579v1c-9 -7 -9 -17 -14 -28c-6 -14 -8 -26 -12 -40c-5 -14 -9 -28 -13 -42c-5 16 3 31 7 46c8 24 17 50 26 74c2 4 6 8 9 12v0c0 -8 -2 -16 -3 -23z" />
    <glyph glyph-name="u" unicode="u" horiz-adv-x="476" 
d="M50 415c-2 -3 -6 -6 -7 -9c-14 -40 -25 -81 -30 -124c-3 -21 -6 -41 -8 -66c-7 32 -2 61 3 88c10 58 27 114 55 169c9 19 23 36 35 55c6 9 15 16 29 20c18 4 34 -6 52 -13c2 -4 5 -9 8 -13c0 -3 0 -4 -1 -5c-19 -39 -30 -79 -40 -120c-6 -26 -12 -50 -8 -76
c1 -9 -1 -19 -2 -27c-4 -34 1 -67 13 -100c4 -11 8 -23 19 -33c14 6 21 16 30 26c23 28 37 59 48 92c20 61 40 123 60 183c12 39 24 78 37 115c5 12 7 25 19 33c19 4 35 -2 52 -5c7 -6 15 -10 23 -15c6 -19 7 -38 4 -59c-13 -92 -21 -183 -23 -274c-1 -39 1 -80 5 -119
c3 -37 13 -72 43 -100c-4 -7 -9 -12 -13 -19c-12 0 -24 -1 -36 1c-10 1 -21 6 -32 8c-26 17 -40 41 -49 68c-10 30 -14 60 -18 91c0 5 0 9 -1 14c-8 -1 -8 -6 -7 -11c3 -32 4 -65 14 -97c2 -4 1 -9 1 -13h1c-3 3 -6 5 -7 8c-4 21 -8 42 -13 63c-1 8 -2 16 -3 25
c-10 0 -10 -5 -12 -8c-3 -3 -6 -7 -8 -11c-10 -15 -23 -28 -42 -35v1c-32 -15 -67 -17 -102 -11c-39 7 -77 18 -99 53c-6 8 -10 17 -13 26c-3 7 -1 12 4 17c-1 -7 -1 -12 6 -17c1 -8 2 -16 13 -20c2 -4 3 -7 5 -11l1 -1l-2 1c-2 4 -2 7 -4 11c-5 6 -9 13 -13 20
c-2 6 -4 11 -6 17c-2 25 -9 50 -6 76c4 37 11 74 20 110c2 7 3 14 5 21c1 3 2 7 3 10c-1 1 -1 1 -3 1v-11zM247 181c6 4 11 9 11 16c23 23 40 59 40 84c-13 -26 -26 -52 -39 -79c-1 -2 0 -3 0 -5c-8 -3 -11 -10 -12 -17v1zM349 442c9 13 12 27 10 42c-4 -8 -8 -16 -9 -24
c-1 -6 0 -12 -1 -18c-6 -4 -5 -9 -2 -20c1 10 1 16 2 20zM361 85c0 -1 1 -3 0 -1c1 -2 0 0 0 1c-2 13 -5 26 -7 40c-2 12 -4 24 -5 37s-1 26 -2 39s-1 25 -2 37c-2 13 2 25 -6 43c-1 -14 -3 -20 -3 -27c1 -30 1 -60 3 -90c2 -20 7 -39 11 -58c1 -8 2 -16 11 -21zM83 257
l3 30c1 9 3 19 5 28c1 10 3 20 6 30c1 9 3 19 5 28c3 10 6 21 8 32l9 27c3 10 6 19 10 29c3 9 7 18 11 27c3 8 10 16 7 31c-21 -34 -31 -66 -41 -98c-15 -53 -29 -107 -23 -164zM57 443v-3l2 2zM372 16c-14 4 -24 12 -29 26h-1c10 -9 20 -17 30 -26zM331 63v1
c-7 4 -6 10 -5 16h-1c6 -5 5 -10 6 -17zM235 112v-1c-1 -1 -3 -1 -2 -1c-1 -1 0 1 2 2zM331 64v-1c2 -3 4 -6 6 -10h1c-8 2 -7 7 -7 11zM342 42h1c-6 2 -6 7 -5 11h-1c1 -3 3 -7 5 -11zM241 117c0 1 1 1 1 2c0 0 -1 2 -1 3v1v-6l-6 -6v1c1 1 3 3 6 5z" />
    <glyph glyph-name="v" unicode="v" horiz-adv-x="392" 
d="M494 671c4 1 9 3 16 5c-1 -5 0 -8 -2 -10c-19 -20 -32 -43 -44 -66c-61 -119 -108 -241 -138 -370c-11 -44 -21 -88 -31 -133c-1 -1 -2 -4 -4 -9c-4 19 2 34 5 50c19 109 48 217 89 322c8 18 15 36 22 54c2 5 1 9 2 14c9 6 12 15 12 26c11 11 17 23 18 37
c12 12 17 28 24 42l6 12h2h-2l-6 -12c-14 -11 -21 -25 -23 -42c-12 -10 -18 -23 -19 -38c-9 -6 -12 -15 -12 -26c-3 -5 -8 -9 -10 -15c-50 -113 -87 -229 -109 -347c-7 -36 -14 -72 -22 -108c5 -7 9 -15 13 -23c-2 -3 -5 -7 -9 -9c-7 2 -14 2 -20 4c-4 -2 -7 -5 -11 -8
c-16 -3 -29 1 -41 7c-19 12 -36 24 -48 43c-67 96 -111 200 -135 311c-3 18 -5 35 -8 53c-2 14 -4 27 -6 42c-1 8 0 16 3 23c1 -6 2 -14 3 -20c2 -7 4 -14 8 -25c1 30 2 55 4 80c1 2 3 3 5 6c11 2 25 7 36 1c16 -7 37 4 50 -15c5 -31 9 -64 16 -95c6 -32 15 -64 25 -96
s21 -63 35 -93c13 -30 23 -62 46 -93c6 31 12 58 18 84c26 111 60 219 109 323c17 35 38 67 61 98c10 13 13 14 35 25c9 1 18 1 29 2c3 -3 6 -7 8 -12c-1 0 -1 0 -2 -1zM215 74l-1 -1c4 0 9 -2 12 -4l1 1c-4 1 -8 3 -12 4zM197 90c2 -2 3 -4 5 -6v1c-2 2 -3 4 -5 5zM190 96
c2 -2 4 -4 7 -6v0c-2 2 -4 4 -7 6h-2h2zM179 112l-1 -1c1 0 1 -1 2 -1c0 1 -1 1 -1 2zM178 111l1 1l-2 1zM227 70l-1 -1c1 0 2 -1 3 -1c-1 0 -2 1 -2 2zM214 73l1 1c-3 2 -4 4 -6 6v-1c2 -2 3 -4 5 -6zM202 85v-1c2 -1 4 -3 7 -5v1c-2 2 -4 4 -7 5z" />
    <glyph glyph-name="w" unicode="w" horiz-adv-x="629" 
d="M143 33v0v-1h-1c0 1 0 1 1 1zM677 671c7 -19 10 -38 11 -58c1 -37 -5 -72 -12 -108c-13 -66 -29 -131 -55 -193c-8 -19 -17 -36 -26 -54c-17 -31 -40 -57 -69 -80c-34 -26 -74 -29 -115 -24c-15 3 -27 11 -35 21c-11 12 -23 26 -31 41c-24 40 -38 83 -47 126
c-1 5 -2 8 -4 13c-10 -2 -9 -9 -12 -15c-20 -53 -41 -107 -61 -161c-12 -32 -24 -64 -38 -95c-5 -14 -15 -27 -23 -40c-2 4 -4 5 -5 0c-9 -1 -11 -5 -12 -11c-13 0 -26 2 -39 -4c-6 -2 -16 -2 -23 -1c-6 1 -13 3 -20 1c-15 -2 -24 6 -32 16c-10 13 -15 27 -19 41
c-9 42 -13 83 -10 125c6 75 18 148 40 220c5 17 11 32 17 49c4 10 9 18 18 27c7 7 11 16 18 27c9 10 26 9 41 9c8 -3 10 -10 8 -16c-23 -62 -38 -125 -50 -189c-9 -54 -16 -109 -12 -164c4 30 6 59 9 90c5 30 9 61 16 92c5 30 12 60 20 91c8 30 15 61 28 91
c7 -3 13 -6 20 -9c0 -11 0 -21 -2 -33c-8 -48 -17 -97 -25 -147c-8 -54 -15 -109 -14 -164c0 -7 0 -13 1 -20c10 0 11 6 12 11c18 39 34 79 52 119c29 67 58 133 87 201c7 13 15 27 22 41c4 6 9 13 14 18c27 9 51 7 73 -3c0 -4 1 -6 0 -7c-21 -17 -25 -40 -28 -63
c-4 -32 -3 -64 2 -100c3 8 4 11 5 15c10 -30 19 -61 29 -91c8 -27 21 -52 38 -75c7 -12 15 -23 29 -32c5 4 10 8 14 12c18 23 32 48 44 73c28 61 46 123 59 187c5 30 9 60 13 90c3 27 -2 53 -6 79h-1v1c1 0 1 0 1 -1c0 1 1 1 1 2s-1 3 -1 3h-1v0h1c-2 26 -23 41 -44 56
c5 1 8 3 12 4c1 5 3 9 4 12c3 1 4 3 6 3c24 5 46 -1 67 -8s33 -23 40 -41zM38 79c0 1 1 2 1 2c0 1 -1 1 -2 1v-2c0 0 1 0 1 -1zM46 62h-1h1zM48 58v0zM66 470h2l-1 2zM287 396v0zM178 139c-11 -10 -16 -22 -17 -36c10 10 17 22 17 36zM149 82c5 2 6 5 5 9c-5 -2 -5 -6 -5 -9
zM155 92c5 2 5 5 5 10c-5 -2 -5 -6 -5 -10zM178 141c14 17 26 46 30 67c-12 -18 -25 -47 -30 -67zM216 219c17 39 33 79 50 118c2 5 1 10 2 14c-2 -2 -5 -4 -6 -7c-17 -41 -35 -82 -52 -122c-1 -4 -1 -9 -1 -13c2 3 5 6 7 10zM269 353c11 12 15 26 17 40
c-10 -11 -16 -24 -17 -40zM374 354v14h-2v-14h2zM379 336h1l-1 2v-2zM155 43h-1l1 1v0v-1zM160 43v1v0s0 -1 1 -1h-1zM155 34v9h5c-2 -3 -4 -6 -5 -9zM154 32c-4 -3 -8 -5 -11 0h11c0 1 0 1 1 1v1v-2h-1zM590 644c0 1 1 1 1 1v-4c0 1 -1 2 -1 3zM579 656h1v0h-1z" />
    <glyph glyph-name="x" unicode="x" horiz-adv-x="404" 
d="M369 97c9 -12 21 -22 34 -34c-2 -3 -4 -8 -6 -14h-20c-3 -5 -5 -10 -8 -15c0 0 -1 -2 -2 -2c-37 -16 -55 -16 -80 9c-12 12 -23 26 -33 41c-27 41 -52 84 -78 127c-4 7 -6 16 -15 21c-8 -8 -7 -14 -4 -20c4 -10 6 -18 10 -27c-4 3 -7 4 -9 7c-5 6 -8 12 -14 20
c-5 -6 -9 -10 -13 -14l-72 -105c-6 -9 -11 -19 -24 -26c-3 3 -8 6 -13 9c-10 -1 -19 3 -29 7c1 13 6 25 12 36c13 25 29 51 45 77c13 20 27 40 40 60c7 8 12 17 17 25c-3 10 -7 18 -10 25c-26 62 -46 125 -49 194c-1 22 2 44 5 67c0 11 1 11 14 29c13 7 28 14 44 11
c7 -6 7 -16 7 -25c3 -45 13 -89 26 -131c2 -6 6 -10 9 -15c-2 9 -2 19 -5 28c-12 37 -14 77 -18 117c0 5 2 10 3 20c4 -5 8 -7 9 -10c2 -13 5 -26 6 -39c10 -51 25 -98 52 -143l12 12l87 105c6 7 11 17 21 20c0 -3 -1 -6 -1 -10c3 4 6 8 8 10h-1h1h-7c3 9 7 13 15 17
c-1 -4 -1 -8 -2 -11v0c3 3 7 8 9 12l-1 -1s1 0 1 1h-7c2 6 8 12 15 15c-1 -3 -1 -7 -2 -11v0c3 4 5 8 9 11c7 9 16 16 23 23c11 11 22 23 34 33c7 9 15 14 28 12c9 -9 24 -14 27 -32c-19 -22 -40 -45 -59 -68c-21 -23 -41 -47 -59 -71c-20 -24 -38 -47 -57 -71
s-38 -48 -56 -72c2 -6 3 -12 5 -17c30 -62 61 -123 100 -181c8 -12 16 -25 26 -36zM121 307c0 0 1 1 2 1c-1 2 -2 3 -3 4l-2 -1c1 -1 2 -3 3 -4zM153 433c-1 -5 -2 -9 4 -11c1 5 1 9 -4 11zM158 421c-2 -4 -1 -8 3 -10c1 5 1 8 -3 10zM161 410c-1 -5 -1 -8 4 -10
c-1 4 -3 6 -4 10zM166 399c0 -5 -1 -8 4 -10c-1 4 -2 6 -4 10zM171 388c-2 -3 -2 -6 4 -6c-2 2 -4 4 -4 6zM335 562v-1v0v1v0zM320 544v0v0v0v0zM186 150c-7 3 -9 8 -9 15c7 -3 9 -9 9 -15zM177 165h-1v1l1 -1v0zM176 166c-7 3 -9 8 -8 16c6 -4 8 -9 8 -16zM168 182h-1v1h1
v-1zM191 143c-2 2 -4 4 -5 6v1l1 -1c0 -2 3 -4 5 -6c1 -3 2 -7 4 -11c1 -2 3 -3 5 -5l-1 -1c-2 2 -3 4 -5 6c-2 4 -3 8 -4 11zM357 577h-7v0v1h7v-1v0z" />
    <glyph glyph-name="y" unicode="y" horiz-adv-x="397" 
d="M88 260l-1 -2c4 2 10 2 15 3c-7 11 -18 11 -28 13c-44 41 -69 87 -74 142c-7 68 5 134 29 201c4 18 12 37 21 58c5 14 14 29 32 39c22 2 46 -1 60 -19c0 -4 1 -7 0 -9c-23 -63 -35 -125 -41 -192c-4 -54 3 -108 22 -163c4 -11 8 -24 18 -33c9 -2 12 5 15 8
c12 17 25 35 36 55c17 31 33 63 48 95c11 21 18 42 36 60c1 2 2 5 2 9c18 37 35 73 38 113c1 8 2 16 11 26c17 5 31 1 47 -11c0 -9 0 -21 1 -30c1 -15 1 -31 2 -46v-14c-3 -36 -6 -71 -13 -107c-14 -98 -37 -196 -62 -295c-2 -5 -2 -14 -3 -21c-9 -7 -6 -15 -6 -22
c-10 -11 -13 -24 -14 -38c-5 -5 -4 -11 -4 -16c-4 -5 -6 -10 -8 -16c-1 -2 -2 -4 -1 -1c0 -3 0 0 0 2c9 3 7 10 8 15c6 4 4 10 4 16c11 12 15 25 15 38c8 6 6 13 6 23c9 5 8 16 9 24c20 76 40 152 54 228c4 28 12 53 16 82c2 9 3 17 4 27c2 1 3 2 8 2c0 4 0 10 -2 15
c-2 20 -3 41 7 61c3 10 0 24 0 34c-4 6 -9 9 -13 14c3 2 9 4 11 3c4 -2 11 -6 12 -9c3 -9 5 -17 6 -25c2 -46 -1 -89 -8 -132c-12 -83 -27 -167 -48 -250c-13 -48 -28 -98 -43 -146c-7 -18 -16 -36 -26 -54c-6 -11 -11 -19 -20 -25c-11 -11 -26 -18 -44 -16
c-18 4 -37 1 -55 -1c-28 -2 -55 7 -68 29c-27 39 -46 80 -56 122c-5 27 6 46 31 61c7 -1 15 -3 24 -3c6 -8 13 -15 22 -23c4 2 9 3 16 4c0 -33 13 -61 27 -89c12 0 12 8 13 13c15 44 31 87 45 130c16 49 29 101 42 149c1 4 2 8 -2 12c-4 -8 -6 -14 -10 -22
c-10 -18 -20 -37 -30 -55c-12 -18 -25 -35 -52 -40c-7 -1 -12 -6 -16 -9h-43c-9 1 -16 1 -22 8zM113 136h3v9h-3v-9zM258 28h-2l1 -2z" />
    <glyph glyph-name="z" unicode="z" horiz-adv-x="498" 
d="M522 39c4 -3 3 -10 5 -18c-36 13 -67 26 -100 37c-33 10 -67 15 -100 15s-66 0 -98 -1c-33 -1 -63 -7 -90 -17c-8 -9 -16 -16 -22 -24c-1 3 -2 6 -4 10c-13 -2 -11 -15 -20 -21h-52c-12 7 -32 7 -44 24c1 23 25 29 41 42c9 20 13 41 16 63c1 8 136 249 137 258
c-3 -5 -140 -242 -142 -246c-3 -7 -5 -13 -6 -20c-2 -7 -2 -13 -3 -25c-6 9 -11 14 -11 18c0 13 -2 27 0 39c4 15 11 31 18 45c46 90 97 175 163 253c7 9 7 9 25 15c33 46 68 94 102 142c-8 6 -12 4 -17 3c-68 -15 -130 -38 -188 -68c-11 -6 -18 -14 -27 -21
c-11 1 -19 9 -25 17c-4 10 -1 17 7 21c11 8 23 15 36 21c14 7 28 12 42 19v1c1 0 1 -1 1 -1c1 2 4 2 6 4c5 1 8 2 13 4c-5 1 -8 2 -13 3l1 -1c-1 0 -1 0 -1 1v-7c-2 1 -5 1 -6 2v6h-1h1c-16 -5 -32 -10 -47 -15c-9 -3 -18 -9 -29 -6c11 7 22 15 34 21c77 34 159 57 249 66
c10 2 19 4 31 4c14 -1 32 0 47 -15v-9c7 -4 13 -8 20 -11c-1 -5 -1 -8 -2 -8c-5 -3 -9 -4 -15 -5c-9 -3 -15 -9 -18 -17c5 0 10 1 15 1c9 -8 6 -16 6 -23c6 5 11 10 19 18c2 -9 4 -14 3 -18c-5 -11 -12 -21 -18 -32c-46 -71 -94 -142 -139 -214c-46 -74 -86 -151 -122 -230
c-2 -3 -3 -6 -4 -8c5 -7 10 -4 16 -4c38 3 77 4 118 -1c54 -7 106 -26 155 -55c13 -9 25 -21 37 -32zM430 626c5 1 6 5 5 9c-2 -2 -4 -6 -5 -9zM429 625c-4 -1 -7 -2 -2 -7c1 3 1 4 2 7zM302 659v0zM307 661v0zM172 624v0v0h1h-1zM116 31h1v-1v0h-1v1zM114 16
c-4 9 -2 12 2 14c0 -3 -1 -7 -2 -14zM87 609l1 2h2c-1 0 -1 -1 -1 -1zM164 624c0 0 1 0 1 1v-4c0 1 -1 1 -1 3zM166 626v-1h-1v1v0v0v0v0h1z" />
    <glyph glyph-name="exclam" unicode="!" horiz-adv-x="245" 
d="M44 143c-7 7 -9 10 -17 15v48c5 46 8 92 10 138c2 40 11 81 15 121c8 59 19 114 28 170c3 11 4 23 7 33c4 10 6 19 18 26c11 0 18 -3 27 -3c1 -4 4 -8 4 -13c5 3 10 3 16 5c4 -2 12 -7 16 -9c13 -19 12 -39 9 -59c-9 -53 -16 -106 -23 -158c-6 -53 -13 -109 -21 -161
c-5 -41 -10 -85 -14 -126c0 -9 0 -20 -8 -27c-11 -7 -20 -5 -31 0c-12 5 -25 7 -36 0zM80 41c18 -7 39 -18 53 -35c23 -28 21 -61 -13 -87c-11 0 -24 3 -37 3c-12 3 -26 0 -35 0c-57 33 -61 81 -18 124c18 6 32 2 50 -5zM192 655c15 -4 23 -15 21 -29c-4 -19 -4 -39 -6 -56
c-10 -59 -18 -115 -21 -170c-5 -46 -14 -90 -20 -133c-5 -32 -12 -66 -18 -99c-2 -7 -2 -18 -9 -25h-11c5 35 8 68 11 102c5 35 9 68 13 101c4 36 9 70 12 106c4 34 8 66 16 102c4 33 1 68 12 101zM202 407v22h5v-22l-3 -3z" />
    <glyph glyph-name="at" unicode="@" horiz-adv-x="558" 
d="M469 352c2 77 -21 149 -64 212c-15 23 -35 41 -61 48c-17 4 -33 -4 -48 -12c-40 -15 -71 -40 -101 -71c-61 -66 -96 -142 -110 -230c-7 -67 3 -130 34 -191c13 -20 27 -38 45 -56c41 -36 86 -43 138 -30c29 10 58 25 83 43c15 9 27 18 43 28c18 -5 36 -10 54 -21
c-6 -7 -9 -12 -11 -18c-60 -58 -129 -83 -215 -68c-13 2 -26 2 -38 5c-93 18 -155 66 -191 151c-31 73 -35 149 -15 222c23 84 66 153 129 211c23 21 46 37 74 48c58 28 116 28 177 5c31 -12 56 -36 79 -61c36 -48 57 -104 66 -162c8 -44 5 -84 -7 -125
c-8 -25 -23 -50 -41 -70c-20 -23 -43 -29 -70 -23c-8 3 -16 4 -27 4c-22 0 -41 11 -50 31c-3 2 -8 8 -11 13c-12 -13 -17 -25 -25 -38c-10 -14 -17 -26 -25 -36c-28 -10 -53 -3 -79 2c-18 6 -36 13 -54 18c-7 10 -16 21 -27 31c-5 20 -2 36 4 53c21 54 48 107 80 155
c15 18 30 38 51 50c14 13 30 16 50 11c18 -5 36 -7 48 -23c4 -2 9 -4 13 -8c-4 -8 -9 -17 -17 -21c-16 -9 -26 -24 -33 -39c-26 -51 -51 -102 -61 -158c-3 -5 -3 -10 -3 -17c5 7 10 9 13 15c20 32 40 66 61 99c7 15 17 28 27 41c6 0 10 0 16 -3c2 -21 22 -31 33 -48
c-8 -26 -5 -54 5 -84c4 4 11 7 13 9c10 8 18 18 25 27v2h5v-2c2 4 5 9 7 12h-2c2 8 5 13 8 20v-3c5 9 5 13 0 21v0c2 11 -3 20 5 31c0 -6 2 -13 2 -18h2c-2 5 -2 10 -4 18zM319 260c-2 -5 -5 -9 -5 -12c-11 -6 -12 -10 -12 -18c-9 -6 -13 -11 -13 -18
c-19 -15 -19 -15 -21 -33c11 11 18 18 21 33c7 3 10 10 10 18c10 2 12 9 12 18c3 4 6 7 6 12h2v0zM245 303c3 2 5 8 5 10c3 3 3 6 3 3c0 3 0 0 0 -3c-8 -2 -8 -8 -8 -13c-4 0 -4 -4 -4 -9c-9 -6 -9 -13 -6 -20c-15 -13 -15 -32 -20 -49c0 -7 -3 -15 5 -25c5 27 10 51 12 76
c9 2 9 10 9 18c4 2 4 8 4 12zM263 339v-3l3 3c0 2 2 7 4 10c3 5 3 10 6 12c3 6 5 9 5 13c2 0 2 0 2 3c0 -3 -2 -3 -2 -3c-2 -4 -2 -7 -5 -13c-3 -2 -6 -7 -6 -9c-2 -6 -4 -11 -7 -13zM451 283c0 8 0 13 7 17l-2 3v-20h2h-7zM456 303l2 -3c0 9 3 13 6 21v0v-21v3h-8zM446 271
v2h5v-2v12v0c-5 -3 -5 -8 -5 -12z" />
    <glyph glyph-name="grave" unicode="`" horiz-adv-x="253" 
d="M218 558c-7 -4 -14 -6 -20 -12c-7 3 -12 6 -17 8c-8 -5 -15 -9 -23 -16c-12 4 -23 8 -38 14c-8 6 -15 18 -25 27c-26 34 -46 69 -67 104c-4 8 -10 18 0 29c8 2 21 4 31 7c8 -3 16 -7 22 -10c16 7 29 -2 36 -15c23 -31 46 -61 69 -91c10 -13 21 -29 32 -45z" />
    <glyph glyph-name="ring" unicode="&#x2da;" horiz-adv-x="250" 
d="M127 538c-17 14 -37 7 -61 11c-2 0 -7 3 -12 5c-38 29 -51 72 -25 114c12 23 28 44 55 51c22 18 43 10 69 8c53 -11 66 -53 68 -94c0 -5 0 -11 -2 -15c-7 -51 -36 -73 -92 -80zM131 691c-21 -15 -32 -33 -36 -58c-3 -20 0 -39 18 -56c20 16 29 33 32 56c2 21 2 41 -14 58
z" />
    <glyph glyph-name="braceleft" unicode="{" horiz-adv-x="265" 
d="M161 361c-15 -6 -30 -13 -50 -26h17c5 -4 5 -9 11 -12c17 -10 27 -25 33 -45c8 -29 13 -53 13 -81c0 -39 -3 -80 -3 -117c0 -28 -2 -57 -2 -84c2 -13 5 -25 9 -38c7 -16 18 -28 39 -28c2 0 4 -3 6 -3c-2 -13 -13 -8 -20 -13c7 -2 8 -4 16 -7c-9 -10 -21 -13 -28 -13
c-29 -2 -56 0 -81 8c-9 2 -13 10 -20 15v0c-2 2 -6 5 -6 8v-3c-3 5 -5 10 -5 16v-3c-12 38 -12 76 -7 113c2 34 5 68 7 100c0 33 0 63 -5 97c-5 25 -10 35 -27 51c-18 4 -41 0 -56 17v22c9 13 22 20 35 29c13 10 26 18 41 27c14 11 25 29 30 46c11 53 18 108 16 160
c-3 43 4 86 27 127c10 20 22 36 41 49c20 15 40 24 63 20c6 -3 14 -3 18 -3c10 -6 20 -10 31 -17c-6 -9 -9 -13 -13 -16c-38 -13 -50 -43 -59 -76c-7 -27 -10 -55 -10 -84v-116c0 -8 -1 -13 -1 -20c0 -29 -12 -54 -32 -77c-7 -8 -16 -16 -20 -23v0c-3 3 -5 3 -8 0zM187 716
c-2 -4 -5 -9 -7 -15c-11 -30 -19 -61 -19 -94v-55c-1 -41 0 -82 -8 -123c11 16 16 32 16 46c3 23 3 43 4 63c3 59 -4 117 14 178zM161 354v7v0h8v0c-3 -2 -5 -6 -8 -7z" />
    <glyph glyph-name="bracketleft" unicode="[" horiz-adv-x="193" 
d="M147 -101c-21 -5 -51 -9 -82 -15c-10 3 -20 8 -33 10c-4 8 -8 13 -13 20c-4 -4 -7 -10 -12 -17c-3 33 -5 63 -3 94c8 68 15 138 20 208c8 76 16 152 24 230c3 44 7 89 7 136c3 29 3 63 0 95c0 27 -3 54 5 84c7 4 18 11 27 16h26c19 -5 39 0 56 2c18 6 38 11 56 13
c17 5 36 2 54 -5c7 -6 18 -8 25 -10c2 -3 5 -5 5 -8c0 -4 0 -8 -3 -13c-48 -12 -99 -23 -149 -36c0 -4 -3 -9 -3 -12c0 -8 3 -15 3 -23c4 -103 3 -204 -5 -309c-5 -72 -8 -142 -16 -214c-4 -63 -4 -129 -20 -192c0 -3 3 -5 3 -11c20 0 41 11 61 11s38 -3 61 -5
c-3 -16 -11 -21 -21 -23c-13 -3 -27 -6 -40 -11c-11 -2 -19 -7 -33 -15zM91 -68c12 10 9 21 9 28c6 59 12 117 16 178c5 79 16 160 20 238c5 67 8 133 11 196c0 41 -3 82 -3 122c0 2 -5 5 -8 7c-4 -12 -2 -25 -2 -35v-101c0 -84 -8 -171 -15 -255c-3 -61 -11 -119 -16 -177
c-3 -58 -7 -119 -12 -178v-23zM87 683c-2 0 -2 0 -2 4v-52h2v48z" />
    <glyph glyph-name="bracketright" unicode="]" horiz-adv-x="262" 
d="M4 709c4 3 12 5 20 10c-10 10 -26 8 -31 29c3 14 19 14 26 27c5 -2 7 -5 13 -11c5 6 12 9 21 13c4 -2 9 -7 16 -13c36 -2 72 9 107 16c7 -5 15 -12 23 -18c5 0 12 -2 20 -2c8 -21 8 -44 8 -64v-228c-3 -129 -8 -257 -12 -386c0 -46 -8 -91 -19 -140c3 -3 6 -4 11 -10
c-5 -18 -18 -25 -31 -28c-30 -7 -61 -17 -91 -23c-28 -3 -57 0 -84 3c-8 0 -16 3 -23 13c2 5 5 13 11 15c12 5 25 10 37 13c15 5 34 5 51 7c0 6 3 10 3 16c2 40 5 84 7 124c6 76 11 153 15 228c3 31 5 61 8 91c3 46 5 93 8 135c5 53 5 104 7 157v31c-12 5 -25 0 -38 0
c-27 -2 -53 -5 -79 -7c-3 -4 -3 2 -4 2zM161 -47c13 27 15 56 15 83c6 81 10 165 15 247c4 40 4 81 5 121c8 84 13 170 13 254c0 23 -2 43 -2 66c0 5 -3 11 -11 8v-29c3 -93 -1 -185 -7 -278c-3 -58 -7 -119 -10 -178c-3 -61 -8 -122 -11 -183c-2 -38 -5 -73 -7 -111z
M121 391v0c0 5 2 13 2 21c0 4 -2 11 -2 17v0v-38zM128 518c-3 -2 -3 -5 0 0v0zM-8 689c4 -2 6 -6 12 -8v0c-6 0 -11 0 -12 8z" />
    <glyph glyph-name="braceright" unicode="}" horiz-adv-x="309" 
d="M140 344c0 4 -2 7 -4 11c-21 32 -28 68 -34 106c-7 50 0 101 6 152c0 22 3 45 3 68c0 15 -5 28 -13 41s-19 22 -36 17c3 -7 5 -15 5 -20h3c-8 5 -13 10 -20 16c-13 2 -23 4 -36 7v22c31 13 64 13 94 9c7 -3 12 -5 18 -5c48 -18 71 -49 71 -100c0 -26 0 -50 -3 -74
c-5 -49 -5 -98 3 -146c2 -11 2 -23 11 -32v0c1 -4 4 -12 6 -16v0c0 -6 3 -9 6 -13v0c1 -3 4 -5 7 -5h-3c9 -23 29 -31 49 -43c-5 -8 -8 -18 -11 -29c-5 0 -9 -3 -15 -4c0 -3 -2 -6 -2 -8c0 -23 -3 -43 -3 -63c0 -44 3 -87 0 -128c0 -48 -9 -91 -33 -132
c-20 -30 -48 -50 -78 -65c-23 -11 -46 -18 -72 -20c-28 0 -50 2 -63 27c0 5 2 8 2 10c6 0 11 -2 16 -2c4 5 -3 10 3 17c0 0 1 0 4 3c9 -3 16 -6 21 -7h17c23 10 36 27 43 50c6 12 9 26 11 38c10 61 20 122 23 185c0 11 2 24 -8 31v0c8 25 12 54 21 81c-9 5 -13 10 -18 16
c-31 22 -52 52 -56 93c-5 29 -10 56 -10 84c0 22 2 49 5 71c5 26 9 48 15 81v-28c3 -7 3 -12 0 -20v-26c-7 -56 -6 -113 7 -169c8 -29 19 -51 36 -71c5 -6 10 -6 12 -10c3 0 7 -3 9 -5v-4s0 4 -2 4c0 2 -4 5 -7 5zM230 262c-10 -10 -10 -17 -10 -27c-3 -36 -3 -74 -6 -112
c0 -34 0 -66 -6 -100c0 -4 -4 -9 -4 -17c16 23 20 49 20 76c3 59 6 117 6 180zM208 416v24v0c9 -15 13 -36 22 -53c0 0 -3 -3 -6 -5h3c-3 0 -6 2 -7 5v0c-3 4 -6 7 -6 13v0c-2 4 0 12 -6 16zM128 242v-23c-5 7 -5 16 0 23zM208 440c0 5 -4 10 -7 15c3 0 3 2 7 2v-17zM67 719
h3c0 -5 2 -7 5 -12v0c-3 5 -5 7 -8 12zM75 707c0 -4 3 -4 0 -4c3 0 0 0 0 4zM257 287h-2v0h2z" />
    <glyph glyph-name="asciicircum" unicode="^" horiz-adv-x="321" 
d="M23 511c-3 11 2 20 7 31c5 12 13 23 18 35c23 43 43 86 65 132c6 7 19 10 35 10c1 3 1 5 4 10c5 -2 10 -5 16 -10c4 10 9 18 15 25c2 4 5 4 7 4c3 0 7 -4 10 -4c6 -9 10 -17 13 -28h7c26 -61 36 -126 74 -182c-4 -5 -11 -8 -16 -12c3 -4 5 -9 9 -16c0 -5 -4 -13 -6 -18
c-35 -2 -63 10 -81 38c-12 16 -20 32 -30 51c-5 8 -8 16 -11 20c-10 0 -7 -4 -7 -10c7 -15 16 -33 23 -51v0c-7 2 -10 10 -13 16c-5 6 -10 18 -14 25c-16 -12 -29 -31 -48 -81c-12 -6 -25 -6 -34 -6c-11 3 -20 6 -34 11c-2 3 -4 5 -9 10v0v-15c-8 8 -5 13 0 15zM175 536
c2 -5 2 -10 5 -12v0c-5 2 -5 7 -5 12zM188 518v0c2 -5 2 -7 5 -12v0c-3 3 -5 7 -5 12zM188 518v0c-3 0 -5 4 -8 6v0c3 -2 5 -2 8 -6zM197 501v-3c-2 3 -2 6 -4 8v0c2 -2 4 -5 4 -5zM206 493c-3 3 -6 5 -9 5v3c3 -3 6 -5 9 -8z" />
    <glyph glyph-name="question" unicode="?" horiz-adv-x="408" 
d="M392 603c3 -18 -2 -36 -7 -52c-10 -25 -26 -48 -41 -68c-25 -27 -48 -58 -73 -86c-38 -43 -74 -92 -110 -139c-20 -31 -38 -64 -45 -102c-3 0 -5 -2 -5 -2c-2 0 -8 0 -11 -3c-4 5 -9 7 -12 12c-5 4 -10 6 -17 8c-3 26 -3 48 2 73c2 8 5 16 7 24c-18 -24 -25 -51 -25 -78
c-7 -3 -13 0 -16 4c-14 18 -17 41 -9 64c12 45 30 86 53 126c5 6 8 13 10 18v0v0v0v0v3v-3c3 3 3 5 5 7v0v0v0v0v0v-2c2 2 5 6 5 8v0h2c4 5 8 13 11 18c3 2 4 5 7 5v3v0v-3c0 3 3 4 6 7v0v0v0c3 3 4 3 4 5v0h3h-3c19 6 31 20 44 31c40 36 76 70 109 115c10 9 17 24 26 40
c2 5 5 12 0 23c-3 0 -6 2 -9 2c-4 -8 -7 -15 -13 -20c0 5 0 12 -2 18c-68 14 -162 -40 -200 -115c-13 -6 -17 0 -26 7v7c-7 34 6 68 34 93c2 2 4 8 7 10c-25 -10 -39 -30 -51 -53c-8 -10 0 -21 0 -30c-4 -6 -10 -3 -13 2c-4 7 -9 18 -4 28c0 4 2 8 -3 12l-2 -1l2 1v0v0v0v0
c0 12 10 21 18 28c48 56 109 86 183 89c32 0 61 -9 90 -23c6 -2 12 -7 14 -10c30 -27 48 -63 55 -101zM80 273v0zM317 598c14 7 22 22 25 38c0 3 -3 5 -3 10c-10 -18 -16 -34 -22 -48zM88 72c23 -7 32 -23 35 -45c0 -8 3 -18 6 -28c-9 -21 -31 -23 -49 -28c-5 2 -9 5 -16 7
c0 -2 -2 -2 -2 -5c-14 11 -32 20 -48 31v0c-2 0 -4 2 -11 5c-9 33 19 53 32 76c27 10 29 10 45 -8c3 -3 5 -3 8 -5zM14 4c3 2 3 8 5 9h-7c0 -1 2 -4 2 -9zM12 199h-2v4h2v-4zM290 636c0 -4 0 -5 -4 -8c2 3 2 4 4 8v3v2v-2v-3zM278 616c3 3 5 7 8 12v0v-2c-3 -3 -5 -7 -5 -10
l-3 -4v4zM98 415v0v0v0v0v0zM103 425v-10h-5c2 5 5 7 5 10zM133 456v-6h-4c3 4 4 6 4 6zM133 458v-2v2c3 3 6 3 8 5c3 2 3 5 5 7v-2s-2 -3 -5 -5v0v0c-2 -2 -5 -2 -8 -5zM129 450v0v0v0v0c-3 -2 -3 -2 -6 -5h6v5zM119 441h-3v0h3zM120 445c3 -3 3 -4 3 -4h-4s1 1 1 4z
M123 445v0h-3v0h3v0zM116 438v-5h-5c2 2 2 5 5 5zM116 433v0v0v0v0zM116 441v-3v3zM111 433c-2 -4 -6 -5 -6 -5c-2 0 -2 -3 -2 -3v3c2 1 6 5 8 5v0v0zM98 415v-6h-5c3 0 3 4 5 6zM93 409v0v-2v2v0zM91 407h2v-2c-2 0 -2 2 -2 2z" />
    <glyph glyph-name="asciitilde" unicode="~" horiz-adv-x="411" 
d="M160 247c-11 15 -18 31 -30 44c-10 -6 -18 -10 -26 -13v-3h-5v3c-2 -3 -5 -4 -7 -7h2c-10 -10 -20 -24 -31 -33c-7 2 -12 4 -20 4h-18c-2 3 -2 8 -5 13c-2 -2 -7 -2 -9 -5c-9 3 -9 11 -9 17c11 34 31 61 59 82c8 8 20 8 31 8c28 0 53 -11 77 -21c32 -14 60 -35 74 -69
c3 -2 6 -5 11 -9c35 23 58 56 84 91c14 -5 30 -3 43 -17c-30 -47 -52 -84 -76 -106c-53 -46 -105 -28 -145 21zM104 275v3c0 -3 -3 -4 -5 -7v0v7v-3h5zM99 271h-7h2h5z" />
    <glyph glyph-name="dollar" unicode="$" horiz-adv-x="392" 
d="M5 150c2 25 10 48 30 68c10 11 23 18 38 18c10 -2 18 3 29 8c17 -3 34 -3 47 -17c2 -13 -5 -20 -10 -29c-15 -25 -12 -48 0 -73c8 -15 17 -31 31 -40c45 20 68 61 68 119v0c3 -4 6 -6 8 -6c5 16 5 23 2 38c-4 23 -15 43 -27 61c-13 18 -29 36 -47 52
c-27 20 -55 42 -83 63c-12 9 -23 18 -30 30c-14 11 -14 25 -8 40c8 23 23 41 38 57c15 13 31 25 45 36c8 7 15 12 20 17c7 32 11 66 16 98c15 14 31 18 49 8c7 -28 -4 -58 0 -85c37 -9 35 -9 68 14c10 -3 20 -4 33 -7c3 -7 5 -13 5 -23c-5 -9 -15 -18 -13 -33v-5
c-25 -61 -22 -125 -15 -190v-18c-6 -5 -10 -8 -15 -14c5 -7 12 -11 21 -20c12 -15 29 -29 40 -48c30 -48 32 -98 8 -146c-26 -47 -61 -82 -115 -99c-3 0 -7 -3 -13 -6c-8 -40 -4 -84 -17 -123c-13 -4 -23 -7 -34 -9c-2 -2 -2 0 -4 0c-6 11 -6 21 -6 31c3 17 6 38 8 58v38
c-9 3 -18 5 -25 5c-11 -5 -20 -8 -28 -10c-24 -5 -43 -7 -61 8v0c8 0 15 -3 23 -6c14 0 30 0 46 11c-5 3 -8 5 -13 5c-31 10 -53 27 -71 52c-11 16 -18 32 -25 49c-6 8 -11 16 -13 23zM235 376c-2 21 -7 38 -7 58c-3 21 0 39 -3 60c0 20 8 37 6 58c-23 -6 -41 -18 -68 -49
c-14 -16 -29 -30 -32 -50c20 -23 66 -59 104 -77zM228 561v3l-3 -3h3zM337 353c-5 -2 -10 -7 -12 -10c-11 6 -13 13 -13 20c-10 71 -6 142 15 212c3 7 5 13 7 20c3 5 7 5 11 7c8 -23 -5 -43 -5 -63c0 -21 -3 -39 -3 -59c-3 -23 -3 -43 -3 -63s3 -41 3 -64zM15 71
c-15 23 -20 46 -15 75c0 1 2 1 5 4v0c-3 -25 0 -48 10 -72v-7zM228 247h-3c10 -6 10 -16 13 -23v-20v0c-3 12 -7 27 -10 43zM203 282c-2 2 -12 26 0 0zM215 269c2 -2 2 -8 6 -13v3c-6 0 -6 6 -6 10zM221 259v-3c7 0 7 -4 4 -9h3c-5 2 -7 8 -7 12zM211 277l-3 -2
c0 2 -3 4 -5 7v0c2 -3 5 -5 8 -5zM208 275l3 2c0 -2 1 -5 4 -8v0c-3 3 -4 6 -7 6z" />
    <glyph glyph-name="numbersign" unicode="#" horiz-adv-x="476" 
d="M225 139c-3 -5 0 -12 -12 -12c-4 25 2 53 4 79c-13 7 -20 -4 -31 0c-9 -29 -9 -33 -5 -61c-4 -11 -9 -23 -15 -36c-7 3 -12 5 -18 7c-3 -2 -7 -4 -12 -7c-11 -2 -23 0 -33 7c-12 23 -3 49 -3 72c-7 7 -13 2 -20 0c-3 -18 -5 -33 -5 -49c-3 -7 2 -14 5 -25
c-5 -2 -10 2 -10 5v41c0 8 2 15 2 26c-25 7 -53 -9 -71 20c23 15 51 7 74 16c2 12 8 19 9 27c3 -8 -1 -15 7 -23c5 0 9 3 12 5c4 15 8 30 8 46c0 4 -6 7 -6 10c-9 -6 -12 -16 -14 -24c0 -5 -4 -9 -7 -14v30c-22 8 -40 13 -60 20c0 13 8 13 15 16c18 3 36 4 54 7
c4 2 7 8 10 10v0c2 -2 2 -8 4 -10c11 2 13 8 13 13c5 36 13 71 18 106c3 11 3 20 7 32h29c7 -16 18 -29 30 -47c5 -26 -5 -58 -2 -91c11 -5 20 -3 31 0c9 33 9 71 25 104c9 13 23 8 38 5c7 -7 17 -16 27 -18c13 -30 6 -58 11 -88c15 -3 28 -6 40 -10c13 -6 20 -13 18 -26
c-5 -10 -15 -8 -25 -8s-18 13 -31 5c-5 -12 -5 -25 -2 -41c17 -4 35 3 53 0c16 0 31 -1 48 -4c6 -5 10 -13 18 -20c-12 -8 -28 -5 -38 -5c-15 -3 -28 -3 -44 -3c-12 -4 -25 -4 -40 -4c-8 -32 -2 -62 -15 -93h-20c-6 -2 -8 -4 -13 -7c-13 -3 -28 0 -38 10c-5 7 -12 9 -20 7
c-3 6 -3 11 -3 16h-2c0 -5 2 -10 5 -16zM222 254c3 13 3 25 3 40c-8 0 -16 0 -23 -2c-10 -21 -10 -21 -8 -46c12 0 12 0 28 8zM103 332c2 6 2 13 2 21c6 -11 2 -15 -2 -21zM113 378v0c0 -5 -2 -7 0 0z" />
    <glyph glyph-name="dieresis" unicode="&#xa8;" horiz-adv-x="306" 
d="M22 607c-8 26 -3 44 10 61c7 0 16 3 23 6c18 -6 35 -14 54 -20c15 -6 20 -19 20 -34c-3 -10 -3 -17 -11 -26c-22 -7 -45 9 -69 -4c-10 4 -20 13 -27 17zM197 590c-10 4 -18 7 -28 9c-2 8 -8 16 -11 21c3 13 7 22 16 31c11 0 23 4 33 3c10 0 19 -8 28 0
c13 -8 23 -14 30 -19c6 -15 0 -25 -7 -36c-16 -6 -28 -5 -41 -2c-7 -3 -15 -4 -20 -7z" />
    <glyph glyph-name="circumflex" unicode="&#x2c6;" horiz-adv-x="278" 
d="M27 558c-7 4 -7 4 -18 14c8 21 23 34 34 50c7 18 17 36 25 52c13 9 23 7 33 4c3 3 7 3 10 5c10 0 22 -2 31 -5c38 -40 72 -81 108 -121c-12 -19 -36 0 -43 -19c-22 4 -33 20 -47 32c-14 13 -27 24 -41 37c-11 -4 -15 -14 -21 -22c-7 -6 -14 -13 -17 -15
c-21 -3 -36 -5 -54 -12z" />
    <glyph glyph-name="acute" unicode="&#xb4;" horiz-adv-x="188" 
d="M121 607c-5 -8 -10 -14 -14 -22c-8 -11 -13 -20 -19 -33c-20 0 -40 13 -60 2c-6 8 -11 16 -18 23c12 36 28 71 48 106c5 11 10 20 25 29c18 -5 38 -13 59 -18c7 -13 6 -26 6 -39v0c-9 0 -9 -7 -9 -13v4c-4 -4 -4 -8 -4 -13v0c-6 -3 -8 -7 -8 -13h2c-8 -2 -8 -7 -8 -13z
M121 590v17v0c8 3 8 8 8 13h-2c8 2 8 8 8 13v0c4 2 4 7 4 13v-4c5 4 9 9 9 13v0c4 8 9 13 14 21c6 -2 6 -5 2 -10c-9 -26 -22 -53 -43 -76c-9 -14 0 -14 0 0z" />
    <glyph glyph-name="tilde" unicode="&#x2dc;" horiz-adv-x="325" 
d="M271 577c-3 -10 -13 -12 -23 -15c-15 -5 -29 -8 -42 -5c-16 1 -32 1 -47 1c-25 0 -46 14 -61 35c-2 4 -8 10 -12 14c-10 -13 -10 -28 -16 -42c-2 -3 -6 -7 -13 -7c-16 7 -37 -4 -53 12c-8 9 -4 20 -4 33c2 17 9 37 16 55c9 13 16 23 34 29c54 -4 104 -19 135 -72
c5 5 10 7 12 13c9 12 16 26 21 38c5 8 10 17 15 28c5 -3 7 -5 13 -7c2 2 5 4 9 9c16 -2 32 -5 46 -15c-2 -23 -12 -46 -20 -66c-2 -8 -7 -18 -10 -25v0c-4 -3 -3 -7 0 -13zM23 585c0 0 -3 0 -3 -2l3 2v0zM271 590c5 3 10 3 12 4v0c-2 -7 -4 -11 -12 -17v0v13zM283 594
c0 3 4 5 0 3c4 2 4 0 0 -3z" />
    <glyph glyph-name="cedilla" unicode="&#xb8;" horiz-adv-x="267" 
d="M172 -81c-14 -19 -32 -22 -54 -22h-25c-36 0 -68 22 -89 50c-5 0 -5 3 -5 7c5 0 7 4 11 4c15 0 29 3 40 3c18 0 32 4 47 11c7 7 11 15 13 22c4 15 4 21 -2 32c-8 4 -8 -4 -15 -4c-14 -4 -14 12 -21 19c-4 0 -8 -4 -11 -4c-8 4 -19 7 -26 11c0 22 15 79 26 115
c3 4 11 7 18 11c14 -11 29 -18 39 -36c-4 -19 -4 -40 -8 -61c16 -10 26 -17 41 -26c25 -10 38 -33 43 -57c4 -25 -5 -50 -14 -72v0s-4 -3 -8 -3zM129 -85l4 4c18 3 18 3 21 21c-3 -3 -3 -3 -7 -3c-7 -8 -11 -15 -14 -18zM104 -78h-4s0 -3 4 -3v3z" />
    <glyph glyph-name="percent" unicode="%" horiz-adv-x="447" 
d="M242 279c0 -28 -7 -53 -15 -79h-8c0 -10 3 -21 3 -30h-7c-4 -33 -11 -66 -13 -99c-3 -30 -5 -64 0 -94c-5 -10 -8 -18 -23 -18c-10 5 -21 12 -31 21c-7 17 -7 35 -7 52c5 86 17 174 38 257c18 84 48 163 79 242c7 20 14 36 22 55c12 8 21 0 25 -10c6 0 14 -2 19 -5
c2 -5 2 -8 2 -10c-5 -14 -7 -28 -14 -43c-17 -54 -36 -107 -54 -163c-4 -7 -6 -15 -8 -23v-23h-6c-2 -10 8 -20 -2 -30c0 2 0 5 0 2c-2 3 0 0 0 -2zM235 264l-4 -3h4v3zM73 400c-19 5 -36 13 -52 18c-13 23 -22 41 -25 64c0 15 3 31 5 43c4 36 13 69 33 99c3 7 7 13 12 20
c6 5 11 7 16 13h23s15 0 20 -2c20 -11 38 -20 56 -31c15 -9 22 -25 22 -45c0 -21 -1 -39 -7 -59c-7 -30 -20 -56 -35 -82c-7 -9 -16 -20 -23 -25c-18 -4 -31 -10 -45 -13zM67 474c33 28 46 61 54 100c0 5 0 12 -3 20c0 2 -3 2 -5 5h-8c-23 -36 -38 -79 -38 -125zM333 -3
c-21 6 -34 10 -50 12c-16 6 -20 21 -23 34c-6 46 0 86 18 127c7 16 17 23 34 17c19 -1 36 -8 55 -13c38 -7 55 -29 50 -68c-5 -30 -15 -58 -35 -83c-15 -16 -22 -20 -49 -26zM328 81c16 25 18 35 11 53c-3 0 -6 -2 -6 -2c-2 -18 -2 -36 -5 -51zM258 574c0 -7 -4 -11 -6 -16
c-14 -40 -30 -79 -46 -120c-23 -61 -32 -126 -48 -192c-15 -69 -22 -137 -28 -208c0 -20 4 -41 4 -64c-9 -7 -12 8 -19 6c0 -6 0 -9 -2 -13c0 2 -4 2 -4 2c-4 26 -1 54 -1 79c1 56 7 111 17 167c11 41 21 79 31 120c23 74 50 147 84 216c4 10 10 16 12 28c2 -3 6 -3 6 -5z
" />
    <glyph glyph-name="zero" unicode="0" horiz-adv-x="348" 
d="M108 554c8 3 13 8 20 11c13 -7 29 -11 44 -16c-46 -72 -53 -149 -60 -226c-7 -43 -7 -86 0 -129c1 -24 4 -44 14 -65c8 0 11 7 15 12c39 50 64 108 77 169c2 18 4 38 7 57c3 35 -3 73 -10 108c0 11 -3 21 -3 31v0c3 -8 6 -13 10 -20c0 38 -13 79 -27 101
c-6 -8 0 -15 0 -20v0c-8 10 -15 23 -23 32c-11 0 -18 -2 -26 -2v0c0 2 0 9 2 13c6 18 16 25 34 28c7 2 18 2 30 4c3 -2 10 -4 18 -4c33 -8 51 -25 63 -53c16 -39 26 -79 31 -120c10 -83 3 -167 -27 -248c-16 -36 -34 -72 -59 -101c-8 -11 -18 -23 -29 -32
c-25 -25 -58 -32 -90 -25c-16 3 -31 8 -46 13c-22 8 -43 23 -51 45c-7 16 -10 33 -16 48c-2 19 -4 34 -4 49c0 51 -3 99 4 147c11 55 26 109 54 161c11 14 18 30 39 40c1 -4 6 -5 13 -8c-4 0 -4 -2 -4 -2v2zM192 165l3 3c2 2 2 9 5 13c5 0 5 5 5 10c7 3 7 8 7 13
c3 5 8 10 10 15c39 88 54 181 36 274c-5 29 -15 53 -23 81l-13 13c3 -15 6 -22 8 -30c5 -31 15 -61 18 -93c10 -82 0 -161 -30 -238c-3 -7 -3 -15 -6 -22c-3 -5 -4 -7 -4 -13c-3 -3 -6 -7 -8 -13c-3 -1 -3 -8 -5 -10zM85 506c0 3 3 5 0 3c0 2 0 0 0 -3c-5 -2 -5 -8 -5 -13
c-4 -7 -9 -16 -13 -23c-25 -81 -37 -164 -32 -248c0 -31 3 -64 16 -93c0 -1 2 -6 2 -9c2 0 5 -3 7 -4c-9 40 -13 75 -13 113c0 84 8 165 31 246v18c7 3 7 8 7 13zM228 468h-3v-20h3v20zM174 610l3 -3l3 3h-6zM205 529l3 2c-11 11 -13 23 -13 36v0c10 -10 13 -22 10 -38z
M212 506c-7 7 -4 16 -4 25l-3 -2c10 -5 7 -16 7 -23zM146 597c0 -3 0 -3 -2 -3c0 0 2 0 2 3z" />
    <glyph glyph-name="one" unicode="1" horiz-adv-x="277" 
d="M29 415c-4 0 -10 1 -17 1c-5 9 -10 16 -16 24c3 5 6 10 8 12c56 46 99 105 137 163c15 20 30 39 51 53c10 -2 20 -5 32 -5c7 -8 16 -12 24 -21c10 -12 12 -27 10 -45c-26 -91 -41 -182 -51 -276c-12 -90 -17 -180 -15 -275c0 -14 0 -30 7 -43c13 -9 25 6 39 0v-23h22
c13 -7 11 -18 11 -27c-6 -3 -8 -8 -11 -8c-16 -3 -28 -6 -43 -6c-43 0 -86 3 -129 -1h-34c-2 4 -6 10 -12 15c-5 0 -10 2 -17 5c-6 7 -11 15 -16 22c3 11 10 14 18 16c21 0 41 2 63 4h54c0 11 -6 19 -10 26c-16 15 -21 33 -21 54c-2 20 -2 40 -2 61c0 68 0 134 7 200
c4 33 13 66 18 102v21c-5 -7 -10 -9 -14 -12c-13 -12 -29 -25 -45 -37c-12 -11 -25 -15 -43 -13c-2 5 -5 7 -5 13v1v-1zM100 34v2c-10 10 -2 26 0 39v-41z" />
    <glyph glyph-name="two" unicode="2" horiz-adv-x="526" 
d="M176 34c8 2 16 5 23 5c74 25 149 43 226 54c33 4 43 4 81 -6c0 -3 0 -7 3 -10c-3 -2 -5 -5 -5 -5c-20 -5 -41 -8 -64 -13c-101 -20 -201 -48 -295 -88c-14 -6 -28 -11 -41 -16c-12 3 -27 5 -39 10c-6 10 -10 21 -16 31c3 4 3 13 6 18c-6 2 -10 5 -16 7c-5 0 -10 0 -15 2
c-3 6 -5 11 -8 18c-5 -7 -9 -12 -15 -18c-7 11 0 13 3 18c17 21 35 41 52 61c41 43 82 89 122 133c3 4 11 7 16 12l3 -2s2 2 4 2l-2 -2c2 2 5 4 7 7v0c4 3 6 6 6 6v0c2 2 5 4 7 7v0s3 2 5 5v0c2 2 6 5 9 8l-3 -3c3 3 5 5 7 8v0c2 2 2 2 5 4v0c64 64 125 129 171 209
c-45 5 -90 -12 -171 -67c-7 3 -16 3 -23 6c0 10 3 15 3 22c-10 7 -21 13 -28 18c-8 18 -5 34 7 43c49 49 105 76 174 79c16 0 34 -4 50 -18c15 -12 31 -22 40 -37c28 -41 39 -85 21 -130c-8 -23 -21 -44 -36 -64c-23 -29 -46 -61 -71 -88c-43 -49 -85 -96 -129 -143
c-5 -4 -11 -12 -20 -22c17 5 28 7 41 10c43 8 85 18 129 24c17 4 36 4 56 4c5 0 12 -4 20 -5c0 -8 2 -12 2 -19c-5 -2 -8 -4 -10 -4c-89 -8 -173 -28 -258 -53c-9 -4 -18 -6 -26 -11c-3 0 -6 -5 -8 -7v0v0zM92 59l-2 -2l2 2c3 3 5 3 5 5l3 3l-3 -3c-2 0 -2 -2 -5 -5z
M133 107v-2v2c3 2 5 2 7 6c3 3 5 4 5 7c4 0 6 3 8 5c0 3 3 4 5 4c3 4 6 7 6 9c1 3 5 3 8 5c2 2 2 5 4 5l8 8c0 2 2 2 5 5s5 4 5 7h3h-3c-2 -3 -2 -4 -5 -7c-3 0 -5 -3 -8 -5c0 -3 -3 -6 -5 -6c-2 -2 -4 -5 -4 -7c-3 0 -7 -2 -8 -5c-3 -2 -3 -5 -6 -5c-2 -4 -5 -5 -5 -8
c-2 -2 -4 -2 -8 -5c-2 -3 -2 -4 -5 -7c-2 0 -4 -4 -7 -6zM334 524c5 2 12 5 18 5c23 2 45 7 65 9c-22 7 -45 4 -65 -9c-6 -3 -11 -3 -18 -5c-3 0 -3 -2 -3 0c0 -2 0 0 3 0zM242 300v-13v0c-3 -2 -3 -2 -5 -4v0c-2 -3 -4 -5 -7 -8l3 3c-3 -3 -7 -6 -9 -8v0c-2 -3 -5 -5 -5 -5
v0c-2 -3 -5 -5 -7 -7v0s-2 -3 -6 -6v0c-2 -3 -5 -5 -7 -7l2 2c-2 -2 -4 -2 -4 -2l-3 2c12 20 30 36 48 53zM262 319h-2l2 2v-2zM260 319h2c-2 -3 -4 -3 -7 -6v0c3 3 5 6 5 6zM250 306l-3 1c3 0 6 3 8 6v0c-2 -3 -2 -6 -5 -7zM247 307l3 -1c-3 0 -5 -3 -8 -6v0c3 3 5 6 5 7z
" />
    <glyph glyph-name="three" unicode="3" horiz-adv-x="414" 
d="M109 506c-2 0 -2 3 -5 5c3 11 10 15 19 23c27 23 57 40 88 56c7 4 18 7 25 13c31 12 58 10 84 -10c7 -6 15 -10 22 -19c4 -4 6 -12 6 -17c-2 -28 -2 -56 -13 -82c-18 -38 -38 -73 -61 -107c-5 -9 -13 -14 -15 -27c8 -2 15 -2 20 -6c56 -7 96 -45 110 -98
c7 -28 7 -56 5 -84c0 -15 -7 -30 -19 -44c-12 -22 -29 -41 -48 -54c-66 -55 -139 -84 -223 -93c-15 0 -30 -2 -42 6h-3c3 0 5 3 9 3c-13 15 -27 25 -33 48v15c-5 5 -9 12 -12 12c-13 13 -29 9 -33 22c3 7 4 9 11 16c0 -7 0 -12 2 -17c3 0 4 0 10 -3c2 8 8 13 13 20
c7 3 15 3 22 5c7 -5 16 -9 20 -14h10c41 7 77 25 113 45c6 5 15 13 25 13c0 -5 -3 -10 -5 -16c-5 0 -7 -1 -14 -4v-4v4c7 3 11 0 14 7h7c38 21 74 45 102 81c2 5 6 10 10 18c-4 3 -10 6 -15 7c-2 -4 -5 -7 -8 -12c-20 -30 -46 -56 -75 -76c-3 -2 -12 -5 -16 -9
c4 7 10 14 16 19c17 16 35 33 53 49c7 9 14 17 14 32c-5 2 -7 2 -12 6c-28 2 -51 -6 -79 -10c-11 -3 -23 -6 -36 -3h3c-7 13 -7 27 -20 40c-7 10 -7 23 0 36c-10 0 -19 -2 -23 -2v0c0 7 11 10 16 14c9 6 17 13 22 23c34 56 66 115 99 171c5 7 8 12 10 22c-7 5 -14 3 -23 0
c-10 -2 -20 -8 -30 -8c-38 -22 -78 -45 -119 -70c-7 2 -18 7 -29 17c4 19 22 25 29 41c2 3 5 3 7 5c5 5 11 7 18 13c3 2 3 5 4 7c7 0 9 3 14 5c5 0 7 2 13 6v3v-3c-6 -4 -8 -6 -13 -8c-2 0 -7 -3 -14 -5c0 -3 -1 -3 -4 -5c-7 0 -16 -6 -18 -13zM180 554l-3 -2c3 0 3 2 3 2
c5 3 8 3 13 4l3 4l-3 -4c-5 0 -9 -1 -13 -4zM224 572c2 2 8 5 9 5c19 2 34 8 52 13c-18 0 -36 -3 -49 -13c-4 0 -10 0 -12 -5c-4 0 -6 -2 -4 0c-2 -2 0 0 4 0zM246 275c19 3 35 3 53 3c-18 5 -34 9 -53 -3h-14v-5c4 2 9 5 14 5zM84 21c20 -7 41 0 59 8c-18 -3 -39 -6 -59 -8
zM299 384h3c3 10 8 20 13 31c18 33 36 66 50 107c0 -11 3 -13 0 -18c-12 -43 -32 -81 -63 -117zM294 371v3c3 2 5 8 5 10h3c-3 -2 -5 -8 -8 -13zM172 222h3s-3 0 -3 -3v3zM294 374v-3v0v3z" />
    <glyph glyph-name="four" unicode="4" horiz-adv-x="490" 
d="M188 628v-2c8 7 15 14 26 25c30 4 45 -16 66 -36c0 -12 2 -22 2 -32v-6c-26 -93 -43 -190 -81 -281c-7 -16 -13 -34 -23 -57c7 3 10 6 13 6c41 17 84 33 126 42c11 6 23 9 33 13v0v0c0 21 3 41 14 61c0 -2 -3 -7 4 -13c-3 6 -4 11 -4 13c0 10 -3 21 4 28v2v-23
c6 6 8 8 10 12c0 -16 -2 -32 -4 -47c0 -12 -9 -27 -2 -43c9 0 12 6 12 13c2 16 4 30 7 45c13 64 26 127 38 190c0 14 3 24 10 34c26 2 28 -20 46 -27c2 -14 0 -27 -2 -39c-3 -18 -8 -36 -11 -51c-2 -20 -5 -39 -2 -61c2 -23 -3 -48 -5 -73c-13 -99 -28 -198 -41 -298
c-2 -25 -2 -48 -5 -75c-6 -6 -15 -10 -22 -16c-16 10 -33 21 -49 28c-5 15 -3 28 -3 40c11 75 19 148 29 222c0 3 -2 4 -2 9c-4 0 -8 -2 -11 -2c-11 -25 -11 -55 -13 -84c-5 -28 -8 -56 -10 -86c-2 -27 -5 -56 -7 -84c-8 -2 -14 0 -14 5c-1 8 -1 18 0 29c6 59 14 120 19 182
c2 8 2 18 2 28c-10 -2 -21 -5 -29 -8c-47 -17 -95 -41 -141 -66c-26 -16 -55 -29 -83 -45c-13 16 -34 16 -47 33h-28c-2 5 -4 12 -10 20c6 12 8 28 13 41c36 89 72 177 113 267c4 9 9 20 14 29c22 36 35 77 51 117c3 3 3 8 3 11c-3 2 -3 4 -6 10zM462 387v9v0v-9v0zM458 359
v2h-3zM361 326h-3v-3zM183 613l-3 2c3 -12 -2 -22 -12 -30h3c0 9 3 21 12 28zM374 415h2v20c5 -8 5 -15 -2 -20zM386 468v2c0 -6 0 -13 -2 -22c-6 9 0 16 2 20zM368 391v-2c4 11 0 18 8 26h-2c0 -8 2 -19 -6 -24zM386 470v-2c2 5 2 9 2 13h3c0 -6 -3 -8 -5 -11zM399 511
c0 -2 -2 -7 -2 -13c0 3 -3 3 -3 3c3 3 5 8 5 10c2 5 5 13 7 18h-2c0 -5 -3 -13 -5 -18zM180 615l3 -2c-3 7 0 9 5 13v2c0 -6 0 -10 -8 -13zM168 585h3c-3 -2 -3 -6 -3 -2c0 -4 0 0 0 2zM406 529h-2l2 2c0 3 0 0 0 -2z" />
    <glyph glyph-name="five" unicode="5" horiz-adv-x="401" 
d="M243 296h3c-8 0 -14 2 -19 4c-48 -13 -90 -38 -126 -69c-13 6 -8 14 -8 21h3h-3c-8 -5 -13 -10 -20 -15c-16 0 -20 15 -33 21v0c2 7 4 17 9 27c-9 11 -7 25 -2 41c15 70 26 142 51 210c-2 9 -5 13 -5 21c0 1 3 5 3 5c81 23 157 53 235 71c11 2 23 -5 41 -11
c13 -4 36 -12 41 -37c-30 -27 -86 -47 -228 -89c0 -3 -3 -6 -6 -8c-4 -45 -10 -92 -17 -140c9 0 17 0 24 3c37 3 67 -3 97 -20c18 -10 36 -18 51 -33c41 -43 55 -94 49 -150c-11 -64 -36 -122 -77 -173c-11 -13 -23 -22 -38 -33c-15 -12 -36 -17 -56 -15c-23 0 -46 0 -68 8
c-10 4 -23 4 -39 4c5 3 11 3 16 6c-5 8 -13 10 -18 15c-25 18 -46 38 -63 63c-16 23 -25 49 -32 77c-1 2 0 7 0 13c12 7 19 7 29 3c10 -21 10 -48 28 -68c4 19 -16 34 0 54c4 -5 11 -7 13 -9c5 -11 7 -21 12 -29c11 -28 26 -50 47 -70c7 -6 14 -11 22 -19c23 8 39 25 51 44
c25 36 43 78 53 122c5 23 5 45 5 68v30v0c2 -2 5 -4 5 -8c3 -25 3 -53 -3 -78c0 -10 0 -17 -2 -28c-2 -2 -2 -8 -5 -9c3 0 5 0 5 1v8c0 3 2 3 5 4c13 39 18 80 13 120c-3 13 -7 23 -10 36c-3 2 -6 8 -10 11c-3 2 -7 4 -13 4c-3 0 -6 -4 -10 -4zM286 21v2c2 3 5 9 5 13
c8 0 8 5 8 10c2 6 9 9 9 13c11 25 21 50 32 77c4 22 7 45 7 68c-3 10 -3 21 -11 31c-2 -6 -2 -9 -2 -10c2 -55 -10 -105 -28 -153c-2 -8 -5 -17 -7 -26c-4 -5 -5 -7 -5 -12c-3 -2 -6 -8 -6 -13h-2zM144 509h-7c-11 -21 -44 -163 -47 -193c11 3 13 12 13 17
c13 51 23 99 36 148c2 9 2 17 5 28zM40 380c-3 -26 -13 -73 -23 -97c-2 20 4 36 7 50c6 15 6 31 16 47zM268 239c-8 10 -9 23 -12 39v-3c10 -10 14 -20 12 -36zM1 46h3c-8 9 -8 16 -3 22v-22zM256 275v3c-9 2 -10 9 -10 18h-3c10 -6 13 -11 13 -21zM40 380v11
c2 -2 2 -2 4 -2c-2 -2 -4 -7 -4 -9zM-5 89v-2v0v2zM4 46h-3c3 -2 6 -7 7 -12v2c-4 0 -4 5 -4 10z" />
    <glyph glyph-name="six" unicode="6" horiz-adv-x="314" 
d="M142 464c-6 -14 -10 -24 -16 -37c-35 -72 -66 -144 -84 -223c-7 -30 -17 -63 -16 -97v-12c19 144 75 273 145 398c18 31 39 59 67 84c5 2 10 6 18 8s12 2 22 5c10 -13 33 -7 44 -28c-31 -20 -49 -53 -66 -85c-31 -54 -56 -113 -76 -174c4 -3 9 -5 11 -5
c25 -2 45 -13 65 -20c25 -13 41 -31 35 -61c-3 -23 -5 -47 -13 -69c-7 -41 -26 -80 -48 -114c-20 -31 -46 -56 -75 -74c-16 2 -29 2 -45 5c-2 0 -4 -3 -7 -3v0c-2 3 -7 11 -12 11c-20 2 -33 15 -49 23c-20 13 -29 30 -36 50c-5 22 -5 49 -2 71c6 44 15 87 31 125
c25 71 52 138 88 201c5 7 9 18 19 21zM128 39v2c4 3 4 5 6 5c2 2 5 6 8 9l4 4l18 18c31 46 48 97 59 152c2 6 0 13 0 20c-7 6 -16 11 -23 16v-28c-9 18 -16 28 -33 30c-21 -56 -33 -114 -41 -172c-3 -11 -5 -20 0 -36c43 48 58 105 74 166c7 -14 4 -24 3 -34
c-8 -41 -23 -75 -44 -109c-4 -7 -8 -15 -13 -23c-2 -2 -2 -4 -4 -7c-3 0 -6 -4 -8 -6c0 -2 -2 -2 -6 -5v-2zM212 572c-2 -7 -9 -10 -17 -14v0c5 9 9 12 17 14c4 0 5 2 4 0c1 2 0 0 -4 0zM142 464c0 4 2 6 4 11v0c-2 -5 -2 -7 -4 -11zM182 549v-3v0v3zM182 546v3c2 0 5 3 7 5
v0c-2 -2 -5 -5 -7 -8zM189 554c0 3 2 4 6 4v0c-4 -1 -4 -1 -6 -4z" />
    <glyph glyph-name="seven" unicode="7" horiz-adv-x="353" 
d="M157 -45c-2 0 -4 -2 -7 -7c-8 7 -16 12 -20 17c-11 3 -21 6 -29 8c-7 13 -15 21 -20 30c-5 11 -8 23 -8 33c0 26 -2 53 0 81c3 33 12 67 16 100v9c-23 5 -40 -12 -69 -4c0 3 -8 7 -12 13c2 4 2 7 4 10c5 2 13 7 18 10c16 5 34 10 51 15c8 8 15 15 24 20
c29 78 63 158 93 236h-18c-21 -8 -41 -13 -61 -15c-34 -2 -68 2 -102 23c-5 8 -12 18 -20 28c0 5 4 10 6 15h7c48 -12 97 -5 143 16c27 10 53 22 78 33c10 7 20 14 32 22c13 6 32 10 47 15c20 -8 17 -25 23 -41c-6 -4 -9 -12 -13 -19c-10 -49 -23 -94 -38 -142
c-13 -41 -26 -81 -35 -122c-6 -11 -8 -23 0 -36c25 3 48 4 73 4c7 -7 15 -14 20 -20c0 -9 -7 -7 -10 -7c-35 -8 -69 -13 -102 -18c-14 -37 -55 -236 -60 -307h-11c0 5 -2 10 -2 18c0 -2 -2 -2 -2 -2c2 -6 2 -11 4 -16zM206 245c-6 -6 -6 -10 -3 -23c0 13 3 17 3 23
c0 2 2 4 0 2c2 2 0 0 0 -2zM193 191c-7 -7 -2 -21 -5 -30c-6 -5 -8 -11 -2 -20c0 9 0 15 2 20c7 9 5 20 5 30c5 6 7 13 2 20c0 -7 0 -14 -2 -20zM162 29c-3 -10 -3 -13 -3 -15v-5h3v20zM168 59h-2v-13h2v13zM173 95v-13v0v13v0zM178 113h2v12h-2v-12z" />
    <glyph glyph-name="eight" unicode="8" horiz-adv-x="378" 
d="M384 607c10 -13 13 -30 10 -45c0 -20 -2 -38 -8 -56c-17 -79 -41 -152 -73 -223c-5 -11 -11 -23 -13 -34c-2 -10 -2 -20 -5 -30h-25c-8 -10 -11 -20 -11 -31c-5 -38 -20 -71 -38 -104c-20 -29 -43 -58 -68 -84c-18 -14 -30 -20 -59 -22c-12 5 -27 10 -42 10
c-11 3 -21 6 -31 8c-15 20 -20 43 -17 66c2 18 4 38 9 58c23 66 51 132 89 190c10 21 26 38 41 58c-8 8 -13 19 -18 28c-28 47 -28 92 -2 138c35 60 91 101 156 124c12 2 23 2 34 2c7 0 15 -2 20 -5c12 -15 30 -25 46 -37c2 -3 2 -8 5 -12c0 0 -3 -3 0 0c0 -3 0 0 0 1z
M349 407c-4 -7 -6 -13 -6 -20c-7 -3 -7 -11 -7 -19c-8 -7 -11 -17 -13 -27c-8 -10 -10 -20 -10 -31c-2 -4 -5 -7 -7 -12c-4 -5 -4 -13 -6 -18h-2h2c6 5 6 13 6 18c5 2 5 8 5 12c9 9 12 18 12 31c10 7 13 18 13 30c7 3 4 11 4 18c9 5 5 11 9 18c0 2 2 2 0 2v-2zM325 615
c-2 3 -5 3 -5 3c-5 0 -7 0 -9 -3c-61 -22 -110 -61 -138 -122c-18 -36 -15 -70 3 -104c13 -25 31 -45 45 -68c3 -2 6 0 6 0c20 47 43 95 64 143c15 34 27 70 34 106c3 15 6 29 0 45zM186 310c-49 -63 -107 -213 -99 -258c68 64 107 139 114 233c-3 8 -7 15 -15 25zM356 432
v-3h3z" />
    <glyph glyph-name="nine" unicode="9" horiz-adv-x="396" 
d="M328 567c-10 3 -20 -5 -31 3c-6 0 -14 -3 -22 -3c-3 -2 -5 -5 -8 -9c-31 -32 -53 -72 -72 -113c-27 -63 -45 -129 -52 -198v-18v-12c7 -3 10 5 16 8c36 42 71 91 98 143c20 39 38 82 51 125c3 8 5 16 10 23c13 -3 28 0 41 -12c-3 -11 -3 -20 -6 -34c6 -2 11 -5 16 -6v-3
v-32c0 -14 -5 -33 4 -45c3 -4 3 -13 3 -17c3 -48 3 -97 -4 -145c-10 -58 -21 -117 -44 -174c-4 -14 -10 -29 -17 -45c-3 -5 -8 -9 -14 -15v0c4 10 6 21 8 31c8 7 10 17 10 27c9 6 9 13 9 21c4 5 4 10 4 17c8 5 5 16 5 23c3 6 5 9 5 13h-2v-13c-8 -5 -5 -14 -8 -23
c-7 -4 -4 -12 -4 -17c-9 -5 -9 -12 -6 -21c-10 -7 -15 -17 -13 -30c-10 -13 -22 -28 -33 -41c-2 -4 -5 -10 -7 -13c-29 -35 -63 -48 -104 -43c-15 3 -28 11 -40 20c-27 23 -41 64 -36 102c2 0 7 3 13 3c9 -3 16 -8 27 -10c13 -31 9 -69 48 -89c6 3 13 5 18 10
c16 13 25 28 36 45c17 32 30 64 40 100c10 43 21 88 28 131c2 8 2 16 0 24c-4 -10 -10 -18 -15 -26c-15 -32 -33 -64 -56 -88c-13 -16 -29 -28 -49 -32c-20 4 -42 7 -68 8c3 0 0 0 -2 0c-16 -1 -30 -4 -45 6c-19 10 -36 22 -44 42c-12 36 -18 70 -12 105
c10 78 30 155 65 226c13 28 31 56 52 81c12 16 27 29 42 41c31 24 61 24 97 10c20 -8 37 -22 55 -35c9 -6 13 -16 13 -26zM219 174v3c3 0 5 1 8 4s3 3 4 5c3 5 5 8 5 13c4 2 7 5 8 5c3 5 3 10 6 13c10 2 13 9 13 18c17 20 40 63 45 86c0 2 -3 5 -3 5c-2 0 -4 -3 -4 -3
c-13 -25 -24 -51 -36 -76c-2 -5 -2 -8 -2 -12c-9 -4 -11 -10 -13 -18c-3 -6 -3 -8 -6 -13c-1 -3 -4 -3 -8 -5c0 -5 -2 -8 -5 -13c0 -2 -1 -5 -4 -5c-3 -3 -5 -4 -8 -7v0zM231 562v-4c-1 0 -4 -1 -4 -4c-3 -2 -5 -2 -8 -5c0 -4 -3 -7 -5 -13c-3 -2 -5 -5 -5 -5
c-7 -5 -14 -9 -14 -18c-4 -2 -6 -7 -4 -12c-12 -5 -16 -17 -20 -26c-37 -68 -53 -142 -66 -215c-3 -21 -3 -41 -3 -61c0 -5 3 -11 3 -18c5 3 7 5 7 5v40c9 90 31 174 70 251c1 9 4 16 7 24c6 3 6 8 6 12c9 3 12 11 12 18c2 3 4 3 7 5c2 6 2 9 5 13l5 5c3 3 6 4 7 8v0z
M369 300v-20v0v20v0zM340 141c4 0 4 0 4 -3c0 5 2 7 2 10h-2c0 -3 0 -5 -4 -7zM356 201v8v0v-8v0zM364 245h-2v-8h2v8zM351 178l-2 -4c0 -4 0 -4 2 -6v10z" />
    <glyph glyph-name="D" unicode="D" horiz-adv-x="501" 
d="M509 546c10 -38 15 -79 9 -119c-14 -102 -53 -194 -112 -281c-37 -50 -86 -85 -139 -112c-38 -18 -79 -29 -122 -32c-11 -1 -23 1 -35 2c-9 0 -17 1 -27 2c-5 3 -10 8 -15 11c-13 2 -25 4 -37 7c-4 1 -7 4 -10 6h17c0 10 -7 14 -12 20c-8 10 -13 20 -7 36
c6 -2 10 -4 15 -6c5 3 12 5 16 8c17 -12 32 -23 48 -33c21 -2 41 5 62 12c6 2 12 6 19 8c-4 12 -15 8 -20 11c-7 3 -14 4 -20 6c-10 7 -21 15 -31 24c-7 8 -8 21 -9 34c1 41 2 82 8 123c11 94 31 187 61 279c2 6 3 13 5 23c-22 -8 -29 -28 -46 -39c-12 5 -24 8 -31 17
c-6 12 7 24 1 35c-3 -2 -5 -4 -6 -6c-2 -2 -5 -4 -7 -6l-2 -1l1 1c2 2 6 5 8 7c1 2 3 4 5 5h1c2 4 3 9 5 11c44 41 93 73 152 87c86 20 215 -16 255 -140zM376 636c-1 4 -3 6 -7 1c2 0 5 0 7 -1zM383 251c0 3 1 5 2 7c-2 -2 -5 -3 -2 -7zM386 260c6 4 7 9 7 15
c-2 -5 -5 -10 -7 -15zM392 313h2l-1 1zM394 279c14 14 18 32 21 50c-12 -15 -16 -33 -21 -50zM399 332c2 0 2 -1 3 -1c1 4 1 6 2 10c-1 -3 -3 -6 -5 -9zM444 427c10 46 8 91 -6 135c-4 14 -11 26 -18 38c-9 18 -25 29 -43 36c0 -4 -1 -8 -2 -12c-14 8 -27 15 -43 22
c-18 -4 -36 -3 -53 -13c3 -9 7 -17 10 -25c-4 -28 -10 -55 -16 -83c-6 -34 -16 -67 -22 -101c-13 -81 -26 -161 -38 -242c-4 -25 -7 -50 2 -74c1 -1 -1 -5 -1 -7c-5 -8 -21 -5 -18 -20c13 3 24 11 36 18c39 26 69 60 94 99c47 76 78 157 92 242c4 16 3 32 3 48
c-2 20 -3 39 -4 58c-8 9 -11 19 -10 30c-7 4 -9 11 -10 18c-7 5 -10 10 -11 18c7 -3 11 -10 11 -18c7 -4 10 -10 11 -18c6 -9 10 -18 10 -30c0 -2 2 -4 3 -6c8 -43 9 -86 -1 -130l-15 -66c5 5 10 10 13 15c0 -9 -1 -18 -2 -27c2 3 4 5 6 9c10 28 17 57 22 86zM119 -8l1 1h36
l-1 -1h-36zM7 38c-4 3 -3 4 -2 21c4 -9 9 -19 14 -28c-4 2 -9 3 -12 7zM19 31h1s1 0 1 -1h-1zM419 361c-1 -1 -1 -1 -1 -2v0v1zM420 377c5 -6 4 -11 -1 -16c0 6 0 10 1 16z" />
    <glyph glyph-name="Agrave" unicode="&#xc0;" horiz-adv-x="415" 
d="M404 51c4 -21 10 -40 15 -61c-8 -8 -8 -8 -24 -8c-13 9 -29 16 -48 7c-8 -3 -17 0 -27 0c-8 5 -12 15 -15 25c-7 29 -16 59 -22 89c-6 31 -9 63 -14 95c0 2 -1 5 -3 10c-41 6 -80 -9 -118 -11c-13 -8 -15 -19 -18 -29c-15 -38 -29 -77 -43 -115c-3 -9 -7 -18 -12 -28
c-8 -1 -16 -2 -25 -4c-2 3 -4 6 -7 8c-7 -4 -15 -2 -21 3c-8 10 2 18 1 29c-3 1 -5 2 -9 6c4 17 10 35 14 53c5 18 17 34 14 55c-14 9 -25 -9 -39 -3c-1 5 -3 12 -4 18c17 21 43 21 65 33c9 22 18 45 26 69c43 112 86 224 129 335c5 14 10 28 20 40c6 7 8 17 12 26
s7 17 11 26c25 5 44 -14 65 -14c10 -10 19 -19 29 -30c2 -8 3 -18 3 -28c3 -42 6 -85 8 -128c3 -74 4 -148 8 -221c5 -83 12 -166 29 -247zM47 123v3h-1zM164 246c26 0 81 9 100 15c0 4 -1 7 -2 12c-25 6 -49 -8 -79 0c30 5 53 8 79 13v217c-2 -1 -3 -1 -4 -1
c-32 -84 -64 -167 -96 -251v-3s2 -1 2 -2zM415 758c-7 -4 -14 -6 -20 -12c-7 3 -12 6 -17 8c-8 -5 -15 -9 -23 -16c-12 4 -23 8 -38 14c-8 6 -15 18 -25 27c-26 34 -46 69 -67 104c-4 8 -10 18 0 29c8 2 21 4 31 7c8 -3 16 -7 22 -10c16 7 29 -2 36 -15
c23 -31 46 -61 69 -91c10 -13 21 -29 32 -45z" />
    <glyph glyph-name="Aacute" unicode="&#xc1;" horiz-adv-x="415" 
d="M404 51c4 -21 10 -40 15 -61c-8 -8 -8 -8 -24 -8c-13 9 -29 16 -48 7c-8 -3 -17 0 -27 0c-8 5 -12 15 -15 25c-7 29 -16 59 -22 89c-6 31 -9 63 -14 95c0 2 -1 5 -3 10c-41 6 -80 -9 -118 -11c-13 -8 -15 -19 -18 -29c-15 -38 -29 -77 -43 -115c-3 -9 -7 -18 -12 -28
c-8 -1 -16 -2 -25 -4c-2 3 -4 6 -7 8c-7 -4 -15 -2 -21 3c-8 10 2 18 1 29c-3 1 -5 2 -9 6c4 17 10 35 14 53c5 18 17 34 14 55c-14 9 -25 -9 -39 -3c-1 5 -3 12 -4 18c17 21 43 21 65 33c9 22 18 45 26 69c43 112 86 224 129 335c5 14 10 28 20 40c6 7 8 17 12 26
s7 17 11 26c25 5 44 -14 65 -14c10 -10 19 -19 29 -30c2 -8 3 -18 3 -28c3 -42 6 -85 8 -128c3 -74 4 -148 8 -221c5 -83 12 -166 29 -247zM47 123v3h-1zM164 246c26 0 81 9 100 15c0 4 -1 7 -2 12c-25 6 -49 -8 -79 0c30 5 53 8 79 13v217c-2 -1 -3 -1 -4 -1
c-32 -84 -64 -167 -96 -251v-3s2 -1 2 -2zM356 807c-5 -8 -10 -14 -14 -22c-8 -11 -13 -20 -19 -33c-20 0 -40 13 -60 2c-6 8 -11 16 -18 23c12 36 28 71 48 106c5 11 10 20 25 29c18 -5 38 -13 59 -18c7 -13 6 -26 6 -39v0c-9 0 -9 -7 -9 -13v4c-4 -4 -4 -8 -4 -13v0
c-6 -3 -8 -7 -8 -13h2c-8 -2 -8 -7 -8 -13zM356 790v17v0c8 3 8 8 8 13h-2c8 2 8 8 8 13v0c4 2 4 7 4 13v-4c5 4 9 9 9 13v0c4 8 9 13 14 21c6 -2 6 -5 2 -10c-9 -26 -22 -53 -43 -76c-9 -14 0 -14 0 0z" />
    <glyph glyph-name="Acircumflex" unicode="&#xc2;" horiz-adv-x="415" 
d="M404 51c4 -21 10 -40 15 -61c-8 -8 -8 -8 -24 -8c-13 9 -29 16 -48 7c-8 -3 -17 0 -27 0c-8 5 -12 15 -15 25c-7 29 -16 59 -22 89c-6 31 -9 63 -14 95c0 2 -1 5 -3 10c-41 6 -80 -9 -118 -11c-13 -8 -15 -19 -18 -29c-15 -38 -29 -77 -43 -115c-3 -9 -7 -18 -12 -28
c-8 -1 -16 -2 -25 -4c-2 3 -4 6 -7 8c-7 -4 -15 -2 -21 3c-8 10 2 18 1 29c-3 1 -5 2 -9 6c4 17 10 35 14 53c5 18 17 34 14 55c-14 9 -25 -9 -39 -3c-1 5 -3 12 -4 18c17 21 43 21 65 33c9 22 18 45 26 69c43 112 86 224 129 335c5 14 10 28 20 40c6 7 8 17 12 26
s7 17 11 26c25 5 44 -14 65 -14c10 -10 19 -19 29 -30c2 -8 3 -18 3 -28c3 -42 6 -85 8 -128c3 -74 4 -148 8 -221c5 -83 12 -166 29 -247zM47 123v3h-1zM164 246c26 0 81 9 100 15c0 4 -1 7 -2 12c-25 6 -49 -8 -79 0c30 5 53 8 79 13v217c-2 -1 -3 -1 -4 -1
c-32 -84 -64 -167 -96 -251v-3s2 -1 2 -2zM219 758c-7 4 -7 4 -18 14c8 21 23 34 34 50c7 18 17 36 25 52c13 9 23 7 33 4c3 3 7 3 10 5c10 0 22 -2 31 -5c38 -40 72 -81 108 -121c-12 -19 -36 0 -43 -19c-22 4 -33 20 -47 32c-14 13 -27 24 -41 37c-11 -4 -15 -14 -21 -22
c-7 -6 -14 -13 -17 -15c-21 -3 -36 -5 -54 -12z" />
    <glyph glyph-name="Atilde" unicode="&#xc3;" horiz-adv-x="415" 
d="M404 51c4 -21 10 -40 15 -61c-8 -8 -8 -8 -24 -8c-13 9 -29 16 -48 7c-8 -3 -17 0 -27 0c-8 5 -12 15 -15 25c-7 29 -16 59 -22 89c-6 31 -9 63 -14 95c0 2 -1 5 -3 10c-41 6 -80 -9 -118 -11c-13 -8 -15 -19 -18 -29c-15 -38 -29 -77 -43 -115c-3 -9 -7 -18 -12 -28
c-8 -1 -16 -2 -25 -4c-2 3 -4 6 -7 8c-7 -4 -15 -2 -21 3c-8 10 2 18 1 29c-3 1 -5 2 -9 6c4 17 10 35 14 53c5 18 17 34 14 55c-14 9 -25 -9 -39 -3c-1 5 -3 12 -4 18c17 21 43 21 65 33c9 22 18 45 26 69c43 112 86 224 129 335c5 14 10 28 20 40c6 7 8 17 12 26
s7 17 11 26c25 5 44 -14 65 -14c10 -10 19 -19 29 -30c2 -8 3 -18 3 -28c3 -42 6 -85 8 -128c3 -74 4 -148 8 -221c5 -83 12 -166 29 -247zM47 123v3h-1zM164 246c26 0 81 9 100 15c0 4 -1 7 -2 12c-25 6 -49 -8 -79 0c30 5 53 8 79 13v217c-2 -1 -3 -1 -4 -1
c-32 -84 -64 -167 -96 -251v-3s2 -1 2 -2zM430 777c-3 -10 -13 -12 -23 -15c-15 -5 -29 -8 -42 -5c-16 1 -32 1 -47 1c-25 0 -46 14 -61 35c-2 4 -8 10 -12 14c-10 -13 -10 -28 -16 -42c-2 -3 -6 -7 -13 -7c-16 7 -37 -4 -53 12c-8 9 -4 20 -4 33c2 17 9 37 16 55
c9 13 16 23 34 29c54 -4 104 -19 135 -72c5 5 10 7 12 13c9 12 16 26 21 38c5 8 10 17 15 28c5 -3 7 -5 13 -7c2 2 5 4 9 9c16 -2 32 -5 46 -15c-2 -23 -12 -46 -20 -66c-2 -8 -7 -18 -10 -25v0c-4 -3 -3 -7 0 -13zM182 785c0 0 -3 0 -3 -2l3 2v0zM430 790c5 3 10 3 12 4v0
c-2 -7 -4 -11 -12 -17v0v13zM442 794c0 3 4 5 0 3c4 2 4 0 0 -3z" />
    <glyph glyph-name="Adieresis" unicode="&#xc4;" horiz-adv-x="415" 
d="M404 51c4 -21 10 -40 15 -61c-8 -8 -8 -8 -24 -8c-13 9 -29 16 -48 7c-8 -3 -17 0 -27 0c-8 5 -12 15 -15 25c-7 29 -16 59 -22 89c-6 31 -9 63 -14 95c0 2 -1 5 -3 10c-41 6 -80 -9 -118 -11c-13 -8 -15 -19 -18 -29c-15 -38 -29 -77 -43 -115c-3 -9 -7 -18 -12 -28
c-8 -1 -16 -2 -25 -4c-2 3 -4 6 -7 8c-7 -4 -15 -2 -21 3c-8 10 2 18 1 29c-3 1 -5 2 -9 6c4 17 10 35 14 53c5 18 17 34 14 55c-14 9 -25 -9 -39 -3c-1 5 -3 12 -4 18c17 21 43 21 65 33c9 22 18 45 26 69c43 112 86 224 129 335c5 14 10 28 20 40c6 7 8 17 12 26
s7 17 11 26c25 5 44 -14 65 -14c10 -10 19 -19 29 -30c2 -8 3 -18 3 -28c3 -42 6 -85 8 -128c3 -74 4 -148 8 -221c5 -83 12 -166 29 -247zM47 123v3h-1zM164 246c26 0 81 9 100 15c0 4 -1 7 -2 12c-25 6 -49 -8 -79 0c30 5 53 8 79 13v217c-2 -1 -3 -1 -4 -1
c-32 -84 -64 -167 -96 -251v-3s2 -1 2 -2zM201 807c-8 26 -3 44 10 61c7 0 16 3 23 6c18 -6 35 -14 54 -20c15 -6 20 -19 20 -34c-3 -10 -3 -17 -11 -26c-22 -7 -45 9 -69 -4c-10 4 -20 13 -27 17zM376 790c-10 4 -18 7 -28 9c-2 8 -8 16 -11 21c3 13 7 22 16 31
c11 0 23 4 33 3c10 0 19 -8 28 0c13 -8 23 -14 30 -19c6 -15 0 -25 -7 -36c-16 -6 -28 -5 -41 -2c-7 -3 -15 -4 -20 -7z" />
    <glyph glyph-name="Aring" unicode="&#xc5;" horiz-adv-x="415" 
d="M404 51c4 -21 10 -40 15 -61c-8 -8 -8 -8 -24 -8c-13 9 -29 16 -48 7c-8 -3 -17 0 -27 0c-8 5 -12 15 -15 25c-7 29 -16 59 -22 89c-6 31 -9 63 -14 95c0 2 -1 5 -3 10c-41 6 -80 -9 -118 -11c-13 -8 -15 -19 -18 -29c-15 -38 -29 -77 -43 -115c-3 -9 -7 -18 -12 -28
c-8 -1 -16 -2 -25 -4c-2 3 -4 6 -7 8c-7 -4 -15 -2 -21 3c-8 10 2 18 1 29c-3 1 -5 2 -9 6c4 17 10 35 14 53c5 18 17 34 14 55c-14 9 -25 -9 -39 -3c-1 5 -3 12 -4 18c17 21 43 21 65 33c9 22 18 45 26 69c43 112 86 224 129 335c5 14 10 28 20 40c6 7 8 17 12 26
s7 17 11 26c25 5 44 -14 65 -14c10 -10 19 -19 29 -30c2 -8 3 -18 3 -28c3 -42 6 -85 8 -128c3 -74 4 -148 8 -221c5 -83 12 -166 29 -247zM47 123v3h-1zM164 246c26 0 81 9 100 15c0 4 -1 7 -2 12c-25 6 -49 -8 -79 0c30 5 53 8 79 13v217c-2 -1 -3 -1 -4 -1
c-32 -84 -64 -167 -96 -251v-3s2 -1 2 -2zM347 738c-17 14 -37 7 -61 11c-2 0 -7 3 -12 5c-38 29 -51 72 -25 114c12 23 28 44 55 51c22 18 43 10 69 8c53 -11 66 -53 68 -94c0 -5 0 -11 -2 -15c-7 -51 -36 -73 -92 -80zM351 891c-21 -15 -32 -33 -36 -58
c-3 -20 0 -39 18 -56c20 16 29 33 32 56c2 21 2 41 -14 58z" />
    <glyph glyph-name="Egrave" unicode="&#xc8;" horiz-adv-x="436" 
d="M419 634c5 -14 12 -27 7 -44c-7 -2 -14 -3 -24 -5c6 -6 12 -10 17 -15c-2 0 -4 -3 -5 -3c-6 -2 -12 -2 -18 -2c-44 3 -89 7 -133 8h-31c-11 -23 -13 -49 -20 -73c-4 -26 -7 -52 -11 -76c-3 -25 -12 -48 -12 -75c8 -2 14 -3 19 -3h73c24 1 47 0 71 -6c3 -4 5 -9 9 -14
c-6 -3 -9 -6 -13 -9h-155c8 -6 18 -6 29 -6c38 1 77 1 114 1c10 0 19 5 30 -4c3 -10 1 -20 -3 -31c-32 -2 -61 -4 -92 -6c-30 -1 -62 -3 -89 -3c-10 -11 -10 -23 -12 -32c-9 -105 -9 -139 -3 -169c10 0 18 0 26 1c40 8 79 14 120 20c15 2 33 2 50 2c22 0 25 -2 42 -22v-3
c-2 -3 -3 -4 -6 -8c4 -4 8 -8 11 -15c-2 -3 -5 -6 -7 -9v-15c-4 0 -5 -2 -7 -2c-25 5 -50 0 -76 -7c-54 -13 -112 -18 -168 -26c-32 -5 -66 -8 -100 -14c-13 -1 -27 0 -41 11c0 3 0 6 2 13c-9 10 -14 22 -6 36c15 12 24 1 39 12c-22 74 8 164 5 252c-3 24 3 48 6 71
c9 58 22 113 37 169c2 5 2 9 5 12c0 2 -3 4 -3 7c-10 1 -18 3 -29 7c-13 18 -13 38 -6 60c8 11 21 12 35 15c14 6 27 8 38 17v0v2v0c7 16 12 35 25 48c13 6 26 6 38 0c21 -12 38 -21 50 -43c24 -2 48 -2 72 -4c24 0 47 -1 69 -3c10 -5 20 -11 31 -17zM57 293v7h-2v-7h2z
M197 340h-4l1 -2zM150 65c0 3 -12 116 3 205l-6 -13s-19 -157 3 -203v11zM208 567c10 28 -5 18 -5 18s-44 -169 -50 -226l9 11s36 169 46 197zM318 758c-7 -4 -14 -6 -20 -12c-7 3 -12 6 -17 8c-8 -5 -15 -9 -23 -16c-12 4 -23 8 -38 14c-8 6 -15 18 -25 27
c-26 34 -46 69 -67 104c-4 8 -10 18 0 29c8 2 21 4 31 7c8 -3 16 -7 22 -10c16 7 29 -2 36 -15c23 -31 46 -61 69 -91c10 -13 21 -29 32 -45z" />
    <glyph glyph-name="Eacute" unicode="&#xc9;" horiz-adv-x="436" 
d="M419 634c5 -14 12 -27 7 -44c-7 -2 -14 -3 -24 -5c6 -6 12 -10 17 -15c-2 0 -4 -3 -5 -3c-6 -2 -12 -2 -18 -2c-44 3 -89 7 -133 8h-31c-11 -23 -13 -49 -20 -73c-4 -26 -7 -52 -11 -76c-3 -25 -12 -48 -12 -75c8 -2 14 -3 19 -3h73c24 1 47 0 71 -6c3 -4 5 -9 9 -14
c-6 -3 -9 -6 -13 -9h-155c8 -6 18 -6 29 -6c38 1 77 1 114 1c10 0 19 5 30 -4c3 -10 1 -20 -3 -31c-32 -2 -61 -4 -92 -6c-30 -1 -62 -3 -89 -3c-10 -11 -10 -23 -12 -32c-9 -105 -9 -139 -3 -169c10 0 18 0 26 1c40 8 79 14 120 20c15 2 33 2 50 2c22 0 25 -2 42 -22v-3
c-2 -3 -3 -4 -6 -8c4 -4 8 -8 11 -15c-2 -3 -5 -6 -7 -9v-15c-4 0 -5 -2 -7 -2c-25 5 -50 0 -76 -7c-54 -13 -112 -18 -168 -26c-32 -5 -66 -8 -100 -14c-13 -1 -27 0 -41 11c0 3 0 6 2 13c-9 10 -14 22 -6 36c15 12 24 1 39 12c-22 74 8 164 5 252c-3 24 3 48 6 71
c9 58 22 113 37 169c2 5 2 9 5 12c0 2 -3 4 -3 7c-10 1 -18 3 -29 7c-13 18 -13 38 -6 60c8 11 21 12 35 15c14 6 27 8 38 17v0v2v0c7 16 12 35 25 48c13 6 26 6 38 0c21 -12 38 -21 50 -43c24 -2 48 -2 72 -4c24 0 47 -1 69 -3c10 -5 20 -11 31 -17zM57 293v7h-2v-7h2z
M197 340h-4l1 -2zM150 65c0 3 -12 116 3 205l-6 -13s-19 -157 3 -203v11zM208 567c10 28 -5 18 -5 18s-44 -169 -50 -226l9 11s36 169 46 197zM250 807c-5 -8 -10 -14 -14 -22c-8 -11 -13 -20 -19 -33c-20 0 -40 13 -60 2c-6 8 -11 16 -18 23c12 36 28 71 48 106
c5 11 10 20 25 29c18 -5 38 -13 59 -18c7 -13 6 -26 6 -39v0c-9 0 -9 -7 -9 -13v4c-4 -4 -4 -8 -4 -13v0c-6 -3 -8 -7 -8 -13h2c-8 -2 -8 -7 -8 -13zM250 790v17v0c8 3 8 8 8 13h-2c8 2 8 8 8 13v0c4 2 4 7 4 13v-4c5 4 9 9 9 13v0c4 8 9 13 14 21c6 -2 6 -5 2 -10
c-9 -26 -22 -53 -43 -76c-9 -14 0 -14 0 0z" />
    <glyph glyph-name="Ecircumflex" unicode="&#xca;" horiz-adv-x="436" 
d="M419 634c5 -14 12 -27 7 -44c-7 -2 -14 -3 -24 -5c6 -6 12 -10 17 -15c-2 0 -4 -3 -5 -3c-6 -2 -12 -2 -18 -2c-44 3 -89 7 -133 8h-31c-11 -23 -13 -49 -20 -73c-4 -26 -7 -52 -11 -76c-3 -25 -12 -48 -12 -75c8 -2 14 -3 19 -3h73c24 1 47 0 71 -6c3 -4 5 -9 9 -14
c-6 -3 -9 -6 -13 -9h-155c8 -6 18 -6 29 -6c38 1 77 1 114 1c10 0 19 5 30 -4c3 -10 1 -20 -3 -31c-32 -2 -61 -4 -92 -6c-30 -1 -62 -3 -89 -3c-10 -11 -10 -23 -12 -32c-9 -105 -9 -139 -3 -169c10 0 18 0 26 1c40 8 79 14 120 20c15 2 33 2 50 2c22 0 25 -2 42 -22v-3
c-2 -3 -3 -4 -6 -8c4 -4 8 -8 11 -15c-2 -3 -5 -6 -7 -9v-15c-4 0 -5 -2 -7 -2c-25 5 -50 0 -76 -7c-54 -13 -112 -18 -168 -26c-32 -5 -66 -8 -100 -14c-13 -1 -27 0 -41 11c0 3 0 6 2 13c-9 10 -14 22 -6 36c15 12 24 1 39 12c-22 74 8 164 5 252c-3 24 3 48 6 71
c9 58 22 113 37 169c2 5 2 9 5 12c0 2 -3 4 -3 7c-10 1 -18 3 -29 7c-13 18 -13 38 -6 60c8 11 21 12 35 15c14 6 27 8 38 17v0v2v0c7 16 12 35 25 48c13 6 26 6 38 0c21 -12 38 -21 50 -43c24 -2 48 -2 72 -4c24 0 47 -1 69 -3c10 -5 20 -11 31 -17zM57 293v7h-2v-7h2z
M197 340h-4l1 -2zM150 65c0 3 -12 116 3 205l-6 -13s-19 -157 3 -203v11zM208 567c10 28 -5 18 -5 18s-44 -169 -50 -226l9 11s36 169 46 197zM115 758c-7 4 -7 4 -18 14c8 21 23 34 34 50c7 18 17 36 25 52c13 9 23 7 33 4c3 3 7 3 10 5c10 0 22 -2 31 -5
c38 -40 72 -81 108 -121c-12 -19 -36 0 -43 -19c-22 4 -33 20 -47 32c-14 13 -27 24 -41 37c-11 -4 -15 -14 -21 -22c-7 -6 -14 -13 -17 -15c-21 -3 -36 -5 -54 -12z" />
    <glyph glyph-name="Edieresis" unicode="&#xcb;" horiz-adv-x="436" 
d="M419 634c5 -14 12 -27 7 -44c-7 -2 -14 -3 -24 -5c6 -6 12 -10 17 -15c-2 0 -4 -3 -5 -3c-6 -2 -12 -2 -18 -2c-44 3 -89 7 -133 8h-31c-11 -23 -13 -49 -20 -73c-4 -26 -7 -52 -11 -76c-3 -25 -12 -48 -12 -75c8 -2 14 -3 19 -3h73c24 1 47 0 71 -6c3 -4 5 -9 9 -14
c-6 -3 -9 -6 -13 -9h-155c8 -6 18 -6 29 -6c38 1 77 1 114 1c10 0 19 5 30 -4c3 -10 1 -20 -3 -31c-32 -2 -61 -4 -92 -6c-30 -1 -62 -3 -89 -3c-10 -11 -10 -23 -12 -32c-9 -105 -9 -139 -3 -169c10 0 18 0 26 1c40 8 79 14 120 20c15 2 33 2 50 2c22 0 25 -2 42 -22v-3
c-2 -3 -3 -4 -6 -8c4 -4 8 -8 11 -15c-2 -3 -5 -6 -7 -9v-15c-4 0 -5 -2 -7 -2c-25 5 -50 0 -76 -7c-54 -13 -112 -18 -168 -26c-32 -5 -66 -8 -100 -14c-13 -1 -27 0 -41 11c0 3 0 6 2 13c-9 10 -14 22 -6 36c15 12 24 1 39 12c-22 74 8 164 5 252c-3 24 3 48 6 71
c9 58 22 113 37 169c2 5 2 9 5 12c0 2 -3 4 -3 7c-10 1 -18 3 -29 7c-13 18 -13 38 -6 60c8 11 21 12 35 15c14 6 27 8 38 17v0v2v0c7 16 12 35 25 48c13 6 26 6 38 0c21 -12 38 -21 50 -43c24 -2 48 -2 72 -4c24 0 47 -1 69 -3c10 -5 20 -11 31 -17zM57 293v7h-2v-7h2z
M197 340h-4l1 -2zM150 65c0 3 -12 116 3 205l-6 -13s-19 -157 3 -203v11zM208 567c10 28 -5 18 -5 18s-44 -169 -50 -226l9 11s36 169 46 197zM97 807c-8 26 -3 44 10 61c7 0 16 3 23 6c18 -6 35 -14 54 -20c15 -6 20 -19 20 -34c-3 -10 -3 -17 -11 -26c-22 -7 -45 9 -69 -4
c-10 4 -20 13 -27 17zM272 790c-10 4 -18 7 -28 9c-2 8 -8 16 -11 21c3 13 7 22 16 31c11 0 23 4 33 3c10 0 19 -8 28 0c13 -8 23 -14 30 -19c6 -15 0 -25 -7 -36c-16 -6 -28 -5 -41 -2c-7 -3 -15 -4 -20 -7z" />
    <glyph glyph-name="Igrave" unicode="&#xcc;" horiz-adv-x="312" 
d="M417 682c3 -5 7 -12 10 -16c-1 -11 -8 -15 -15 -17c-16 -5 -32 -10 -49 -15c-16 -5 -33 -9 -49 -13l-33 -12c-11 -23 -12 -46 -13 -70c3 9 7 19 12 31c0 -8 1 -16 0 -22c-21 -114 -41 -229 -60 -344c-6 -32 -10 -65 -14 -97c8 -16 21 -23 35 -29c1 -4 2 -7 4 -12
c5 -2 13 -4 19 -9c3 -2 5 -7 8 -12c-6 -3 -11 -7 -16 -7c-53 -7 -105 -16 -157 -28c-11 -3 -22 -2 -33 -3c-6 7 -13 12 -20 19c-7 1 -16 1 -26 1c-7 8 -15 15 -24 24c18 29 50 20 73 35c1 69 24 134 42 199c24 89 52 177 78 264c2 10 5 20 9 34c-12 -4 -20 -6 -29 -8
c-19 -7 -37 -8 -51 11c-11 2 -21 2 -31 3c-5 5 -10 10 -14 17c2 3 2 7 4 8c10 6 18 11 27 15c54 26 109 47 166 64c15 5 30 9 45 15c-1 9 -6 8 -9 6c-45 -14 -90 -30 -134 -46c-17 -6 -35 -14 -53 -22c-7 -1 -14 -2 -21 -4c17 10 34 20 51 29c52 25 106 44 160 63
c11 3 23 7 37 1c-5 -7 -8 -13 -12 -19c12 -10 23 -1 37 -2c13 -13 33 -14 46 -32zM260 509c1 5 1 7 1 9c0 1 -1 1 -1 1v-10zM265 589c1 4 2 9 3 12c-18 -25 -54 -181 -102 -426c-5 -23 -11 -46 -11 -72c2 2 4 2 4 3c31 162 68 322 106 483zM95 640l1 2h2c0 0 -1 -1 -2 -1z
M339 779c-7 -4 -14 -6 -20 -12c-7 3 -12 6 -17 8c-8 -5 -15 -9 -23 -16c-12 4 -23 8 -38 14c-8 6 -15 18 -25 27c-26 34 -46 69 -67 104c-4 8 -10 18 0 29c8 2 21 4 31 7c8 -3 16 -7 22 -10c16 7 29 -2 36 -15c23 -31 46 -61 69 -91c10 -13 21 -29 32 -45z" />
    <glyph glyph-name="Icircumflex" unicode="&#xce;" horiz-adv-x="312" 
d="M417 682c3 -5 7 -12 10 -16c-1 -11 -8 -15 -15 -17c-16 -5 -32 -10 -49 -15c-16 -5 -33 -9 -49 -13l-33 -12c-11 -23 -12 -46 -13 -70c3 9 7 19 12 31c0 -8 1 -16 0 -22c-21 -114 -41 -229 -60 -344c-6 -32 -10 -65 -14 -97c8 -16 21 -23 35 -29c1 -4 2 -7 4 -12
c5 -2 13 -4 19 -9c3 -2 5 -7 8 -12c-6 -3 -11 -7 -16 -7c-53 -7 -105 -16 -157 -28c-11 -3 -22 -2 -33 -3c-6 7 -13 12 -20 19c-7 1 -16 1 -26 1c-7 8 -15 15 -24 24c18 29 50 20 73 35c1 69 24 134 42 199c24 89 52 177 78 264c2 10 5 20 9 34c-12 -4 -20 -6 -29 -8
c-19 -7 -37 -8 -51 11c-11 2 -21 2 -31 3c-5 5 -10 10 -14 17c2 3 2 7 4 8c10 6 18 11 27 15c54 26 109 47 166 64c15 5 30 9 45 15c-1 9 -6 8 -9 6c-45 -14 -90 -30 -134 -46c-17 -6 -35 -14 -53 -22c-7 -1 -14 -2 -21 -4c17 10 34 20 51 29c52 25 106 44 160 63
c11 3 23 7 37 1c-5 -7 -8 -13 -12 -19c12 -10 23 -1 37 -2c13 -13 33 -14 46 -32zM260 509c1 5 1 7 1 9c0 1 -1 1 -1 1v-10zM265 589c1 4 2 9 3 12c-18 -25 -54 -181 -102 -426c-5 -23 -11 -46 -11 -72c2 2 4 2 4 3c31 162 68 322 106 483zM95 640l1 2h2c0 0 -1 -1 -2 -1z
M174 775c-7 4 -7 4 -18 14c8 21 23 34 34 50c7 18 17 36 25 52c13 9 23 7 33 4c3 3 7 3 10 5c10 0 22 -2 31 -5c38 -40 72 -81 108 -121c-12 -19 -36 0 -43 -19c-22 4 -33 20 -47 32c-14 13 -27 24 -41 37c-11 -4 -15 -14 -21 -22c-7 -6 -14 -13 -17 -15
c-21 -3 -36 -5 -54 -12z" />
    <glyph glyph-name="Iacute" unicode="&#xcd;" horiz-adv-x="312" 
d="M417 682c3 -5 7 -12 10 -16c-1 -11 -8 -15 -15 -17c-16 -5 -32 -10 -49 -15c-16 -5 -33 -9 -49 -13l-33 -12c-11 -23 -12 -46 -13 -70c3 9 7 19 12 31c0 -8 1 -16 0 -22c-21 -114 -41 -229 -60 -344c-6 -32 -10 -65 -14 -97c8 -16 21 -23 35 -29c1 -4 2 -7 4 -12
c5 -2 13 -4 19 -9c3 -2 5 -7 8 -12c-6 -3 -11 -7 -16 -7c-53 -7 -105 -16 -157 -28c-11 -3 -22 -2 -33 -3c-6 7 -13 12 -20 19c-7 1 -16 1 -26 1c-7 8 -15 15 -24 24c18 29 50 20 73 35c1 69 24 134 42 199c24 89 52 177 78 264c2 10 5 20 9 34c-12 -4 -20 -6 -29 -8
c-19 -7 -37 -8 -51 11c-11 2 -21 2 -31 3c-5 5 -10 10 -14 17c2 3 2 7 4 8c10 6 18 11 27 15c54 26 109 47 166 64c15 5 30 9 45 15c-1 9 -6 8 -9 6c-45 -14 -90 -30 -134 -46c-17 -6 -35 -14 -53 -22c-7 -1 -14 -2 -21 -4c17 10 34 20 51 29c52 25 106 44 160 63
c11 3 23 7 37 1c-5 -7 -8 -13 -12 -19c12 -10 23 -1 37 -2c13 -13 33 -14 46 -32zM260 509c1 5 1 7 1 9c0 1 -1 1 -1 1v-10zM265 589c1 4 2 9 3 12c-18 -25 -54 -181 -102 -426c-5 -23 -11 -46 -11 -72c2 2 4 2 4 3c31 162 68 322 106 483zM95 640l1 2h2c0 0 -1 -1 -2 -1z
M285 807c-5 -8 -10 -14 -14 -22c-8 -11 -13 -20 -19 -33c-20 0 -40 13 -60 2c-6 8 -11 16 -18 23c12 36 28 71 48 106c5 11 10 20 25 29c18 -5 38 -13 59 -18c7 -13 6 -26 6 -39v0c-9 0 -9 -7 -9 -13v4c-4 -4 -4 -8 -4 -13v0c-6 -3 -8 -7 -8 -13h2c-8 -2 -8 -7 -8 -13z
M285 790v17v0c8 3 8 8 8 13h-2c8 2 8 8 8 13v0c4 2 4 7 4 13v-4c5 4 9 9 9 13v0c4 8 9 13 14 21c6 -2 6 -5 2 -10c-9 -26 -22 -53 -43 -76c-9 -14 0 -14 0 0z" />
    <glyph glyph-name="Idieresis" unicode="&#xcf;" horiz-adv-x="312" 
d="M417 682c3 -5 7 -12 10 -16c-1 -11 -8 -15 -15 -17c-16 -5 -32 -10 -49 -15c-16 -5 -33 -9 -49 -13l-33 -12c-11 -23 -12 -46 -13 -70c3 9 7 19 12 31c0 -8 1 -16 0 -22c-21 -114 -41 -229 -60 -344c-6 -32 -10 -65 -14 -97c8 -16 21 -23 35 -29c1 -4 2 -7 4 -12
c5 -2 13 -4 19 -9c3 -2 5 -7 8 -12c-6 -3 -11 -7 -16 -7c-53 -7 -105 -16 -157 -28c-11 -3 -22 -2 -33 -3c-6 7 -13 12 -20 19c-7 1 -16 1 -26 1c-7 8 -15 15 -24 24c18 29 50 20 73 35c1 69 24 134 42 199c24 89 52 177 78 264c2 10 5 20 9 34c-12 -4 -20 -6 -29 -8
c-19 -7 -37 -8 -51 11c-11 2 -21 2 -31 3c-5 5 -10 10 -14 17c2 3 2 7 4 8c10 6 18 11 27 15c54 26 109 47 166 64c15 5 30 9 45 15c-1 9 -6 8 -9 6c-45 -14 -90 -30 -134 -46c-17 -6 -35 -14 -53 -22c-7 -1 -14 -2 -21 -4c17 10 34 20 51 29c52 25 106 44 160 63
c11 3 23 7 37 1c-5 -7 -8 -13 -12 -19c12 -10 23 -1 37 -2c13 -13 33 -14 46 -32zM260 509c1 5 1 7 1 9c0 1 -1 1 -1 1v-10zM265 589c1 4 2 9 3 12c-18 -25 -54 -181 -102 -426c-5 -23 -11 -46 -11 -72c2 2 4 2 4 3c31 162 68 322 106 483zM95 640l1 2h2c0 0 -1 -1 -2 -1z
M149 807c-8 26 -3 44 10 61c7 0 16 3 23 6c18 -6 35 -14 54 -20c15 -6 20 -19 20 -34c-3 -10 -3 -17 -11 -26c-22 -7 -45 9 -69 -4c-10 4 -20 13 -27 17zM324 790c-10 4 -18 7 -28 9c-2 8 -8 16 -11 21c3 13 7 22 16 31c11 0 23 4 33 3c10 0 19 -8 28 0c13 -8 23 -14 30 -19
c6 -15 0 -25 -7 -36c-16 -6 -28 -5 -41 -2c-7 -3 -15 -4 -20 -7z" />
    <glyph glyph-name="Ntilde" unicode="&#xd1;" horiz-adv-x="508" 
d="M414 552c4 9 10 18 14 28l36 69c5 7 10 15 16 22c4 5 7 9 9 12h38v-21c10 -1 11 12 22 12c8 -3 15 -11 21 -20c0 -5 -1 -10 -2 -15c5 -3 8 -5 13 -6c4 -11 -1 -19 -5 -27c-14 -40 -30 -80 -47 -120c-33 -83 -59 -169 -77 -257c-8 -45 -15 -90 -14 -136v-18
c10 -11 17 -20 25 -30c-3 -6 -6 -13 -10 -18c-4 -7 -10 -14 -15 -21v-1c-1 4 -2 8 -2 11h-8c-1 -3 -2 -7 -3 -11l1 1c-9 12 -20 21 -36 23c-4 -1 -9 -2 -15 -3c-32 10 -63 20 -66 78c-51 103 -101 201 -130 309c-1 4 -4 8 -6 12c0 3 0 7 -1 11c-1 0 -2 0 -4 -1
c2 -3 4 -7 6 -9c0 -18 -4 -33 -9 -50c-4 -17 -5 -35 -7 -53c-6 -41 -11 -81 -15 -122c-4 -46 -7 -93 -11 -139v-13c-8 -14 -15 -27 -24 -41c-7 8 -14 16 -23 24c-4 -5 -9 -8 -14 -14c-10 2 -20 4 -28 6c-11 6 -20 13 -32 21c-2 5 -5 15 -6 23c-5 50 -3 99 3 149
c4 28 7 55 10 83h-1c9 8 4 20 7 30v-1c9 22 11 46 16 69c18 68 35 135 62 201c7 17 14 36 29 52c9 3 19 5 26 7c21 1 37 -7 52 -16c12 -9 25 -19 42 -24c7 -50 15 -99 28 -146c14 -48 29 -96 46 -147c14 23 13 47 24 66c3 -1 5 -1 9 -1c14 44 29 88 44 132l-1 -1
c8 9 12 20 13 31v0zM305 187c1 -3 2 -5 1 -2c2 -2 0 -1 -1 1c0 6 1 13 -5 17l-7 7c2 12 -3 21 -7 32c-9 25 -20 49 -30 74c-26 77 -43 156 -53 237c0 3 2 9 -5 11c-7 -13 -6 -25 -3 -38c7 -36 13 -71 22 -106c17 -72 43 -142 76 -210c3 -2 5 -4 7 -6c0 -6 -1 -14 5 -17z
M384 233c-8 -11 -7 -23 -3 -34c1 11 1 23 2 34c4 6 5 12 2 17c-1 -5 -1 -11 -1 -17zM369 87c1 0 3 -1 5 -1c0 2 1 5 3 10c-5 -4 -7 -6 -8 -9zM401 521l1 1c-7 -8 -12 -16 -19 -24v-1c1 17 7 31 19 42l-1 1v-19zM300 49c-11 10 -3 22 -2 33c0 -11 1 -22 2 -34v1zM12 300h-1
c-1 -10 4 -21 -6 -30v0c2 10 -2 21 7 30zM330 29h-1c-5 -2 -9 -6 -16 -10c-2 4 -5 8 -8 11v-1h25zM5 270v-24c-5 9 -5 17 0 24zM17 300h1h-7h1c0 10 -2 21 6 29l-1 1v-30zM18 329c0 6 1 11 1 17c1 1 2 1 3 1c0 -6 1 -12 2 -18v1h-7zM300 49v-1c6 -5 6 -11 5 -19v1
c-7 4 -5 11 -5 19zM402 539l-1 1c2 3 4 8 6 12v0c-2 -5 -3 -9 -5 -13zM176 380l1 -2h-1v2zM438 5v1c-5 -6 -9 -6 -12 0l-1 -1h13zM407 552h7v0h-7zM330 29h-1l1 1v-1zM383 498v-1l-1 -1zM431 777c-3 -10 -13 -12 -23 -15c-15 -5 -29 -8 -42 -5c-16 1 -32 1 -47 1
c-25 0 -46 14 -61 35c-2 4 -8 10 -12 14c-10 -13 -10 -28 -16 -42c-2 -3 -6 -7 -13 -7c-16 7 -37 -4 -53 12c-8 9 -4 20 -4 33c2 17 9 37 16 55c9 13 16 23 34 29c54 -4 104 -19 135 -72c5 5 10 7 12 13c9 12 16 26 21 38c5 8 10 17 15 28c5 -3 7 -5 13 -7c2 2 5 4 9 9
c16 -2 32 -5 46 -15c-2 -23 -12 -46 -20 -66c-2 -8 -7 -18 -10 -25v0c-4 -3 -3 -7 0 -13zM183 785c0 0 -3 0 -3 -2l3 2v0zM431 790c5 3 10 3 12 4v0c-2 -7 -4 -11 -12 -17v0v13zM443 794c0 3 4 5 0 3c4 2 4 0 0 -3z" />
    <glyph glyph-name="Ograve" unicode="&#xd2;" 
d="M264 138h1c-11 -10 -21 -20 -33 -30c-20 -16 -43 -24 -69 -24c-8 0 -16 0 -23 -1c-3 0 -6 -2 -9 -4c4 -7 9 -14 13 -19v0c-9 5 -18 11 -31 18c-16 2 -36 10 -55 20c-21 10 -36 28 -44 50c-9 21 -13 44 -14 67c-3 50 5 99 15 148c3 17 9 32 7 50c-1 5 3 12 5 17
c16 49 40 94 75 132c9 10 16 22 20 36c13 35 39 59 77 68c19 3 38 3 57 -1c67 -20 116 -59 129 -134c10 -58 7 -117 -9 -174c-18 -70 -49 -135 -86 -196c-4 -7 -9 -11 -13 -17v-1h-7l1 1c-2 -2 -4 -4 -7 -6zM301 270l-1 -1h1c1 3 2 5 1 3c1 2 0 0 -1 -2zM312 301
c6 1 5 6 6 11c7 4 7 12 7 18c3 6 8 13 10 20c11 32 17 66 22 100c5 41 -3 81 -12 120c-2 9 -7 18 -12 27c-2 3 -6 6 -13 13c3 -11 4 -15 6 -20c13 -31 17 -64 18 -98c3 -45 -3 -89 -14 -133c-3 -10 -3 -20 -5 -29c-8 -5 -6 -12 -6 -18l-6 -12c-1 -2 -3 -4 -1 -1
c0 -4 0 -1 0 2zM127 474c1 2 3 4 1 1c0 3 0 1 -1 -2c-2 -3 -4 -8 -6 -11c-3 -7 -8 -12 -10 -19c-18 -46 -30 -95 -36 -144c-4 -29 -6 -57 -6 -87c0 -19 6 -38 10 -58c3 -9 7 -19 19 -22v-2l-1 1c-1 7 -1 13 -3 19c-9 27 -11 56 -11 84c-1 67 11 130 30 194c3 11 5 22 8 34
c6 1 5 7 6 12zM253 593v1c-5 3 -10 5 -15 9c-24 -21 -26 -48 -22 -79c-8 4 -14 6 -20 8c-27 -38 -44 -79 -55 -123s-20 -90 -23 -135c-4 -35 -3 -70 4 -105c2 -9 2 -20 13 -26c16 11 26 25 37 40c42 55 73 117 94 183c16 52 26 107 22 162c-2 25 -6 49 -16 72
c-2 6 -5 11 -10 17c-4 -3 -9 -6 -12 -7c1 -7 2 -11 3 -17zM304 525c0 0 0 -1 -1 -1v-59h1v60zM195 593c-7 -3 -10 -8 -7 -17c6 4 7 11 7 17zM144 603c-11 1 -15 -4 -15 -15c6 7 11 11 15 15zM297 553h1v10h-1v-10zM292 579v4c0 0 -1 0 -1 -1c0 0 0 -1 1 -3zM241 96h1
c-1 8 5 13 11 18h-1c0 -8 -5 -13 -11 -18zM229 84h-1c-4 -6 -9 -11 -17 -11v-1c4 6 10 11 18 12zM193 60l-1 1c-4 -7 -10 -7 -21 -3c11 1 17 1 22 2zM144 60c4 -1 8 -1 12 -2c-1 -1 -1 -2 -1 -3c-3 2 -7 4 -11 5zM265 126v12h-1h7h-1c-1 -4 -3 -8 -5 -12v0zM193 60l-1 1
c4 1 9 3 12 5l1 -1c-4 -2 -8 -3 -12 -5zM211 73v-1c-2 -2 -4 -4 -6 -7l-1 1zM235 90v-1c-2 -2 -4 -4 -6 -5h-1c3 1 5 4 7 6zM235 89v1c1 2 4 4 6 6h1c-3 -2 -5 -5 -7 -7zM258 120v-1l-5 -5h-1zM265 126c-2 -2 -4 -5 -7 -7v1c2 2 5 4 7 6zM277 143v1c-2 -2 -5 -4 -7 -6h1v6
l-1 -1h7zM265 564l-1 -1c2 -3 5 -6 6 -10c0 -1 -1 -4 -3 -7c-1 6 -2 12 -2 18zM264 563l1 1c-7 4 -7 11 -6 17h-1c8 -5 7 -11 6 -18zM253 594v-1c5 -2 5 -6 5 -12h1c-6 3 -6 7 -6 13zM366 758c-7 -4 -14 -6 -20 -12c-7 3 -12 6 -17 8c-8 -5 -15 -9 -23 -16
c-12 4 -23 8 -38 14c-8 6 -15 18 -25 27c-26 34 -46 69 -67 104c-4 8 -10 18 0 29c8 2 21 4 31 7c8 -3 16 -7 22 -10c16 7 29 -2 36 -15c23 -31 46 -61 69 -91c10 -13 21 -29 32 -45z" />
    <glyph glyph-name="Oacute" unicode="&#xd3;" 
d="M264 138h1c-11 -10 -21 -20 -33 -30c-20 -16 -43 -24 -69 -24c-8 0 -16 0 -23 -1c-3 0 -6 -2 -9 -4c4 -7 9 -14 13 -19v0c-9 5 -18 11 -31 18c-16 2 -36 10 -55 20c-21 10 -36 28 -44 50c-9 21 -13 44 -14 67c-3 50 5 99 15 148c3 17 9 32 7 50c-1 5 3 12 5 17
c16 49 40 94 75 132c9 10 16 22 20 36c13 35 39 59 77 68c19 3 38 3 57 -1c67 -20 116 -59 129 -134c10 -58 7 -117 -9 -174c-18 -70 -49 -135 -86 -196c-4 -7 -9 -11 -13 -17v-1h-7l1 1c-2 -2 -4 -4 -7 -6zM301 270l-1 -1h1c1 3 2 5 1 3c1 2 0 0 -1 -2zM312 301
c6 1 5 6 6 11c7 4 7 12 7 18c3 6 8 13 10 20c11 32 17 66 22 100c5 41 -3 81 -12 120c-2 9 -7 18 -12 27c-2 3 -6 6 -13 13c3 -11 4 -15 6 -20c13 -31 17 -64 18 -98c3 -45 -3 -89 -14 -133c-3 -10 -3 -20 -5 -29c-8 -5 -6 -12 -6 -18l-6 -12c-1 -2 -3 -4 -1 -1
c0 -4 0 -1 0 2zM127 474c1 2 3 4 1 1c0 3 0 1 -1 -2c-2 -3 -4 -8 -6 -11c-3 -7 -8 -12 -10 -19c-18 -46 -30 -95 -36 -144c-4 -29 -6 -57 -6 -87c0 -19 6 -38 10 -58c3 -9 7 -19 19 -22v-2l-1 1c-1 7 -1 13 -3 19c-9 27 -11 56 -11 84c-1 67 11 130 30 194c3 11 5 22 8 34
c6 1 5 7 6 12zM253 593v1c-5 3 -10 5 -15 9c-24 -21 -26 -48 -22 -79c-8 4 -14 6 -20 8c-27 -38 -44 -79 -55 -123s-20 -90 -23 -135c-4 -35 -3 -70 4 -105c2 -9 2 -20 13 -26c16 11 26 25 37 40c42 55 73 117 94 183c16 52 26 107 22 162c-2 25 -6 49 -16 72
c-2 6 -5 11 -10 17c-4 -3 -9 -6 -12 -7c1 -7 2 -11 3 -17zM304 525c0 0 0 -1 -1 -1v-59h1v60zM195 593c-7 -3 -10 -8 -7 -17c6 4 7 11 7 17zM144 603c-11 1 -15 -4 -15 -15c6 7 11 11 15 15zM297 553h1v10h-1v-10zM292 579v4c0 0 -1 0 -1 -1c0 0 0 -1 1 -3zM241 96h1
c-1 8 5 13 11 18h-1c0 -8 -5 -13 -11 -18zM229 84h-1c-4 -6 -9 -11 -17 -11v-1c4 6 10 11 18 12zM193 60l-1 1c-4 -7 -10 -7 -21 -3c11 1 17 1 22 2zM144 60c4 -1 8 -1 12 -2c-1 -1 -1 -2 -1 -3c-3 2 -7 4 -11 5zM265 126v12h-1h7h-1c-1 -4 -3 -8 -5 -12v0zM193 60l-1 1
c4 1 9 3 12 5l1 -1c-4 -2 -8 -3 -12 -5zM211 73v-1c-2 -2 -4 -4 -6 -7l-1 1zM235 90v-1c-2 -2 -4 -4 -6 -5h-1c3 1 5 4 7 6zM235 89v1c1 2 4 4 6 6h1c-3 -2 -5 -5 -7 -7zM258 120v-1l-5 -5h-1zM265 126c-2 -2 -4 -5 -7 -7v1c2 2 5 4 7 6zM277 143v1c-2 -2 -5 -4 -7 -6h1v6
l-1 -1h7zM265 564l-1 -1c2 -3 5 -6 6 -10c0 -1 -1 -4 -3 -7c-1 6 -2 12 -2 18zM264 563l1 1c-7 4 -7 11 -6 17h-1c8 -5 7 -11 6 -18zM253 594v-1c5 -2 5 -6 5 -12h1c-6 3 -6 7 -6 13zM296 807c-5 -8 -10 -14 -14 -22c-8 -11 -13 -20 -19 -33c-20 0 -40 13 -60 2
c-6 8 -11 16 -18 23c12 36 28 71 48 106c5 11 10 20 25 29c18 -5 38 -13 59 -18c7 -13 6 -26 6 -39v0c-9 0 -9 -7 -9 -13v4c-4 -4 -4 -8 -4 -13v0c-6 -3 -8 -7 -8 -13h2c-8 -2 -8 -7 -8 -13zM296 790v17v0c8 3 8 8 8 13h-2c8 2 8 8 8 13v0c4 2 4 7 4 13v-4c5 4 9 9 9 13v0
c4 8 9 13 14 21c6 -2 6 -5 2 -10c-9 -26 -22 -53 -43 -76c-9 -14 0 -14 0 0z" />
    <glyph glyph-name="Ocircumflex" unicode="&#xd4;" 
d="M264 138h1c-11 -10 -21 -20 -33 -30c-20 -16 -43 -24 -69 -24c-8 0 -16 0 -23 -1c-3 0 -6 -2 -9 -4c4 -7 9 -14 13 -19v0c-9 5 -18 11 -31 18c-16 2 -36 10 -55 20c-21 10 -36 28 -44 50c-9 21 -13 44 -14 67c-3 50 5 99 15 148c3 17 9 32 7 50c-1 5 3 12 5 17
c16 49 40 94 75 132c9 10 16 22 20 36c13 35 39 59 77 68c19 3 38 3 57 -1c67 -20 116 -59 129 -134c10 -58 7 -117 -9 -174c-18 -70 -49 -135 -86 -196c-4 -7 -9 -11 -13 -17v-1h-7l1 1c-2 -2 -4 -4 -7 -6zM301 270l-1 -1h1c1 3 2 5 1 3c1 2 0 0 -1 -2zM312 301
c6 1 5 6 6 11c7 4 7 12 7 18c3 6 8 13 10 20c11 32 17 66 22 100c5 41 -3 81 -12 120c-2 9 -7 18 -12 27c-2 3 -6 6 -13 13c3 -11 4 -15 6 -20c13 -31 17 -64 18 -98c3 -45 -3 -89 -14 -133c-3 -10 -3 -20 -5 -29c-8 -5 -6 -12 -6 -18l-6 -12c-1 -2 -3 -4 -1 -1
c0 -4 0 -1 0 2zM127 474c1 2 3 4 1 1c0 3 0 1 -1 -2c-2 -3 -4 -8 -6 -11c-3 -7 -8 -12 -10 -19c-18 -46 -30 -95 -36 -144c-4 -29 -6 -57 -6 -87c0 -19 6 -38 10 -58c3 -9 7 -19 19 -22v-2l-1 1c-1 7 -1 13 -3 19c-9 27 -11 56 -11 84c-1 67 11 130 30 194c3 11 5 22 8 34
c6 1 5 7 6 12zM253 593v1c-5 3 -10 5 -15 9c-24 -21 -26 -48 -22 -79c-8 4 -14 6 -20 8c-27 -38 -44 -79 -55 -123s-20 -90 -23 -135c-4 -35 -3 -70 4 -105c2 -9 2 -20 13 -26c16 11 26 25 37 40c42 55 73 117 94 183c16 52 26 107 22 162c-2 25 -6 49 -16 72
c-2 6 -5 11 -10 17c-4 -3 -9 -6 -12 -7c1 -7 2 -11 3 -17zM304 525c0 0 0 -1 -1 -1v-59h1v60zM195 593c-7 -3 -10 -8 -7 -17c6 4 7 11 7 17zM144 603c-11 1 -15 -4 -15 -15c6 7 11 11 15 15zM297 553h1v10h-1v-10zM292 579v4c0 0 -1 0 -1 -1c0 0 0 -1 1 -3zM241 96h1
c-1 8 5 13 11 18h-1c0 -8 -5 -13 -11 -18zM229 84h-1c-4 -6 -9 -11 -17 -11v-1c4 6 10 11 18 12zM193 60l-1 1c-4 -7 -10 -7 -21 -3c11 1 17 1 22 2zM144 60c4 -1 8 -1 12 -2c-1 -1 -1 -2 -1 -3c-3 2 -7 4 -11 5zM265 126v12h-1h7h-1c-1 -4 -3 -8 -5 -12v0zM193 60l-1 1
c4 1 9 3 12 5l1 -1c-4 -2 -8 -3 -12 -5zM211 73v-1c-2 -2 -4 -4 -6 -7l-1 1zM235 90v-1c-2 -2 -4 -4 -6 -5h-1c3 1 5 4 7 6zM235 89v1c1 2 4 4 6 6h1c-3 -2 -5 -5 -7 -7zM258 120v-1l-5 -5h-1zM265 126c-2 -2 -4 -5 -7 -7v1c2 2 5 4 7 6zM277 143v1c-2 -2 -5 -4 -7 -6h1v6
l-1 -1h7zM265 564l-1 -1c2 -3 5 -6 6 -10c0 -1 -1 -4 -3 -7c-1 6 -2 12 -2 18zM264 563l1 1c-7 4 -7 11 -6 17h-1c8 -5 7 -11 6 -18zM253 594v-1c5 -2 5 -6 5 -12h1c-6 3 -6 7 -6 13zM171 758c-7 4 -7 4 -18 14c8 21 23 34 34 50c7 18 17 36 25 52c13 9 23 7 33 4
c3 3 7 3 10 5c10 0 22 -2 31 -5c38 -40 72 -81 108 -121c-12 -19 -36 0 -43 -19c-22 4 -33 20 -47 32c-14 13 -27 24 -41 37c-11 -4 -15 -14 -21 -22c-7 -6 -14 -13 -17 -15c-21 -3 -36 -5 -54 -12z" />
    <glyph glyph-name="Otilde" unicode="&#xd5;" 
d="M264 138h1c-11 -10 -21 -20 -33 -30c-20 -16 -43 -24 -69 -24c-8 0 -16 0 -23 -1c-3 0 -6 -2 -9 -4c4 -7 9 -14 13 -19v0c-9 5 -18 11 -31 18c-16 2 -36 10 -55 20c-21 10 -36 28 -44 50c-9 21 -13 44 -14 67c-3 50 5 99 15 148c3 17 9 32 7 50c-1 5 3 12 5 17
c16 49 40 94 75 132c9 10 16 22 20 36c13 35 39 59 77 68c19 3 38 3 57 -1c67 -20 116 -59 129 -134c10 -58 7 -117 -9 -174c-18 -70 -49 -135 -86 -196c-4 -7 -9 -11 -13 -17v-1h-7l1 1c-2 -2 -4 -4 -7 -6zM301 270l-1 -1h1c1 3 2 5 1 3c1 2 0 0 -1 -2zM312 301
c6 1 5 6 6 11c7 4 7 12 7 18c3 6 8 13 10 20c11 32 17 66 22 100c5 41 -3 81 -12 120c-2 9 -7 18 -12 27c-2 3 -6 6 -13 13c3 -11 4 -15 6 -20c13 -31 17 -64 18 -98c3 -45 -3 -89 -14 -133c-3 -10 -3 -20 -5 -29c-8 -5 -6 -12 -6 -18l-6 -12c-1 -2 -3 -4 -1 -1
c0 -4 0 -1 0 2zM127 474c1 2 3 4 1 1c0 3 0 1 -1 -2c-2 -3 -4 -8 -6 -11c-3 -7 -8 -12 -10 -19c-18 -46 -30 -95 -36 -144c-4 -29 -6 -57 -6 -87c0 -19 6 -38 10 -58c3 -9 7 -19 19 -22v-2l-1 1c-1 7 -1 13 -3 19c-9 27 -11 56 -11 84c-1 67 11 130 30 194c3 11 5 22 8 34
c6 1 5 7 6 12zM253 593v1c-5 3 -10 5 -15 9c-24 -21 -26 -48 -22 -79c-8 4 -14 6 -20 8c-27 -38 -44 -79 -55 -123s-20 -90 -23 -135c-4 -35 -3 -70 4 -105c2 -9 2 -20 13 -26c16 11 26 25 37 40c42 55 73 117 94 183c16 52 26 107 22 162c-2 25 -6 49 -16 72
c-2 6 -5 11 -10 17c-4 -3 -9 -6 -12 -7c1 -7 2 -11 3 -17zM304 525c0 0 0 -1 -1 -1v-59h1v60zM195 593c-7 -3 -10 -8 -7 -17c6 4 7 11 7 17zM144 603c-11 1 -15 -4 -15 -15c6 7 11 11 15 15zM297 553h1v10h-1v-10zM292 579v4c0 0 -1 0 -1 -1c0 0 0 -1 1 -3zM241 96h1
c-1 8 5 13 11 18h-1c0 -8 -5 -13 -11 -18zM229 84h-1c-4 -6 -9 -11 -17 -11v-1c4 6 10 11 18 12zM193 60l-1 1c-4 -7 -10 -7 -21 -3c11 1 17 1 22 2zM144 60c4 -1 8 -1 12 -2c-1 -1 -1 -2 -1 -3c-3 2 -7 4 -11 5zM265 126v12h-1h7h-1c-1 -4 -3 -8 -5 -12v0zM193 60l-1 1
c4 1 9 3 12 5l1 -1c-4 -2 -8 -3 -12 -5zM211 73v-1c-2 -2 -4 -4 -6 -7l-1 1zM235 90v-1c-2 -2 -4 -4 -6 -5h-1c3 1 5 4 7 6zM235 89v1c1 2 4 4 6 6h1c-3 -2 -5 -5 -7 -7zM258 120v-1l-5 -5h-1zM265 126c-2 -2 -4 -5 -7 -7v1c2 2 5 4 7 6zM277 143v1c-2 -2 -5 -4 -7 -6h1v6
l-1 -1h7zM265 564l-1 -1c2 -3 5 -6 6 -10c0 -1 -1 -4 -3 -7c-1 6 -2 12 -2 18zM264 563l1 1c-7 4 -7 11 -6 17h-1c8 -5 7 -11 6 -18zM253 594v-1c5 -2 5 -6 5 -12h1c-6 3 -6 7 -6 13zM403 777c-3 -10 -13 -12 -23 -15c-15 -5 -29 -8 -42 -5c-16 1 -32 1 -47 1
c-25 0 -46 14 -61 35c-2 4 -8 10 -12 14c-10 -13 -10 -28 -16 -42c-2 -3 -6 -7 -13 -7c-16 7 -37 -4 -53 12c-8 9 -4 20 -4 33c2 17 9 37 16 55c9 13 16 23 34 29c54 -4 104 -19 135 -72c5 5 10 7 12 13c9 12 16 26 21 38c5 8 10 17 15 28c5 -3 7 -5 13 -7c2 2 5 4 9 9
c16 -2 32 -5 46 -15c-2 -23 -12 -46 -20 -66c-2 -8 -7 -18 -10 -25v0c-4 -3 -3 -7 0 -13zM155 785c0 0 -3 0 -3 -2l3 2v0zM403 790c5 3 10 3 12 4v0c-2 -7 -4 -11 -12 -17v0v13zM415 794c0 3 4 5 0 3c4 2 4 0 0 -3z" />
    <glyph glyph-name="Odieresis" unicode="&#xd6;" 
d="M264 138h1c-11 -10 -21 -20 -33 -30c-20 -16 -43 -24 -69 -24c-8 0 -16 0 -23 -1c-3 0 -6 -2 -9 -4c4 -7 9 -14 13 -19v0c-9 5 -18 11 -31 18c-16 2 -36 10 -55 20c-21 10 -36 28 -44 50c-9 21 -13 44 -14 67c-3 50 5 99 15 148c3 17 9 32 7 50c-1 5 3 12 5 17
c16 49 40 94 75 132c9 10 16 22 20 36c13 35 39 59 77 68c19 3 38 3 57 -1c67 -20 116 -59 129 -134c10 -58 7 -117 -9 -174c-18 -70 -49 -135 -86 -196c-4 -7 -9 -11 -13 -17v-1h-7l1 1c-2 -2 -4 -4 -7 -6zM301 270l-1 -1h1c1 3 2 5 1 3c1 2 0 0 -1 -2zM312 301
c6 1 5 6 6 11c7 4 7 12 7 18c3 6 8 13 10 20c11 32 17 66 22 100c5 41 -3 81 -12 120c-2 9 -7 18 -12 27c-2 3 -6 6 -13 13c3 -11 4 -15 6 -20c13 -31 17 -64 18 -98c3 -45 -3 -89 -14 -133c-3 -10 -3 -20 -5 -29c-8 -5 -6 -12 -6 -18l-6 -12c-1 -2 -3 -4 -1 -1
c0 -4 0 -1 0 2zM127 474c1 2 3 4 1 1c0 3 0 1 -1 -2c-2 -3 -4 -8 -6 -11c-3 -7 -8 -12 -10 -19c-18 -46 -30 -95 -36 -144c-4 -29 -6 -57 -6 -87c0 -19 6 -38 10 -58c3 -9 7 -19 19 -22v-2l-1 1c-1 7 -1 13 -3 19c-9 27 -11 56 -11 84c-1 67 11 130 30 194c3 11 5 22 8 34
c6 1 5 7 6 12zM253 593v1c-5 3 -10 5 -15 9c-24 -21 -26 -48 -22 -79c-8 4 -14 6 -20 8c-27 -38 -44 -79 -55 -123s-20 -90 -23 -135c-4 -35 -3 -70 4 -105c2 -9 2 -20 13 -26c16 11 26 25 37 40c42 55 73 117 94 183c16 52 26 107 22 162c-2 25 -6 49 -16 72
c-2 6 -5 11 -10 17c-4 -3 -9 -6 -12 -7c1 -7 2 -11 3 -17zM304 525c0 0 0 -1 -1 -1v-59h1v60zM195 593c-7 -3 -10 -8 -7 -17c6 4 7 11 7 17zM144 603c-11 1 -15 -4 -15 -15c6 7 11 11 15 15zM297 553h1v10h-1v-10zM292 579v4c0 0 -1 0 -1 -1c0 0 0 -1 1 -3zM241 96h1
c-1 8 5 13 11 18h-1c0 -8 -5 -13 -11 -18zM229 84h-1c-4 -6 -9 -11 -17 -11v-1c4 6 10 11 18 12zM193 60l-1 1c-4 -7 -10 -7 -21 -3c11 1 17 1 22 2zM144 60c4 -1 8 -1 12 -2c-1 -1 -1 -2 -1 -3c-3 2 -7 4 -11 5zM265 126v12h-1h7h-1c-1 -4 -3 -8 -5 -12v0zM193 60l-1 1
c4 1 9 3 12 5l1 -1c-4 -2 -8 -3 -12 -5zM211 73v-1c-2 -2 -4 -4 -6 -7l-1 1zM235 90v-1c-2 -2 -4 -4 -6 -5h-1c3 1 5 4 7 6zM235 89v1c1 2 4 4 6 6h1c-3 -2 -5 -5 -7 -7zM258 120v-1l-5 -5h-1zM265 126c-2 -2 -4 -5 -7 -7v1c2 2 5 4 7 6zM277 143v1c-2 -2 -5 -4 -7 -6h1v6
l-1 -1h7zM265 564l-1 -1c2 -3 5 -6 6 -10c0 -1 -1 -4 -3 -7c-1 6 -2 12 -2 18zM264 563l1 1c-7 4 -7 11 -6 17h-1c8 -5 7 -11 6 -18zM253 594v-1c5 -2 5 -6 5 -12h1c-6 3 -6 7 -6 13zM182 807c-8 26 -3 44 10 61c7 0 16 3 23 6c18 -6 35 -14 54 -20c15 -6 20 -19 20 -34
c-3 -10 -3 -17 -11 -26c-22 -7 -45 9 -69 -4c-10 4 -20 13 -27 17zM357 790c-10 4 -18 7 -28 9c-2 8 -8 16 -11 21c3 13 7 22 16 31c11 0 23 4 33 3c10 0 19 -8 28 0c13 -8 23 -14 30 -19c6 -15 0 -25 -7 -36c-16 -6 -28 -5 -41 -2c-7 -3 -15 -4 -20 -7z" />
    <glyph glyph-name="Ugrave" unicode="&#xd9;" horiz-adv-x="476" 
d="M50 415c-2 -3 -6 -6 -7 -9c-14 -40 -25 -81 -30 -124c-3 -21 -6 -41 -8 -66c-7 32 -2 61 3 88c10 58 27 114 55 169c9 19 23 36 35 55c6 9 15 16 29 20c18 4 34 -6 52 -13c2 -4 5 -9 8 -13c0 -3 0 -4 -1 -5c-19 -39 -30 -79 -40 -120c-6 -26 -12 -50 -8 -76
c1 -9 -1 -19 -2 -27c-4 -34 1 -67 13 -100c4 -11 8 -23 19 -33c14 6 21 16 30 26c23 28 37 59 48 92c20 61 40 123 60 183c12 39 24 78 37 115c5 12 7 25 19 33c19 4 35 -2 52 -5c7 -6 15 -10 23 -15c6 -19 7 -38 4 -59c-13 -92 -21 -183 -23 -274c-1 -39 1 -80 5 -119
c3 -37 13 -72 43 -100c-4 -7 -9 -12 -13 -19c-12 0 -24 -1 -36 1c-10 1 -21 6 -32 8c-26 17 -40 41 -49 68c-10 30 -14 60 -18 91c0 5 0 9 -1 14c-8 -1 -8 -6 -7 -11c3 -32 4 -65 14 -97c2 -4 1 -9 1 -13h1c-3 3 -6 5 -7 8c-4 21 -8 42 -13 63c-1 8 -2 16 -3 25
c-10 0 -10 -5 -12 -8c-3 -3 -6 -7 -8 -11c-10 -15 -23 -28 -42 -35v1c-32 -15 -67 -17 -102 -11c-39 7 -77 18 -99 53c-6 8 -10 17 -13 26c-3 7 -1 12 4 17c-1 -7 -1 -12 6 -17c1 -8 2 -16 13 -20c2 -4 3 -7 5 -11l1 -1l-2 1c-2 4 -2 7 -4 11c-5 6 -9 13 -13 20
c-2 6 -4 11 -6 17c-2 25 -9 50 -6 76c4 37 11 74 20 110c2 7 3 14 5 21c1 3 2 7 3 10c-1 1 -1 1 -3 1v-11zM247 181c6 4 11 9 11 16c23 23 40 59 40 84c-13 -26 -26 -52 -39 -79c-1 -2 0 -3 0 -5c-8 -3 -11 -10 -12 -17v1zM349 442c9 13 12 27 10 42c-4 -8 -8 -16 -9 -24
c-1 -6 0 -12 -1 -18c-6 -4 -5 -9 -2 -20c1 10 1 16 2 20zM361 85c0 -1 1 -3 0 -1c1 -2 0 0 0 1c-2 13 -5 26 -7 40c-2 12 -4 24 -5 37s-1 26 -2 39s-1 25 -2 37c-2 13 2 25 -6 43c-1 -14 -3 -20 -3 -27c1 -30 1 -60 3 -90c2 -20 7 -39 11 -58c1 -8 2 -16 11 -21zM83 257
l3 30c1 9 3 19 5 28c1 10 3 20 6 30c1 9 3 19 5 28c3 10 6 21 8 32l9 27c3 10 6 19 10 29c3 9 7 18 11 27c3 8 10 16 7 31c-21 -34 -31 -66 -41 -98c-15 -53 -29 -107 -23 -164zM57 443v-3l2 2zM372 16c-14 4 -24 12 -29 26h-1c10 -9 20 -17 30 -26zM331 63v1
c-7 4 -6 10 -5 16h-1c6 -5 5 -10 6 -17zM235 112v-1c-1 -1 -3 -1 -2 -1c-1 -1 0 1 2 2zM331 64v-1c2 -3 4 -6 6 -10h1c-8 2 -7 7 -7 11zM342 42h1c-6 2 -6 7 -5 11h-1c1 -3 3 -7 5 -11zM241 117c0 1 1 1 1 2c0 0 -1 2 -1 3v1v-6l-6 -6v1c1 1 3 3 6 5zM338 758
c-7 -4 -14 -6 -20 -12c-7 3 -12 6 -17 8c-8 -5 -15 -9 -23 -16c-12 4 -23 8 -38 14c-8 6 -15 18 -25 27c-26 34 -46 69 -67 104c-4 8 -10 18 0 29c8 2 21 4 31 7c8 -3 16 -7 22 -10c16 7 29 -2 36 -15c23 -31 46 -61 69 -91c10 -13 21 -29 32 -45z" />
    <glyph glyph-name="Uacute" unicode="&#xda;" horiz-adv-x="476" 
d="M50 415c-2 -3 -6 -6 -7 -9c-14 -40 -25 -81 -30 -124c-3 -21 -6 -41 -8 -66c-7 32 -2 61 3 88c10 58 27 114 55 169c9 19 23 36 35 55c6 9 15 16 29 20c18 4 34 -6 52 -13c2 -4 5 -9 8 -13c0 -3 0 -4 -1 -5c-19 -39 -30 -79 -40 -120c-6 -26 -12 -50 -8 -76
c1 -9 -1 -19 -2 -27c-4 -34 1 -67 13 -100c4 -11 8 -23 19 -33c14 6 21 16 30 26c23 28 37 59 48 92c20 61 40 123 60 183c12 39 24 78 37 115c5 12 7 25 19 33c19 4 35 -2 52 -5c7 -6 15 -10 23 -15c6 -19 7 -38 4 -59c-13 -92 -21 -183 -23 -274c-1 -39 1 -80 5 -119
c3 -37 13 -72 43 -100c-4 -7 -9 -12 -13 -19c-12 0 -24 -1 -36 1c-10 1 -21 6 -32 8c-26 17 -40 41 -49 68c-10 30 -14 60 -18 91c0 5 0 9 -1 14c-8 -1 -8 -6 -7 -11c3 -32 4 -65 14 -97c2 -4 1 -9 1 -13h1c-3 3 -6 5 -7 8c-4 21 -8 42 -13 63c-1 8 -2 16 -3 25
c-10 0 -10 -5 -12 -8c-3 -3 -6 -7 -8 -11c-10 -15 -23 -28 -42 -35v1c-32 -15 -67 -17 -102 -11c-39 7 -77 18 -99 53c-6 8 -10 17 -13 26c-3 7 -1 12 4 17c-1 -7 -1 -12 6 -17c1 -8 2 -16 13 -20c2 -4 3 -7 5 -11l1 -1l-2 1c-2 4 -2 7 -4 11c-5 6 -9 13 -13 20
c-2 6 -4 11 -6 17c-2 25 -9 50 -6 76c4 37 11 74 20 110c2 7 3 14 5 21c1 3 2 7 3 10c-1 1 -1 1 -3 1v-11zM247 181c6 4 11 9 11 16c23 23 40 59 40 84c-13 -26 -26 -52 -39 -79c-1 -2 0 -3 0 -5c-8 -3 -11 -10 -12 -17v1zM349 442c9 13 12 27 10 42c-4 -8 -8 -16 -9 -24
c-1 -6 0 -12 -1 -18c-6 -4 -5 -9 -2 -20c1 10 1 16 2 20zM361 85c0 -1 1 -3 0 -1c1 -2 0 0 0 1c-2 13 -5 26 -7 40c-2 12 -4 24 -5 37s-1 26 -2 39s-1 25 -2 37c-2 13 2 25 -6 43c-1 -14 -3 -20 -3 -27c1 -30 1 -60 3 -90c2 -20 7 -39 11 -58c1 -8 2 -16 11 -21zM83 257
l3 30c1 9 3 19 5 28c1 10 3 20 6 30c1 9 3 19 5 28c3 10 6 21 8 32l9 27c3 10 6 19 10 29c3 9 7 18 11 27c3 8 10 16 7 31c-21 -34 -31 -66 -41 -98c-15 -53 -29 -107 -23 -164zM57 443v-3l2 2zM372 16c-14 4 -24 12 -29 26h-1c10 -9 20 -17 30 -26zM331 63v1
c-7 4 -6 10 -5 16h-1c6 -5 5 -10 6 -17zM235 112v-1c-1 -1 -3 -1 -2 -1c-1 -1 0 1 2 2zM331 64v-1c2 -3 4 -6 6 -10h1c-8 2 -7 7 -7 11zM342 42h1c-6 2 -6 7 -5 11h-1c1 -3 3 -7 5 -11zM241 117c0 1 1 1 1 2c0 0 -1 2 -1 3v1v-6l-6 -6v1c1 1 3 3 6 5zM270 807
c-5 -8 -10 -14 -14 -22c-8 -11 -13 -20 -19 -33c-20 0 -40 13 -60 2c-6 8 -11 16 -18 23c12 36 28 71 48 106c5 11 10 20 25 29c18 -5 38 -13 59 -18c7 -13 6 -26 6 -39v0c-9 0 -9 -7 -9 -13v4c-4 -4 -4 -8 -4 -13v0c-6 -3 -8 -7 -8 -13h2c-8 -2 -8 -7 -8 -13zM270 790v17v0
c8 3 8 8 8 13h-2c8 2 8 8 8 13v0c4 2 4 7 4 13v-4c5 4 9 9 9 13v0c4 8 9 13 14 21c6 -2 6 -5 2 -10c-9 -26 -22 -53 -43 -76c-9 -14 0 -14 0 0z" />
    <glyph glyph-name="Ucircumflex" unicode="&#xdb;" horiz-adv-x="476" 
d="M50 415c-2 -3 -6 -6 -7 -9c-14 -40 -25 -81 -30 -124c-3 -21 -6 -41 -8 -66c-7 32 -2 61 3 88c10 58 27 114 55 169c9 19 23 36 35 55c6 9 15 16 29 20c18 4 34 -6 52 -13c2 -4 5 -9 8 -13c0 -3 0 -4 -1 -5c-19 -39 -30 -79 -40 -120c-6 -26 -12 -50 -8 -76
c1 -9 -1 -19 -2 -27c-4 -34 1 -67 13 -100c4 -11 8 -23 19 -33c14 6 21 16 30 26c23 28 37 59 48 92c20 61 40 123 60 183c12 39 24 78 37 115c5 12 7 25 19 33c19 4 35 -2 52 -5c7 -6 15 -10 23 -15c6 -19 7 -38 4 -59c-13 -92 -21 -183 -23 -274c-1 -39 1 -80 5 -119
c3 -37 13 -72 43 -100c-4 -7 -9 -12 -13 -19c-12 0 -24 -1 -36 1c-10 1 -21 6 -32 8c-26 17 -40 41 -49 68c-10 30 -14 60 -18 91c0 5 0 9 -1 14c-8 -1 -8 -6 -7 -11c3 -32 4 -65 14 -97c2 -4 1 -9 1 -13h1c-3 3 -6 5 -7 8c-4 21 -8 42 -13 63c-1 8 -2 16 -3 25
c-10 0 -10 -5 -12 -8c-3 -3 -6 -7 -8 -11c-10 -15 -23 -28 -42 -35v1c-32 -15 -67 -17 -102 -11c-39 7 -77 18 -99 53c-6 8 -10 17 -13 26c-3 7 -1 12 4 17c-1 -7 -1 -12 6 -17c1 -8 2 -16 13 -20c2 -4 3 -7 5 -11l1 -1l-2 1c-2 4 -2 7 -4 11c-5 6 -9 13 -13 20
c-2 6 -4 11 -6 17c-2 25 -9 50 -6 76c4 37 11 74 20 110c2 7 3 14 5 21c1 3 2 7 3 10c-1 1 -1 1 -3 1v-11zM247 181c6 4 11 9 11 16c23 23 40 59 40 84c-13 -26 -26 -52 -39 -79c-1 -2 0 -3 0 -5c-8 -3 -11 -10 -12 -17v1zM349 442c9 13 12 27 10 42c-4 -8 -8 -16 -9 -24
c-1 -6 0 -12 -1 -18c-6 -4 -5 -9 -2 -20c1 10 1 16 2 20zM361 85c0 -1 1 -3 0 -1c1 -2 0 0 0 1c-2 13 -5 26 -7 40c-2 12 -4 24 -5 37s-1 26 -2 39s-1 25 -2 37c-2 13 2 25 -6 43c-1 -14 -3 -20 -3 -27c1 -30 1 -60 3 -90c2 -20 7 -39 11 -58c1 -8 2 -16 11 -21zM83 257
l3 30c1 9 3 19 5 28c1 10 3 20 6 30c1 9 3 19 5 28c3 10 6 21 8 32l9 27c3 10 6 19 10 29c3 9 7 18 11 27c3 8 10 16 7 31c-21 -34 -31 -66 -41 -98c-15 -53 -29 -107 -23 -164zM57 443v-3l2 2zM372 16c-14 4 -24 12 -29 26h-1c10 -9 20 -17 30 -26zM331 63v1
c-7 4 -6 10 -5 16h-1c6 -5 5 -10 6 -17zM235 112v-1c-1 -1 -3 -1 -2 -1c-1 -1 0 1 2 2zM331 64v-1c2 -3 4 -6 6 -10h1c-8 2 -7 7 -7 11zM342 42h1c-6 2 -6 7 -5 11h-1c1 -3 3 -7 5 -11zM241 117c0 1 1 1 1 2c0 0 -1 2 -1 3v1v-6l-6 -6v1c1 1 3 3 6 5zM226 758
c-7 4 -7 4 -18 14c8 21 23 34 34 50c7 18 17 36 25 52c13 9 23 7 33 4c3 3 7 3 10 5c10 0 22 -2 31 -5c38 -40 72 -81 108 -121c-12 -19 -36 0 -43 -19c-22 4 -33 20 -47 32c-14 13 -27 24 -41 37c-11 -4 -15 -14 -21 -22c-7 -6 -14 -13 -17 -15c-21 -3 -36 -5 -54 -12z" />
    <glyph glyph-name="Udieresis" unicode="&#xdc;" horiz-adv-x="476" 
d="M50 415c-2 -3 -6 -6 -7 -9c-14 -40 -25 -81 -30 -124c-3 -21 -6 -41 -8 -66c-7 32 -2 61 3 88c10 58 27 114 55 169c9 19 23 36 35 55c6 9 15 16 29 20c18 4 34 -6 52 -13c2 -4 5 -9 8 -13c0 -3 0 -4 -1 -5c-19 -39 -30 -79 -40 -120c-6 -26 -12 -50 -8 -76
c1 -9 -1 -19 -2 -27c-4 -34 1 -67 13 -100c4 -11 8 -23 19 -33c14 6 21 16 30 26c23 28 37 59 48 92c20 61 40 123 60 183c12 39 24 78 37 115c5 12 7 25 19 33c19 4 35 -2 52 -5c7 -6 15 -10 23 -15c6 -19 7 -38 4 -59c-13 -92 -21 -183 -23 -274c-1 -39 1 -80 5 -119
c3 -37 13 -72 43 -100c-4 -7 -9 -12 -13 -19c-12 0 -24 -1 -36 1c-10 1 -21 6 -32 8c-26 17 -40 41 -49 68c-10 30 -14 60 -18 91c0 5 0 9 -1 14c-8 -1 -8 -6 -7 -11c3 -32 4 -65 14 -97c2 -4 1 -9 1 -13h1c-3 3 -6 5 -7 8c-4 21 -8 42 -13 63c-1 8 -2 16 -3 25
c-10 0 -10 -5 -12 -8c-3 -3 -6 -7 -8 -11c-10 -15 -23 -28 -42 -35v1c-32 -15 -67 -17 -102 -11c-39 7 -77 18 -99 53c-6 8 -10 17 -13 26c-3 7 -1 12 4 17c-1 -7 -1 -12 6 -17c1 -8 2 -16 13 -20c2 -4 3 -7 5 -11l1 -1l-2 1c-2 4 -2 7 -4 11c-5 6 -9 13 -13 20
c-2 6 -4 11 -6 17c-2 25 -9 50 -6 76c4 37 11 74 20 110c2 7 3 14 5 21c1 3 2 7 3 10c-1 1 -1 1 -3 1v-11zM247 181c6 4 11 9 11 16c23 23 40 59 40 84c-13 -26 -26 -52 -39 -79c-1 -2 0 -3 0 -5c-8 -3 -11 -10 -12 -17v1zM349 442c9 13 12 27 10 42c-4 -8 -8 -16 -9 -24
c-1 -6 0 -12 -1 -18c-6 -4 -5 -9 -2 -20c1 10 1 16 2 20zM361 85c0 -1 1 -3 0 -1c1 -2 0 0 0 1c-2 13 -5 26 -7 40c-2 12 -4 24 -5 37s-1 26 -2 39s-1 25 -2 37c-2 13 2 25 -6 43c-1 -14 -3 -20 -3 -27c1 -30 1 -60 3 -90c2 -20 7 -39 11 -58c1 -8 2 -16 11 -21zM83 257
l3 30c1 9 3 19 5 28c1 10 3 20 6 30c1 9 3 19 5 28c3 10 6 21 8 32l9 27c3 10 6 19 10 29c3 9 7 18 11 27c3 8 10 16 7 31c-21 -34 -31 -66 -41 -98c-15 -53 -29 -107 -23 -164zM57 443v-3l2 2zM372 16c-14 4 -24 12 -29 26h-1c10 -9 20 -17 30 -26zM331 63v1
c-7 4 -6 10 -5 16h-1c6 -5 5 -10 6 -17zM235 112v-1c-1 -1 -3 -1 -2 -1c-1 -1 0 1 2 2zM331 64v-1c2 -3 4 -6 6 -10h1c-8 2 -7 7 -7 11zM342 42h1c-6 2 -6 7 -5 11h-1c1 -3 3 -7 5 -11zM241 117c0 1 1 1 1 2c0 0 -1 2 -1 3v1v-6l-6 -6v1c1 1 3 3 6 5zM183 807
c-8 26 -3 44 10 61c7 0 16 3 23 6c18 -6 35 -14 54 -20c15 -6 20 -19 20 -34c-3 -10 -3 -17 -11 -26c-22 -7 -45 9 -69 -4c-10 4 -20 13 -27 17zM358 790c-10 4 -18 7 -28 9c-2 8 -8 16 -11 21c3 13 7 22 16 31c11 0 23 4 33 3c10 0 19 -8 28 0c13 -8 23 -14 30 -19
c6 -15 0 -25 -7 -36c-16 -6 -28 -5 -41 -2c-7 -3 -15 -4 -20 -7z" />
    <glyph glyph-name="Yacute" unicode="&#xdd;" horiz-adv-x="397" 
d="M88 260l-1 -2c4 2 10 2 15 3c-7 11 -18 11 -28 13c-44 41 -69 87 -74 142c-7 68 5 134 29 201c4 18 12 37 21 58c5 14 14 29 32 39c22 2 46 -1 60 -19c0 -4 1 -7 0 -9c-23 -63 -35 -125 -41 -192c-4 -54 3 -108 22 -163c4 -11 8 -24 18 -33c9 -2 12 5 15 8
c12 17 25 35 36 55c17 31 33 63 48 95c11 21 18 42 36 60c1 2 2 5 2 9c18 37 35 73 38 113c1 8 2 16 11 26c17 5 31 1 47 -11c0 -9 0 -21 1 -30c1 -15 1 -31 2 -46v-14c-3 -36 -6 -71 -13 -107c-14 -98 -37 -196 -62 -295c-2 -5 -2 -14 -3 -21c-9 -7 -6 -15 -6 -22
c-10 -11 -13 -24 -14 -38c-5 -5 -4 -11 -4 -16c-4 -5 -6 -10 -8 -16c-1 -2 -2 -4 -1 -1c0 -3 0 0 0 2c9 3 7 10 8 15c6 4 4 10 4 16c11 12 15 25 15 38c8 6 6 13 6 23c9 5 8 16 9 24c20 76 40 152 54 228c4 28 12 53 16 82c2 9 3 17 4 27c2 1 3 2 8 2c0 4 0 10 -2 15
c-2 20 -3 41 7 61c3 10 0 24 0 34c-4 6 -9 9 -13 14c3 2 9 4 11 3c4 -2 11 -6 12 -9c3 -9 5 -17 6 -25c2 -46 -1 -89 -8 -132c-12 -83 -27 -167 -48 -250c-13 -48 -28 -98 -43 -146c-7 -18 -16 -36 -26 -54c-6 -11 -11 -19 -20 -25c-11 -11 -26 -18 -44 -16
c-18 4 -37 1 -55 -1c-28 -2 -55 7 -68 29c-27 39 -46 80 -56 122c-5 27 6 46 31 61c7 -1 15 -3 24 -3c6 -8 13 -15 22 -23c4 2 9 3 16 4c0 -33 13 -61 27 -89c12 0 12 8 13 13c15 44 31 87 45 130c16 49 29 101 42 149c1 4 2 8 -2 12c-4 -8 -6 -14 -10 -22
c-10 -18 -20 -37 -30 -55c-12 -18 -25 -35 -52 -40c-7 -1 -12 -6 -16 -9h-43c-9 1 -16 1 -22 8zM113 136h3v9h-3v-9zM258 28h-2l1 -2zM299 807c-5 -8 -10 -14 -14 -22c-8 -11 -13 -20 -19 -33c-20 0 -40 13 -60 2c-6 8 -11 16 -18 23c12 36 28 71 48 106c5 11 10 20 25 29
c18 -5 38 -13 59 -18c7 -13 6 -26 6 -39v0c-9 0 -9 -7 -9 -13v4c-4 -4 -4 -8 -4 -13v0c-6 -3 -8 -7 -8 -13h2c-8 -2 -8 -7 -8 -13zM299 790v17v0c8 3 8 8 8 13h-2c8 2 8 8 8 13v0c4 2 4 7 4 13v-4c5 4 9 9 9 13v0c4 8 9 13 14 21c6 -2 6 -5 2 -10c-9 -26 -22 -53 -43 -76
c-9 -14 0 -14 0 0z" />
    <glyph glyph-name="Ydieresis" unicode="&#x178;" horiz-adv-x="397" 
d="M88 260l-1 -2c4 2 10 2 15 3c-7 11 -18 11 -28 13c-44 41 -69 87 -74 142c-7 68 5 134 29 201c4 18 12 37 21 58c5 14 14 29 32 39c22 2 46 -1 60 -19c0 -4 1 -7 0 -9c-23 -63 -35 -125 -41 -192c-4 -54 3 -108 22 -163c4 -11 8 -24 18 -33c9 -2 12 5 15 8
c12 17 25 35 36 55c17 31 33 63 48 95c11 21 18 42 36 60c1 2 2 5 2 9c18 37 35 73 38 113c1 8 2 16 11 26c17 5 31 1 47 -11c0 -9 0 -21 1 -30c1 -15 1 -31 2 -46v-14c-3 -36 -6 -71 -13 -107c-14 -98 -37 -196 -62 -295c-2 -5 -2 -14 -3 -21c-9 -7 -6 -15 -6 -22
c-10 -11 -13 -24 -14 -38c-5 -5 -4 -11 -4 -16c-4 -5 -6 -10 -8 -16c-1 -2 -2 -4 -1 -1c0 -3 0 0 0 2c9 3 7 10 8 15c6 4 4 10 4 16c11 12 15 25 15 38c8 6 6 13 6 23c9 5 8 16 9 24c20 76 40 152 54 228c4 28 12 53 16 82c2 9 3 17 4 27c2 1 3 2 8 2c0 4 0 10 -2 15
c-2 20 -3 41 7 61c3 10 0 24 0 34c-4 6 -9 9 -13 14c3 2 9 4 11 3c4 -2 11 -6 12 -9c3 -9 5 -17 6 -25c2 -46 -1 -89 -8 -132c-12 -83 -27 -167 -48 -250c-13 -48 -28 -98 -43 -146c-7 -18 -16 -36 -26 -54c-6 -11 -11 -19 -20 -25c-11 -11 -26 -18 -44 -16
c-18 4 -37 1 -55 -1c-28 -2 -55 7 -68 29c-27 39 -46 80 -56 122c-5 27 6 46 31 61c7 -1 15 -3 24 -3c6 -8 13 -15 22 -23c4 2 9 3 16 4c0 -33 13 -61 27 -89c12 0 12 8 13 13c15 44 31 87 45 130c16 49 29 101 42 149c1 4 2 8 -2 12c-4 -8 -6 -14 -10 -22
c-10 -18 -20 -37 -30 -55c-12 -18 -25 -35 -52 -40c-7 -1 -12 -6 -16 -9h-43c-9 1 -16 1 -22 8zM113 136h3v9h-3v-9zM258 28h-2l1 -2zM142 807c-8 26 -3 44 10 61c7 0 16 3 23 6c18 -6 35 -14 54 -20c15 -6 20 -19 20 -34c-3 -10 -3 -17 -11 -26c-22 -7 -45 9 -69 -4
c-10 4 -20 13 -27 17zM317 790c-10 4 -18 7 -28 9c-2 8 -8 16 -11 21c3 13 7 22 16 31c11 0 23 4 33 3c10 0 19 -8 28 0c13 -8 23 -14 30 -19c6 -15 0 -25 -7 -36c-16 -6 -28 -5 -41 -2c-7 -3 -15 -4 -20 -7z" />
    <glyph glyph-name="AE" unicode="&#xc6;" horiz-adv-x="681" 
d="M442 340h-4l1 -2zM395 65c0 3 -12 116 3 205l-6 -13s-19 -157 3 -203v11zM453 567c10 28 -5 18 -5 18s-44 -169 -50 -226l9 11s36 169 46 197zM49 123v3h-1zM664 634c5 -14 12 -27 7 -44c-7 -2 -14 -3 -24 -5c6 -6 12 -10 17 -15c-2 0 -4 -3 -5 -3c-6 -2 -12 -2 -18 -2
c-44 3 -89 7 -133 8h-31c-11 -23 -13 -49 -20 -73c-4 -26 -7 -52 -11 -76c-3 -25 -12 -48 -12 -75c8 -2 14 -3 19 -3h73c24 1 47 0 71 -6c3 -4 5 -9 9 -14c-6 -3 -9 -6 -13 -9h-155c8 -6 18 -6 29 -6c38 1 77 1 114 1c10 0 19 5 30 -4c3 -10 1 -20 -3 -31l-92 -6
c-30 -1 -62 -3 -89 -3c-10 -11 -10 -23 -12 -32c-9 -105 -9 -139 -3 -169c10 0 18 0 26 1c40 8 79 14 120 20c15 2 33 2 50 2c22 0 25 -2 42 -22v-3l-6 -8c4 -4 8 -8 11 -15l-7 -9v-15c-4 0 -5 -2 -7 -2c-25 5 -50 0 -76 -7c-48 -11 -99 -16 -148 -23c-5 -4 -8 -4 -20 -4
l-1 1c-32 -5 -66 -8 -99 -14c-13 -1 -27 0 -41 11c0 3 0 6 2 13c-9 10 -14 22 -6 36c15 12 24 1 39 12c-7 23 -9 48 -8 73c-5 28 -8 56 -12 84c0 2 -1 5 -3 10c-41 6 -80 -9 -118 -11c-13 -8 -15 -19 -18 -29c-15 -38 -29 -77 -43 -115c-3 -9 -7 -18 -12 -28
c-8 -1 -16 -2 -25 -4c-2 3 -4 6 -7 8c-7 -4 -15 -2 -21 3c-8 10 2 18 1 29c-3 1 -5 2 -9 6c4 17 10 35 14 53c5 18 17 34 14 55c-14 9 -25 -9 -39 -3l-4 18c17 21 43 21 65 33c9 22 18 45 26 69l129 335c5 14 10 28 20 40c6 7 8 17 12 26l11 26c25 5 44 -14 65 -14l29 -30
c2 -8 3 -18 3 -28v-6c6 3 12 5 18 10v2c7 16 12 35 25 48c13 6 26 6 38 0c21 -12 38 -21 50 -43c24 -2 48 -2 72 -4c24 0 47 -1 69 -3zM166 246c26 0 81 9 100 15c0 4 -1 7 -2 12c-25 6 -49 -8 -79 0c30 5 53 8 79 13v217c-2 -1 -3 -1 -4 -1l-96 -251v-3c0 -1 2 -1 2 -2z
" />
    <glyph glyph-name="Ccedilla" unicode="&#xc7;" horiz-adv-x="427" 
d="M76 455v-11c3 4 4 7 0 11v1c3 6 4 13 7 19c34 67 78 128 129 182c10 11 22 22 33 31c25 20 53 27 84 17c3 -2 8 -2 12 -3c9 14 17 27 25 38c27 9 44 -2 54 -21l14 -2c1 -4 3 -9 3 -11c-6 -17 -12 -31 -17 -46l9 -24l-40 -214c0 -1 -4 -4 -8 -6c-3 1 -8 2 -8 5
c-3 7 -5 13 -5 19c0 25 1 49 1 74c-2 -6 -4 -10 -4 -15l-9 -75l-34 23c-15 14 -20 32 -19 53c3 41 7 80 16 119c2 10 3 21 7 36c-8 -5 -13 -7 -17 -10c-11 -12 -23 -23 -32 -35c-84 -109 -143 -230 -174 -365c-9 -41 -11 -81 -9 -123c3 -24 6 -49 21 -72c20 6 35 18 51 31
c36 29 66 63 96 99l110 142c12 14 23 30 40 42c8 -2 16 -4 23 -5l22 -24c-7 -11 -12 -24 -20 -36c-49 -77 -103 -152 -163 -221c-14 -16 -29 -28 -45 -41c-19 -16 -41 -28 -70 -30c-6 0 -12 2 -18 3c-2 -13 -2 -27 -4 -41c12 -8 20 -14 32 -21c20 -8 31 -26 35 -46
c3 -20 -4 -40 -12 -57c0 0 -3 -2 -6 -2c-11 -16 -25 -18 -43 -18h-20c-29 0 -54 18 -71 40c-4 0 -4 2 -4 5c4 0 6 4 9 4c12 0 23 2 32 2c14 0 25 3 37 9c6 5 9 12 11 17c3 12 3 17 -2 26c-6 3 -6 -3 -12 -3c-11 -3 -11 9 -17 15c-3 0 -6 -3 -9 -3c-6 3 -15 5 -20 8
c0 14 7 45 14 71c-31 7 -53 28 -68 58c-13 26 -18 54 -19 81c-2 39 5 77 14 113c5 24 13 48 20 72c3 10 6 20 8 31l-12 -10c1 10 4 20 12 28v-17c7 9 11 19 12 29c-2 1 -4 1 -6 1c1 16 7 29 17 41l3 -6c2 2 3 4 4 7h-6zM405 682c-8 -10 -9 -22 -11 -40c7 16 12 27 11 40z
M166 -143l-11 -14c14 2 14 2 17 16c-3 -2 -3 -2 -6 -2zM370 516c7 9 4 19 1 29c-1 -10 -1 -19 -1 -29zM11 282c0 8 -1 16 4 22c0 -7 2 -15 -4 -22zM22 324c0 -7 1 -13 -6 -18c0 7 0 13 6 18zM28 342c0 6 0 13 6 17c0 -6 1 -12 -6 -17zM8 258c-4 12 -3 18 2 22
c0 -5 -1 -11 -2 -22zM22 325c1 6 0 12 6 16c-1 -6 0 -13 -6 -16zM52 401c0 -5 -1 -9 -6 -11c0 4 0 9 6 11zM383 605v-10c1 -1 2 -1 2 -1c1 4 1 7 1 11h-3zM0 244l1 1c1 -3 1 -6 1 -9c-1 0 -2 0 -2 -1v9zM58 402c2 2 5 3 1 7c-1 -3 -1 -4 -1 -7zM378 576v-11h1v11h-1z
M132 -155h-3s0 -2 3 -2v2zM15 304v2h1v-1zM10 280v1c0 1 1 1 1 1v-1zM70 444v-1h-1v1h1z" />
    <glyph glyph-name="OE" unicode="&#x152;" horiz-adv-x="710" 
d="M331 293v7h-2v-7h2zM471 340h-4l1 -2zM424 65c0 3 -12 116 3 205l-6 -13s-19 -157 3 -203v11zM482 567c10 28 -5 18 -5 18s-44 -169 -50 -226l9 11s36 169 46 197zM301 270l-1 -1h1c1 3 2 5 1 3c1 2 0 0 -1 -2zM312 301c6 1 5 6 6 11c7 4 7 12 7 18c3 6 8 13 10 20
c11 32 17 66 22 100c5 41 -3 81 -12 120c-2 9 -7 18 -12 27c-2 3 -6 6 -13 13c3 -11 4 -15 6 -20c13 -31 17 -64 18 -98c3 -45 -3 -89 -14 -133c-3 -10 -3 -20 -5 -29c-8 -5 -6 -12 -6 -18l-6 -12c-1 -2 -3 -4 -1 -1c0 -4 0 -1 0 2zM127 474c1 2 3 4 1 1c0 3 0 1 -1 -2
c-2 -3 -4 -8 -6 -11c-3 -7 -8 -12 -10 -19c-18 -46 -30 -95 -36 -144c-4 -29 -6 -57 -6 -87c0 -19 6 -38 10 -58c3 -9 7 -19 19 -22v-2l-1 1c-1 7 -1 13 -3 19c-9 27 -11 56 -11 84c-1 67 11 130 30 194c3 11 5 22 8 34c6 1 5 7 6 12zM253 593v1c-5 3 -10 5 -15 9
c-24 -21 -26 -48 -22 -79c-8 4 -14 6 -20 8c-27 -38 -44 -79 -55 -123s-20 -90 -23 -135c-4 -35 -3 -70 4 -105c2 -9 2 -20 13 -26c16 11 26 25 37 40c42 55 73 117 94 183c16 52 26 107 22 162c-2 25 -6 49 -16 72c-2 6 -5 11 -10 17c-4 -3 -9 -6 -12 -7c1 -7 2 -11 3 -17z
M304 525c0 0 0 -1 -1 -1v-59h1v60zM195 593c-7 -3 -10 -8 -7 -17c6 4 7 11 7 17zM144 603c-11 1 -15 -4 -15 -15c6 7 11 11 15 15zM297 553h1v10h-1v-10zM292 579v4c0 0 -1 0 -1 -1c0 0 0 -1 1 -3zM241 96h1c-1 8 5 13 11 18h-1c0 -8 -5 -13 -11 -18zM229 84h-1
c-4 -6 -9 -11 -17 -11v-1c4 6 10 11 18 12zM193 60l-1 1c-4 -7 -10 -7 -21 -3c11 1 17 1 22 2zM144 60c4 -1 8 -1 12 -2c-1 -1 -1 -2 -1 -3c-3 2 -7 4 -11 5zM265 126v12h-1h7h-1c-1 -4 -3 -8 -5 -12v0zM193 60l-1 1c4 1 9 3 12 5l1 -1c-4 -2 -8 -3 -12 -5zM211 73v-1
c-2 -2 -4 -4 -6 -7l-1 1zM235 90v-1c-2 -2 -4 -4 -6 -5h-1c3 1 5 4 7 6zM235 89v1c1 2 4 4 6 6h1c-3 -2 -5 -5 -7 -7zM258 120v-1l-5 -5h-1zM265 126c-2 -2 -4 -5 -7 -7v1c2 2 5 4 7 6zM277 143v1c-2 -2 -5 -4 -7 -6h1v6l-1 -1h7zM265 564l-1 -1c2 -3 5 -6 6 -10
c0 -1 -1 -4 -3 -7c-1 6 -2 12 -2 18zM264 563l1 1c-7 4 -7 11 -6 17h-1c8 -5 7 -11 6 -18zM253 594v-1c5 -2 5 -6 5 -12h1c-6 3 -6 7 -6 13zM264 138h1c-11 -10 -21 -20 -33 -30c-20 -16 -43 -24 -69 -24c-8 0 -16 0 -23 -1c-3 0 -6 -2 -9 -4c4 -7 9 -14 13 -19l-31 18
c-16 2 -36 10 -55 20c-21 10 -36 28 -44 50c-9 21 -13 44 -14 67c-3 50 5 99 15 148c3 17 9 32 7 50c-1 5 3 12 5 17c16 49 40 94 75 132c9 10 16 22 20 36c13 35 39 59 77 68c19 3 38 3 57 -1c32 -10 59 -23 81 -43c8 8 20 9 33 12c14 6 27 8 38 17v2c7 16 12 35 25 48
c13 6 26 6 38 0c21 -12 38 -21 50 -43c24 -2 48 -2 72 -4c24 0 47 -1 69 -3l31 -17c5 -14 12 -27 7 -44c-7 -2 -14 -3 -24 -5c6 -6 12 -10 17 -15c-2 0 -4 -3 -5 -3c-6 -2 -12 -2 -18 -2c-44 3 -89 7 -133 8h-31c-11 -23 -13 -49 -20 -73c-4 -26 -7 -52 -11 -76
c-3 -25 -12 -48 -12 -75c8 -2 14 -3 19 -3h73c24 1 47 0 71 -6c3 -4 5 -9 9 -14c-6 -3 -9 -6 -13 -9h-155c8 -6 18 -6 29 -6c38 1 77 1 114 1c10 0 19 5 30 -4c3 -10 1 -20 -3 -31l-92 -6c-30 -1 -62 -3 -89 -3c-10 -11 -10 -23 -12 -32c-9 -105 -9 -139 -3 -169
c10 0 18 0 26 1c40 8 79 14 120 20c15 2 33 2 50 2c22 0 25 -2 42 -22v-3l-6 -8c4 -4 8 -8 11 -15l-7 -9v-15c-4 0 -5 -2 -7 -2c-25 5 -50 0 -76 -7c-54 -13 -112 -18 -168 -26c-32 -5 -66 -8 -100 -14c-13 -1 -27 0 -41 11c0 3 0 6 2 13c-9 10 -14 22 -6 36
c15 12 24 1 39 12c-16 53 -5 114 1 176c-10 -19 -20 -38 -31 -56c-4 -7 -9 -11 -13 -17v-1h-7c-2 -2 -4 -4 -6 -5z" />
    <glyph glyph-name="Oslash" unicode="&#xd8;" 
d="M276 143l-5 -4v4v1l-1 -1c-2 -2 -4 -4 -6 -5h1c-11 -10 -21 -20 -33 -30c-20 -16 -43 -24 -69 -24c-8 0 -16 0 -23 -1c-3 0 -6 -2 -9 -4c4 -7 9 -14 13 -19l-31 18c-6 0 -13 2 -19 4l-22 -38c-8 -17 -14 -23 -27 -30c-5 7 -13 10 -15 10c-8 16 -16 23 -22 30
c4 11 5 23 11 31l16 29c-3 2 -5 5 -7 8c-7 -14 -15 -28 -23 -42c-8 -10 -16 -15 -25 -26c-1 4 1 7 2 11l37 71c-2 4 -4 8 -5 12c-9 21 -13 44 -14 67c-3 50 5 99 15 148c3 17 9 32 7 50c-1 5 3 12 5 17c16 49 40 94 75 132c9 10 16 22 20 36c13 35 39 59 77 68
c19 3 38 3 57 -1c12 -4 24 -8 35 -13l11 -6l24 46c4 12 8 21 18 25c7 -4 15 -11 24 -16c2 -9 7 -17 9 -23c-2 -12 -3 -23 -2 -34c-6 -14 -13 -28 -19 -43c14 -19 24 -42 29 -70c10 -58 7 -117 -9 -174c-18 -70 -49 -135 -86 -196c-4 -7 -9 -11 -13 -17zM265 604c0 2 0 5 2 7
l-5 6c-4 -3 -9 -6 -12 -7l3 -16c-5 3 -10 5 -15 9c-24 -21 -26 -48 -22 -79c-8 4 -14 6 -20 8c-27 -38 -44 -79 -55 -123c-5 -21 -10 -42 -14 -63l123 232l3 10c-1 1 0 3 0 5l1 -1c2 5 5 9 11 12c-1 -8 -4 -12 -5 -19c-1 -1 -2 -3 -2 -4l-135 -257c-2 -17 -4 -34 -5 -50v-1
c49 97 96 195 145 292c-5 4 -5 10 -4 15c5 -4 6 -8 5 -13c1 2 3 4 4 7l7 17l-3 9l-4 8zM266 366c8 27 15 56 19 84c-45 -92 -91 -182 -138 -270l-18 -32c1 -2 3 -4 6 -5c16 11 26 25 37 40c42 55 73 117 94 183zM330 359c-3 -10 -3 -20 -5 -29c3 6 8 13 10 20
c11 32 17 66 22 100c5 41 -3 81 -12 120c-1 1 -1 2 -1 4l-8 -17c5 -21 7 -43 8 -65c3 -45 -3 -89 -14 -133zM113 428c3 10 4 21 7 33c-3 -7 -7 -12 -9 -18c-18 -46 -30 -95 -36 -144c-3 -21 -5 -42 -6 -63c4 9 9 18 14 27c2 56 14 110 30 165zM75 229l-6 -12v-5
c0 -9 1 -18 3 -28l11 23v27v11zM195 593c-7 -3 -10 -8 -7 -17c6 4 7 11 7 17zM144 603c-11 1 -15 -4 -15 -15c6 7 11 11 15 15zM325 330c-8 -5 -6 -12 -6 -18c6 4 6 12 6 18zM252 113c0 -7 -5 -12 -10 -17c-1 8 4 13 10 17zM211 73c4 5 10 9 17 11c-4 -6 -9 -11 -17 -11z
M171 58c9 1 15 1 20 1c-4 -5 -10 -5 -20 -1zM265 126v12h5c-1 -4 -3 -8 -5 -12zM303 465h1v24c-1 0 -1 -1 -1 -2v-22zM211 73v-1l-6 -7l-12 -5l-1 1c4 1 9 3 12 5zM121 462c5 1 5 5 5 10c-2 -3 -3 -8 -5 -10zM155 55l-9 4c3 0 6 0 10 -1c-1 -1 -1 -2 -1 -3zM265 126
c-2 -2 -4 -5 -7 -7l-5 -5h-1l6 6zM235 89c-2 -2 -4 -4 -6 -5h-1c3 1 5 4 7 6c1 2 4 4 6 6h1c-3 -2 -5 -5 -7 -7zM313 301c3 1 4 4 4 8zM265 564l-1 -1c0 -1 0 -1 1 -2v3zM301 270l-1 -1h1c1 3 2 5 1 3zM193 60l-1 1c-1 -1 -1 -1 -1 -2c0 0 1 1 2 1zM270 138h1v1zM264 563
l1 1h-1v-1zM128 475c0 1 0 1 -1 0h1zM241 96h1h-1zM259 581h-1s0 -1 1 -1v1zM252 114v-1s0 1 1 1h-1zM211 73v-1v1zM259 581h-1h1z" />
    <glyph glyph-name="oe" unicode="&#x153;" horiz-adv-x="710" 
d="M331 293v7h-2v-7h2zM471 340h-4l1 -2zM424 65c0 3 -12 116 3 205l-6 -13s-19 -157 3 -203v11zM482 567c10 28 -5 18 -5 18s-44 -169 -50 -226l9 11s36 169 46 197zM301 270l-1 -1h1c1 3 2 5 1 3c1 2 0 0 -1 -2zM312 301c6 1 5 6 6 11c7 4 7 12 7 18c3 6 8 13 10 20
c11 32 17 66 22 100c5 41 -3 81 -12 120c-2 9 -7 18 -12 27c-2 3 -6 6 -13 13c3 -11 4 -15 6 -20c13 -31 17 -64 18 -98c3 -45 -3 -89 -14 -133c-3 -10 -3 -20 -5 -29c-8 -5 -6 -12 -6 -18l-6 -12c-1 -2 -3 -4 -1 -1c0 -4 0 -1 0 2zM127 474c1 2 3 4 1 1c0 3 0 1 -1 -2
c-2 -3 -4 -8 -6 -11c-3 -7 -8 -12 -10 -19c-18 -46 -30 -95 -36 -144c-4 -29 -6 -57 -6 -87c0 -19 6 -38 10 -58c3 -9 7 -19 19 -22v-2l-1 1c-1 7 -1 13 -3 19c-9 27 -11 56 -11 84c-1 67 11 130 30 194c3 11 5 22 8 34c6 1 5 7 6 12zM253 593v1c-5 3 -10 5 -15 9
c-24 -21 -26 -48 -22 -79c-8 4 -14 6 -20 8c-27 -38 -44 -79 -55 -123s-20 -90 -23 -135c-4 -35 -3 -70 4 -105c2 -9 2 -20 13 -26c16 11 26 25 37 40c42 55 73 117 94 183c16 52 26 107 22 162c-2 25 -6 49 -16 72c-2 6 -5 11 -10 17c-4 -3 -9 -6 -12 -7c1 -7 2 -11 3 -17z
M304 525c0 0 0 -1 -1 -1v-59h1v60zM195 593c-7 -3 -10 -8 -7 -17c6 4 7 11 7 17zM144 603c-11 1 -15 -4 -15 -15c6 7 11 11 15 15zM297 553h1v10h-1v-10zM292 579v4c0 0 -1 0 -1 -1c0 0 0 -1 1 -3zM241 96h1c-1 8 5 13 11 18h-1c0 -8 -5 -13 -11 -18zM229 84h-1
c-4 -6 -9 -11 -17 -11v-1c4 6 10 11 18 12zM193 60l-1 1c-4 -7 -10 -7 -21 -3c11 1 17 1 22 2zM144 60c4 -1 8 -1 12 -2c-1 -1 -1 -2 -1 -3c-3 2 -7 4 -11 5zM265 126v12h-1h7h-1c-1 -4 -3 -8 -5 -12v0zM193 60l-1 1c4 1 9 3 12 5l1 -1c-4 -2 -8 -3 -12 -5zM211 73v-1
c-2 -2 -4 -4 -6 -7l-1 1zM235 90v-1c-2 -2 -4 -4 -6 -5h-1c3 1 5 4 7 6zM235 89v1c1 2 4 4 6 6h1c-3 -2 -5 -5 -7 -7zM258 120v-1l-5 -5h-1zM265 126c-2 -2 -4 -5 -7 -7v1c2 2 5 4 7 6zM277 143v1c-2 -2 -5 -4 -7 -6h1v6l-1 -1h7zM265 564l-1 -1c2 -3 5 -6 6 -10
c0 -1 -1 -4 -3 -7c-1 6 -2 12 -2 18zM264 563l1 1c-7 4 -7 11 -6 17h-1c8 -5 7 -11 6 -18zM253 594v-1c5 -2 5 -6 5 -12h1c-6 3 -6 7 -6 13zM264 138h1c-11 -10 -21 -20 -33 -30c-20 -16 -43 -24 -69 -24c-8 0 -16 0 -23 -1c-3 0 -6 -2 -9 -4c4 -7 9 -14 13 -19l-31 18
c-16 2 -36 10 -55 20c-21 10 -36 28 -44 50c-9 21 -13 44 -14 67c-3 50 5 99 15 148c3 17 9 32 7 50c-1 5 3 12 5 17c16 49 40 94 75 132c9 10 16 22 20 36c13 35 39 59 77 68c19 3 38 3 57 -1c32 -10 59 -23 81 -43c8 8 20 9 33 12c14 6 27 8 38 17v2c7 16 12 35 25 48
c13 6 26 6 38 0c21 -12 38 -21 50 -43c24 -2 48 -2 72 -4c24 0 47 -1 69 -3l31 -17c5 -14 12 -27 7 -44c-7 -2 -14 -3 -24 -5c6 -6 12 -10 17 -15c-2 0 -4 -3 -5 -3c-6 -2 -12 -2 -18 -2c-44 3 -89 7 -133 8h-31c-11 -23 -13 -49 -20 -73c-4 -26 -7 -52 -11 -76
c-3 -25 -12 -48 -12 -75c8 -2 14 -3 19 -3h73c24 1 47 0 71 -6c3 -4 5 -9 9 -14c-6 -3 -9 -6 -13 -9h-155c8 -6 18 -6 29 -6c38 1 77 1 114 1c10 0 19 5 30 -4c3 -10 1 -20 -3 -31l-92 -6c-30 -1 -62 -3 -89 -3c-10 -11 -10 -23 -12 -32c-9 -105 -9 -139 -3 -169
c10 0 18 0 26 1c40 8 79 14 120 20c15 2 33 2 50 2c22 0 25 -2 42 -22v-3l-6 -8c4 -4 8 -8 11 -15l-7 -9v-15c-4 0 -5 -2 -7 -2c-25 5 -50 0 -76 -7c-54 -13 -112 -18 -168 -26c-32 -5 -66 -8 -100 -14c-13 -1 -27 0 -41 11c0 3 0 6 2 13c-9 10 -14 22 -6 36
c15 12 24 1 39 12c-16 53 -5 114 1 176c-10 -19 -20 -38 -31 -56c-4 -7 -9 -11 -13 -17v-1h-7c-2 -2 -4 -4 -6 -5z" />
    <glyph glyph-name="Euro" unicode="&#x20ac;" horiz-adv-x="615" 
d="M549 84c10 4 10 22 20 30c4 -5 11 -5 15 -8c0 -8 0 -15 -4 -18c-11 -28 -28 -51 -50 -70c-46 -39 -101 -64 -159 -74c-29 -4 -53 -7 -80 -11c-28 -4 -60 0 -89 7c-22 7 -43 14 -62 21c-21 11 -39 26 -53 44c-15 17 -30 39 -37 65c-10 28 -17 61 -21 93c0 11 0 26 -4 36
c-8 4 -19 8 -25 16c10 10 17 17 29 24c4 25 4 51 7 72c-7 15 -30 11 -36 29c4 0 6 7 14 7c11 4 22 9 32 12c4 9 4 21 8 32c10 36 24 72 43 105c14 20 25 43 40 61c54 65 122 89 202 86c44 -2 83 -18 120 -39c21 -15 35 -29 45 -51c11 -18 15 -40 8 -61c-4 0 -4 -5 -8 -7h-7
c-7 21 -3 43 -20 60v0c0 -10 3 -20 3 -32c0 -9 4 -26 -3 -32c-17 -8 -23 0 -29 6c-8 17 0 34 -13 45c0 3 -3 7 -3 13v0v0c0 -6 3 -10 8 -13v-33c-33 61 -36 69 -73 94c-17 4 -36 -7 -49 -18c-18 -11 -37 -26 -51 -43c-36 -47 -58 -98 -76 -152v-8c25 -7 50 4 76 4
c24 0 51 4 75 8c25 3 51 3 77 0c3 0 6 -4 10 -8c3 0 6 -4 11 -8c-5 -3 -8 -5 -11 -9c-83 -12 -166 -23 -245 -33c-11 -22 -19 -47 -15 -76c4 0 11 -4 15 -4c43 4 83 8 122 12c23 0 44 2 61 2c19 0 37 -2 48 -17c0 -8 -3 -11 -8 -11c-11 -4 -18 -7 -29 -7
c-47 -7 -94 -10 -140 -14c-22 -4 -44 -4 -61 -8c-4 0 -8 -4 -12 -4c-3 -17 0 -32 0 -49c4 -36 12 -73 29 -102c8 -18 19 -33 28 -46c16 -19 37 -25 62 -25c83 6 170 49 213 125c11 4 22 17 40 15c7 -8 12 -22 12 -33c-5 -3 -5 -7 -8 -10v-4v4c3 3 3 7 8 10zM169 449
c4 0 4 3 4 0v0c-4 -4 -8 -11 -8 -15c-18 -29 -25 -50 -22 -71c0 5 4 9 4 17c8 18 12 36 18 54c0 8 4 11 4 15zM119 196c-18 -50 3 -134 43 -178c-15 33 -25 63 -29 91c-3 29 -11 58 -14 87zM119 243c3 3 3 3 3 7c4 22 8 44 11 65c0 0 -3 0 -7 3c-4 -7 -4 -14 -7 -21
c-4 -18 -4 -33 -8 -47c0 -4 4 -4 8 -7z" />
    <glyph glyph-name="cent" unicode="&#xa2;" horiz-adv-x="405" 
d="M324 424c3 -15 12 -30 3 -48c-20 -4 -39 4 -50 22c-7 7 -14 18 -25 29c0 -3 -3 -3 -3 -7c-4 -61 -7 -123 -11 -185v-3c4 0 11 0 14 3c16 8 33 19 43 37c4 3 12 11 18 18h30c3 -11 6 -18 6 -30c7 8 16 12 26 19c-3 -11 -3 -15 -3 -19c-7 -17 -23 -28 -36 -38
c-23 -15 -44 -31 -68 -44c-13 -4 -23 -8 -30 -11c-11 -29 -7 -53 -11 -83c-14 -7 -14 -7 -29 -3c-3 21 0 43 -3 69c-8 -26 0 -48 -8 -73c-8 0 -11 4 -17 4c0 21 -4 38 -4 62h-15c-32 -5 -61 3 -85 13c-19 7 -31 18 -41 33c0 7 -3 10 -11 22v-29v0c-8 14 -11 29 -11 46
c3 62 22 119 58 170c26 33 58 58 98 72c11 0 17 3 24 8c15 32 -4 63 12 90c18 10 32 3 50 0c4 -29 4 -58 7 -87c16 -3 25 -11 36 -14c36 -11 58 -33 64 -69c-6 -4 -6 3 -9 7c-7 4 -7 15 -19 19h-4h4zM208 405c0 -11 -3 -18 -3 -25c-3 -54 -7 -105 -10 -158v-15
c7 18 10 65 13 198c0 0 5 4 0 0v0zM179 394c-7 -3 -7 -7 -9 -7c-27 -31 -40 -69 -45 -104c-2 -33 -2 -61 15 -92c0 0 3 -2 8 -5c7 3 15 5 24 10c0 64 7 130 7 198zM114 340c-17 -29 -27 -65 -24 -94c0 -18 4 -31 17 -47c0 26 -3 47 -3 69c0 26 7 47 10 72zM54 138h-4
c7 0 16 0 22 -4c-11 -3 -15 -3 -18 4zM22 167c-8 3 -8 7 -8 15v0c8 -4 8 -8 8 -15c3 0 7 -7 7 -11v0c-7 4 -7 7 -7 11zM54 138h-4c-3 0 -8 5 -10 5v3c2 -3 7 -8 14 -8zM29 156c0 -3 2 -3 2 -6v0c0 3 -2 3 -2 6zM31 150c4 0 4 -4 9 -4v-3c-5 3 -5 7 -9 7z" />
    <glyph glyph-name="sterling" unicode="&#xa3;" horiz-adv-x="505" 
d="M116 -71v0v0v0v0zM480 -23c-11 -5 -22 -5 -36 -5v-14c3 -4 7 -4 14 -8h-3c-21 4 -44 8 -65 8c-25 3 -54 7 -80 11c4 -4 12 -4 15 -8c4 0 11 0 14 -7c-25 4 -49 4 -75 4c-6 0 -14 3 -26 3h-69h-17c-3 -7 -3 -11 -7 -21c-4 0 -11 -3 -17 -3v-4v0l-5 -4s0 4 -3 4v0l-4 -4
c-3 4 -6 8 -11 11c-3 -3 -8 -7 -14 -15c-7 0 -15 -3 -25 -3c-10 7 -22 11 -34 18c-6 -3 -10 -7 -13 -15c-8 0 -8 -10 -15 -6c-3 6 4 14 4 21c3 10 3 18 7 29c14 36 17 72 25 112c12 57 22 115 33 173v6c-7 4 -11 8 -17 8c-12 0 -27 7 -41 11c17 8 41 -7 58 0
c-17 11 -36 18 -51 29c0 10 7 14 15 14c11 4 21 4 36 4c7 4 14 4 20 4c4 10 9 17 9 26c14 57 29 114 50 172c11 25 22 50 36 76c11 18 29 32 46 42c24 12 45 12 66 0c6 -3 18 -5 29 -14c10 -7 14 -22 7 -39c-3 7 -7 14 -14 21c-8 -14 0 -32 -12 -43c-7 -7 -20 0 -31 -3
c-11 -15 -18 -33 -21 -55c-13 -50 -24 -104 -37 -157c0 -13 -4 -23 0 -38h24c19 -3 34 -3 52 -7c9 0 21 0 32 -10c7 -4 14 -4 22 -7c7 0 14 -4 25 -7c-7 -8 -7 -12 -11 -15c-11 -8 -22 -12 -36 -12c-23 0 -39 0 -61 -2c25 -4 50 -4 75 -8h-137c-7 -22 -26 -131 -32 -220
c3 0 3 -4 6 -4c65 8 126 0 193 -11c25 -6 50 -13 71 -17c14 -4 25 -8 36 -15v-6zM234 264v0h-21v0h21zM234 535c-6 -10 -9 -22 -9 -31c7 6 9 17 9 31zM180 356v-16c5 0 5 3 5 7c14 44 25 91 36 134c4 6 4 15 4 18c-4 0 -4 -3 -8 -3c-14 -47 -24 -95 -37 -140zM180 336
c-3 -3 -3 -3 0 -10v10zM37 5c3 0 3 0 3 -3v13c0 -3 0 -6 -3 -10zM56 55c10 62 17 127 28 191v12c-8 -8 -8 -19 -11 -26c-7 -41 -11 -76 -17 -115l-12 -99c8 8 8 23 12 37zM163 246c-7 -21 -11 -47 -11 -68c7 21 11 44 11 68zM131 34v10v0v-10zM138 91c-4 -7 -4 -17 0 -24v24
zM138 95c11 11 7 24 7 36c-7 -12 -4 -25 -7 -36zM145 134c7 12 7 26 7 40c-7 -14 -7 -28 -7 -40zM228 -31h78c-24 8 -53 3 -78 0zM339 -46v0v0v0v0zM358 -46c-7 -4 -11 -4 -19 0h19zM120 -85c-4 7 -4 10 -4 14h4v-14zM120 -71v0h3v0h-3v0z" />
    <glyph glyph-name="exclamdown" unicode="&#xa1;" horiz-adv-x="245" 
d="M158 322c7 -7 9 -10 17 -15v-48c-5 -46 -8 -92 -10 -138c-2 -40 -11 -81 -15 -121c-8 -59 -19 -114 -28 -170c-3 -11 -4 -23 -7 -33c-4 -10 -6 -19 -18 -26c-11 0 -18 3 -27 3c-1 4 -4 8 -4 13c-5 -3 -10 -3 -16 -5c-4 2 -12 7 -16 9c-13 19 -12 39 -9 59
c9 53 16 106 23 158c6 53 13 109 21 161c5 41 10 85 14 126c0 9 0 20 8 27c11 7 20 5 31 0c12 -5 25 -7 36 0zM122 424c-18 7 -39 18 -53 35c-23 28 -21 61 13 87c11 0 24 -3 37 -3c12 -3 26 0 35 0c57 -33 61 -81 18 -124c-18 -6 -32 -2 -50 5zM10 -190
c-15 4 -23 15 -21 29c4 19 4 39 6 56c10 59 18 115 21 170c5 46 14 90 20 133c5 32 12 66 18 99c2 7 2 18 9 25h11c-5 -35 -8 -68 -11 -102c-5 -35 -9 -68 -13 -101c-4 -36 -9 -70 -12 -106c-4 -34 -8 -66 -16 -102c-4 -33 -1 -68 -12 -101zM0 58v-22h-5v22l3 3z" />
    <glyph glyph-name="currency" unicode="&#xa4;" horiz-adv-x="377" 
d="M265 218c10 -27 17 -51 32 -75c8 -12 18 -26 26 -37c0 -8 -8 -11 -18 -11c-4 3 -11 7 -15 11c-4 3 -8 8 -8 8c-7 13 -17 32 -24 46s-11 31 -25 47c0 -4 -4 -8 0 -8c3 -25 14 -46 29 -68c3 -7 9 -14 20 -17c0 0 4 -5 8 -8c-4 -4 -4 -8 -4 -11c-17 -4 -28 3 -35 14
c-13 10 -18 22 -26 34c-7 10 -15 24 -19 31c-9 15 -28 15 -42 15c-18 -3 -40 -11 -54 -22c-4 0 -4 3 -8 3c-10 -10 -10 -24 -14 -36c-32 -10 -32 -10 -50 12c3 10 3 21 7 28c3 12 7 17 7 29v0c4 4 7 8 13 12c-9 13 -20 24 -27 39c-5 -8 -5 -11 -5 -15v4c-3 0 -6 3 -6 7
c-3 37 0 72 14 109c11 17 18 35 28 54c-17 25 -42 39 -58 65c4 3 9 7 9 9h7c6 -6 14 -9 18 -17c3 0 3 -3 7 -3c0 -4 4 -4 7 -8c0 0 3 -3 3 -7c3 0 3 -3 7 -3c0 -4 5 -4 8 -7v0v0c-3 0 -8 3 -8 7c-4 0 -4 3 -7 3c0 4 -3 4 -6 7c0 0 -4 4 -4 8c-4 0 -4 3 -7 3c3 8 0 17 11 26
c25 0 36 -23 54 -37c28 11 57 8 87 4h41c13 -4 27 -11 44 -18c8 4 15 14 23 22c5 6 14 14 21 20c3 5 11 9 18 0c-3 -14 -15 -20 -21 -31c-8 -11 -15 -22 -22 -32c9 -9 15 -25 22 -37c11 -28 11 -57 0 -83c-8 -25 -22 -50 -41 -69v0h-7v0c0 -3 -4 -3 -6 -7v0s-4 -3 -4 -6v0
v-4v0zM178 416h-7v-15c-7 -7 -14 -10 -22 -14c-3 -11 -7 -22 -11 -31c-4 -26 -7 -48 0 -73c4 -19 11 -37 29 -48c26 15 43 37 58 59c4 14 8 24 4 39c-4 10 -4 18 -7 30c3 0 7 -4 11 -7c-4 24 -15 42 -30 60c-3 4 -10 8 -14 11h-8c0 -3 -3 -7 -3 -11zM128 189h3v0v0h-3z
M52 203c-14 12 -22 22 -19 40v-4c8 -7 15 -21 19 -36zM326 431v-4c0 11 3 18 11 18v4c0 -11 -3 -15 -11 -18zM337 445v4v0v-4zM326 431v-4h-3zM282 235l-7 -7v0v7v0h7zM275 228c0 0 -4 -3 -6 -6h2c-2 3 -2 6 -2 6v0h6zM271 222h-2l-4 -4v0v4v0h6zM178 416
c15 -3 22 -11 25 -25c-6 10 -18 18 -25 25zM210 387c0 -3 3 -11 3 -15c-3 4 -3 8 -3 15zM213 376c9 -4 9 -11 9 -13c-4 2 -4 5 -9 13zM203 394c0 -3 3 -7 7 -7c-4 0 -7 4 -7 7z" />
    <glyph glyph-name="yen" unicode="&#xa5;" horiz-adv-x="494" 
d="M124 478l29 -29c22 -22 47 -44 68 -65c4 -4 8 -4 12 -8c7 8 11 15 14 25c-26 26 -51 55 -72 80c-25 29 -48 54 -68 83c-23 29 -44 58 -66 87c0 14 0 26 -4 35c22 7 22 7 52 -4c-5 -2 -5 -2 -9 -5c12 -16 19 -31 29 -45c26 -28 47 -57 76 -83c26 -21 48 -45 72 -71
c4 -8 12 -11 15 -19c11 0 11 8 14 14c22 33 40 62 58 95c11 14 22 29 33 39c17 25 36 48 72 48c7 0 14 -12 25 -9c15 0 25 -5 32 -21c-7 -8 -10 -15 -17 -18c-15 -10 -26 -25 -33 -39c-17 -27 -32 -52 -47 -81c-24 -49 -51 -103 -80 -157c0 -4 -3 -12 -7 -19
c15 -3 22 -3 30 -3c21 -4 42 -4 64 -7c15 0 26 -7 36 -11c8 -3 11 -11 18 -15c-7 -11 -14 -15 -18 -21c-21 0 -43 -4 -58 18c-9 0 -21 3 -33 3h-49c-15 -15 -22 -32 -29 -50c54 -7 105 0 156 -18c3 -8 10 -16 13 -18c0 -11 -6 -15 -13 -11c-15 0 -34 0 -48 4
c-6 0 -14 4 -25 4c3 -4 3 -8 3 -8v-4c-36 0 -72 15 -112 0c-28 -65 -61 -130 -89 -187c-12 -10 -25 -10 -37 -10c-7 10 -18 -5 -28 2c-11 4 -23 8 -32 11c0 -3 -4 -3 -8 -3v0c0 3 -4 7 -4 15c0 7 4 16 12 28c13 37 32 72 50 108c3 12 6 18 10 25c-4 15 -14 11 -24 11
c-15 0 -27 0 -40 4c-4 4 -8 4 -12 8c0 0 0 3 -3 5c28 27 72 16 104 27c8 14 19 28 23 42c-4 12 -11 8 -19 8h-64c-7 0 -16 4 -22 7c-7 0 -7 4 -15 19c8 7 15 7 21 7c33 3 66 3 95 3c10 4 17 4 25 4c11 18 21 39 29 57c-33 29 -61 59 -90 91c-8 7 -15 11 -15 22zM63 -13
c-4 -4 -8 -10 -11 -18c-4 14 3 14 11 18zM107 496c-8 3 -11 10 -11 17h-4c7 -3 15 -9 15 -17zM2 646c0 5 -3 5 0 5v-5zM8 636c-6 0 -6 7 -6 10v0c3 -3 3 -5 6 -10zM16 622h-4c0 3 -4 10 -4 14v0c0 -4 4 -7 8 -14zM27 604c-4 3 -4 6 -7 13v0c3 -3 3 -10 7 -13zM37 586
c0 3 -3 7 -3 14v0c0 -3 3 -11 3 -14zM44 578v4c4 -4 4 -11 8 -14h-4c0 3 -4 7 -4 10zM55 560v4c4 -7 4 -11 8 -15v0c-4 4 -4 8 -8 11zM80 525c-3 3 -3 10 -6 14v0c3 -4 3 -7 6 -14zM59 170h-4v0v0h4zM12 622h4l4 -5v0s-4 5 -8 5zM34 600c-4 0 -7 4 -7 4v0c3 0 3 -4 7 -4z
M37 586c4 0 4 -4 7 -4v-4c-3 4 -3 8 -7 8zM48 568h4l3 -4v-4c0 4 -3 8 -7 8zM71 545v-4l-8 8v0c4 0 4 -4 8 -4zM71 541v4c0 -4 3 -6 3 -6v0zM80 525c4 0 4 -4 9 -4v0c-5 0 -9 4 -9 4zM89 521c0 -5 3 -5 7 -8h-4c0 3 -3 3 -3 8zM109 487c4 0 8 -2 8 -2v0c-4 0 -4 2 -8 2
c0 5 -2 5 -2 9v0s2 -4 2 -9zM117 485l7 -7v0c-3 0 -3 3 -7 7z" />
    <glyph glyph-name="questiondown" unicode="&#xbf;" horiz-adv-x="408" 
d="M-3 -68c-3 18 2 36 7 52c10 25 26 48 41 68c25 27 48 58 73 86c38 43 74 92 110 139c20 31 38 64 45 102c3 0 5 2 5 2c2 0 8 0 11 3c4 -5 9 -7 12 -12c5 -4 10 -6 17 -8c3 -26 3 -48 -2 -73c-2 -8 -5 -16 -7 -24c18 24 25 51 25 78c7 3 13 0 16 -4c14 -18 17 -41 9 -64
c-12 -45 -30 -86 -53 -126c-5 -6 -8 -13 -10 -18v0v0v0v0v-3v3c-3 -3 -3 -5 -5 -7v0v0v0v0v0v2c-2 -2 -5 -6 -5 -8v0h-2c-4 -5 -8 -13 -11 -18c-3 -2 -4 -5 -7 -5v-3v0v3c0 -3 -3 -4 -6 -7v0v0v0c-3 -3 -4 -3 -4 -5v0h-3h3c-19 -6 -31 -20 -44 -31
c-40 -36 -76 -70 -109 -115c-10 -9 -17 -24 -26 -40c-2 -5 -5 -12 0 -23c3 0 6 -2 9 -2c4 8 7 15 13 20c0 -5 0 -12 2 -18c68 -14 162 40 200 115c13 6 17 0 26 -7v-7c7 -34 -6 -68 -34 -93c-2 -2 -4 -8 -7 -10c25 10 39 30 51 53c8 10 0 21 0 30c4 6 10 3 13 -2
c4 -7 9 -18 4 -28c0 -4 -2 -8 3 -12l2 1l-2 -1v0v0v0v0c0 -12 -10 -21 -18 -28c-48 -56 -109 -86 -183 -89c-32 0 -61 9 -90 23c-6 2 -12 7 -14 10c-30 27 -48 63 -55 101zM309 262v0zM72 -63c-14 -7 -22 -22 -25 -38c0 -3 3 -5 3 -10c10 18 16 34 22 48zM301 463
c-23 7 -32 23 -35 45c0 8 -3 18 -6 28c9 21 31 23 49 28c5 -2 9 -5 16 -7c0 2 2 2 2 5c14 -11 32 -20 48 -31v0c2 0 4 -2 11 -5c9 -33 -19 -53 -32 -76c-27 -10 -29 -10 -45 8c-3 3 -5 3 -8 5zM375 531c-3 -2 -3 -8 -5 -9h7c0 1 -2 4 -2 9zM377 336h2v-4h-2v4zM99 -101
c0 4 0 5 4 8c-2 -3 -2 -4 -4 -8v-3v-2v2v3zM111 -81c-3 -3 -5 -7 -8 -12v0v2c3 3 5 7 5 10l3 4v-4zM291 120v0v0v0v0v0zM286 110v10h5c-2 -5 -5 -7 -5 -10zM256 79v6h4c-3 -4 -4 -6 -4 -6zM256 77v2v-2c-3 -3 -6 -3 -8 -5c-3 -2 -3 -5 -5 -7v2s2 3 5 5v0v0c2 2 5 2 8 5z
M260 85v0v0v0v0c3 2 3 2 6 5h-6v-5zM270 94h3v0h-3zM269 90c-3 3 -3 4 -3 4h4s-1 -1 -1 -4zM266 90v0h3v0h-3v0zM273 97v5h5c-2 -2 -2 -5 -5 -5zM273 102v0v0v0v0zM273 94v3v-3zM278 102c2 4 6 5 6 5c2 0 2 3 2 3v-3c-2 -1 -6 -5 -8 -5v0v0zM291 120v6h5c-3 0 -3 -4 -5 -6z
M296 126v0v2v-2v0zM298 128h-2v2c2 0 2 -2 2 -2z" />
    <glyph glyph-name="backslash" unicode="\" horiz-adv-x="383" 
d="M161 384c0 3 0 10 -2 17c-27 86 -63 170 -103 257c-6 15 -13 24 -21 43c-4 8 -4 15 8 21c9 -6 25 -10 39 -17c8 -16 14 -25 21 -40c36 -72 69 -149 97 -223c51 -131 99 -264 149 -394c0 -7 3 -11 3 -18c-3 -25 -28 -21 -43 -28c-7 3 -10 7 -14 10v0c-3 18 -7 36 -18 50v0
c0 8 0 15 -8 19v0c0 7 0 14 -6 17h2c-2 8 -6 11 -6 19v0c-4 17 -8 33 -18 50v-4c0 7 0 15 -7 23v-4c0 7 -4 14 -8 21l4 -4c-4 8 -7 16 -7 23v-4c-3 7 -3 10 -7 14v0c0 7 0 14 -8 18v0c0 8 4 14 -4 18v0c-4 7 -4 11 -8 19v0c0 3 0 10 -6 14v-4c0 7 4 14 -3 21v-3
c0 7 0 15 -8 21v-3c0 14 -3 26 -10 32v0c0 7 0 15 -8 19zM90 467c6 0 10 -4 13 -8c4 -7 7 -10 12 -14c0 -3 -5 -7 3 -7c-3 4 -3 4 -3 7c-5 7 -8 14 -8 22c-28 72 -61 140 -93 206c-3 9 -7 16 -11 24c0 4 4 8 4 12c7 3 13 0 13 -8c7 -12 19 -24 23 -40
c36 -86 72 -176 109 -263c2 -7 7 -11 9 -14v0c0 -8 0 -16 8 -19v0c0 -9 3 -22 10 -32v3c0 -6 0 -14 8 -21v3c0 -7 3 -14 3 -21v4c4 -7 6 -11 6 -14v0c0 -8 0 -15 8 -19v0c0 -8 4 -10 4 -18v0c4 -7 8 -11 8 -18v0c4 -4 4 -7 7 -14v4c0 -7 0 -15 7 -23l-4 4c4 -7 0 -14 8 -21
v4c3 -8 3 -16 7 -23v4c3 -17 7 -36 18 -50v0c0 -8 0 -15 6 -19h-2c2 -7 0 -14 6 -17v0c0 -7 0 -14 8 -19v0c3 -18 7 -36 18 -50v0c0 -3 0 -7 -3 -10c-15 0 -23 7 -33 13c-8 26 -18 52 -29 80c-43 112 -87 223 -130 336c-4 11 -7 25 -10 36zM136 384v3v-3l3 -4s0 4 -3 4z
M125 416c0 -3 0 -7 0 -3c3 -4 0 0 0 0c0 3 -3 7 -3 14c0 -7 0 -11 3 -11zM147 359v4l-4 -4h4zM159 330v-4v4v0zM82 481c-7 6 -11 18 -11 29v0c8 -6 11 -18 11 -29zM64 525c-8 3 -3 10 -8 16v0c8 -6 8 -13 8 -16zM46 564v4c-7 3 -3 10 -7 14v0c7 -4 7 -11 7 -18zM27 607
c-3 7 -3 15 -7 18v0c7 -3 7 -11 7 -18zM3 669c-5 4 -5 8 0 11v-11zM52 553c0 -4 4 -8 4 -12v0c0 4 -4 8 -4 12zM3 669c4 -4 4 -4 4 0c0 -4 0 -4 -4 0zM18 641c-4 0 -4 2 -4 0c0 2 0 0 4 0zM20 625c0 4 -2 7 -2 16v0c0 -5 2 -12 2 -16zM27 607c4 -3 4 -7 8 -10v0
c-4 3 -8 7 -8 10zM39 582c-4 4 -4 11 -4 15v0c0 -4 4 -11 4 -15zM46 564v4c4 -8 4 -11 6 -15v0c-2 4 -6 7 -6 11zM71 510c-3 3 -3 6 -7 15v0c4 -4 4 -12 7 -15zM90 467c-8 3 -8 11 -8 14v0c8 -3 8 -8 8 -14z" />
    <glyph glyph-name="bar" unicode="|" horiz-adv-x="185" 
d="M82 311v-443c-3 -19 -7 -32 -11 -47h-18c-8 7 -11 15 -19 21c-4 -3 -7 -10 -10 -18c-4 4 -8 8 -8 12c0 10 -3 21 -3 32c-7 169 -7 339 -3 508c0 29 3 62 3 91c0 25 0 49 3 72c4 10 4 18 4 29c0 61 -4 118 -4 181c0 13 4 32 4 46c4 4 10 8 14 11h33c8 -55 8 -109 8 -165
c0 -55 0 -109 4 -168c6 0 3 5 3 8v94v71c0 43 -3 84 -3 123v30c13 4 21 -4 24 -15c4 -11 8 -22 8 -35c9 -103 17 -208 21 -307c0 -70 0 -138 4 -207c7 -126 4 -252 4 -378c-8 -11 -12 -18 -22 -25c-4 -4 -15 -8 -23 -11l-7 7c0 18 -3 36 -3 49v420v18zM27 -100h3v11v220h-3
v-126v-105zM10 541c-4 73 -4 141 0 210c3 -25 6 -151 0 -210z" />
    <glyph glyph-name="underscore" unicode="_" horiz-adv-x="347" 
d="M285 -6c0 -11 0 -22 8 -29c-3 -7 -3 -11 -8 -15c5 -3 5 -6 11 -10c-3 -7 -6 -18 -11 -25c-3 -4 -7 -4 -7 -4h-73c-50 4 -97 8 -144 11c-3 0 -3 3 -14 3c55 8 105 4 151 8h-36c-21 4 -46 4 -72 7c-13 0 -24 -3 -40 -3c-14 0 -25 -4 -36 3c-2 14 -2 29 -2 47
c6 7 13 15 20 18c84 -3 166 -7 253 -11zM242 18c-8 -3 -8 -6 -8 -6c-57 0 -114 3 -173 3c59 3 116 3 181 3z" />
    <glyph glyph-name="greater" unicode="&#x3e;" horiz-adv-x="360" 
d="M211 356v-5c-9 12 -19 14 -26 17c-24 12 -50 23 -76 33c-10 4 -16 8 -28 15c-4 0 -4 4 -11 8c19 0 29 -8 39 -11c15 -8 26 -12 41 -15c11 -7 24 -11 35 -14c15 -8 26 -12 36 -19c5 11 -3 11 -6 11c-44 18 -84 37 -126 55c-15 7 -33 14 -52 21c-17 7 -32 26 -32 52
c12 6 21 2 28 -5c23 -7 41 -14 60 -21c16 -8 35 -15 54 -22c42 -18 86 -40 122 -65c5 -4 18 -7 25 -11c7 -8 14 -15 18 -17c4 -12 4 -20 7 -30c-21 -22 -45 -39 -69 -58c0 -3 -4 -7 -4 -7l-3 -4c0 4 3 4 3 4c0 4 4 4 4 7h15v0c-3 -15 -19 -17 -25 -25
c-38 -32 -73 -61 -109 -94c-17 -18 -38 -37 -57 -54c0 4 -4 7 -4 7c0 5 4 5 7 8c0 2 4 2 4 7v-5l-4 -2c-3 -3 -3 -3 -7 -8c-7 -7 -18 -11 -29 -21v26c-8 0 -11 0 -15 3c0 0 -2 2 -2 7c-4 3 -4 10 -4 19c-3 3 -7 3 -11 7c4 6 4 17 8 28v0s3 4 7 4h-4c4 4 6 7 6 7v0
c4 7 7 10 15 18h-4c4 4 8 4 8 8v0c3 0 3 3 7 7v-4c0 4 4 7 8 7h-4c4 3 7 3 7 7v0c3 0 3 3 7 7v-4c0 4 4 8 7 8v0c0 3 4 3 4 7v0c12 4 18 10 25 18v0c3 0 3 4 8 7v-3c0 3 4 7 4 7v0c2 4 6 4 10 4c25 18 46 35 69 50c5 3 10 10 14 14v0h7c-3 4 -7 4 -7 9zM135 304
c0 -3 -4 -7 -7 -10c-4 -4 -8 -11 -10 -15v0s-4 -4 -4 -7v3c-5 -3 -5 -7 -8 -7v0c-11 -4 -17 -10 -25 -18v0c0 -4 -4 -4 -4 -7v0c-3 0 -7 -4 -7 -8v4c-4 -4 -4 -7 -7 -7v0c0 -4 -3 -4 -7 -7h4c-4 0 -8 -3 -8 -7v4c-4 -4 -4 -7 -7 -7v0c0 -4 -4 -4 -8 -8h4
c-8 -8 -11 -11 -15 -18v0s-2 -3 -6 -7h4c-4 0 -7 -4 -7 -4v0l-4 4c0 7 4 14 7 17c28 40 61 73 100 98c4 4 11 4 15 7zM157 315h-4c-3 -4 -6 -11 -18 -11v0c3 7 12 11 22 11zM197 347c3 0 10 4 14 4v5v-9v0h-14zM157 315h-4l4 3v-3zM265 275v0v0z" />
    <glyph glyph-name="equal" unicode="=" horiz-adv-x="331" 
d="M269 401c4 -10 7 -21 7 -33c-3 -5 -7 -17 -10 -25c-79 -13 -155 -7 -235 -7c-4 7 -10 15 -13 23c-4 9 -4 21 -4 32c13 7 28 10 43 10h42c26 0 50 -3 76 -3c23 3 40 3 59 3h35zM27 232v43c19 8 47 8 122 8c42 0 85 0 124 -4c7 -21 7 -21 0 -47c-4 0 -10 0 -18 -4h-19h-173
c-10 0 -21 0 -36 4zM266 416c0 -3 -3 -7 -3 -7c-8 -4 -15 -4 -23 -4c-69 0 -141 0 -209 4h-8c0 4 -2 7 -2 11c6 7 17 7 25 7h129c19 0 40 -3 59 -3c10 0 21 0 32 -8z" />
    <glyph glyph-name="less" unicode="&#x3c;" horiz-adv-x="346" 
d="M286 445c14 -3 14 11 22 18c8 -18 3 -36 -8 -47c-10 -18 -24 -36 -38 -51c-44 -43 -87 -82 -134 -126c-4 -4 -7 -7 -15 -11c8 -3 11 -6 15 -10c32 -11 65 -22 93 -32c11 -8 23 -16 33 -19c25 -11 40 -36 50 -58c4 -3 4 -11 4 -21c-8 3 -14 3 -18 7c-32 22 -72 36 -112 51
c-32 10 -69 21 -101 36c-11 4 -22 9 -31 17c-12 16 -30 26 -45 40c4 7 8 11 11 19c-3 2 -11 10 -14 14c7 11 18 18 24 25c48 36 91 71 135 108c18 15 36 29 50 44c18 14 33 29 43 47c4 8 12 8 15 14c7 -4 11 -4 18 -6c3 -12 7 -19 11 -31c0 -10 -4 -21 -8 -28
c0 -3 -3 -3 -3 -7l-7 -7v0v3c0 0 3 4 7 4c0 4 3 4 3 7z" />
    <glyph glyph-name="semicolon" unicode=";" horiz-adv-x="152" 
d="M75 215c-11 -4 -25 -8 -35 -8c-4 -4 -7 0 -12 0c-2 8 -7 11 -10 15c-7 13 -7 21 0 36c3 2 10 10 18 17h28c8 0 16 -3 18 -3c15 -12 18 -22 12 -37c-4 -7 -8 -13 -19 -20zM40 492c10 -5 13 -5 21 -5c25 -2 39 -24 25 -49l-14 -14c-19 -4 -36 -4 -51 0c-14 25 -14 35 5 61
c2 0 10 2 14 7z" />
    <glyph glyph-name="colon" unicode=":" horiz-adv-x="166" 
d="M77 170c-7 -3 -14 -3 -22 -7c-2 4 -2 4 -6 4c-4 -4 -11 -7 -23 0c4 22 8 44 12 65c-4 3 -8 3 -12 3c-10 0 -17 8 -21 19c0 14 0 25 11 40c25 14 47 7 72 -7c7 -8 7 -15 7 -27c0 -28 -7 -61 -18 -90zM34 405c-4 -7 -8 -4 -11 -4c-7 4 -7 15 -7 23c0 18 3 32 10 49
c4 -3 4 -6 4 -6v-29v-7c8 0 8 3 8 7v18c0 14 3 29 15 40c13 8 28 3 42 -9c14 -17 14 -38 7 -63c-4 -4 -7 -11 -11 -15c-14 4 -32 -8 -46 4c-4 -4 -7 -8 -11 -8c-4 4 -4 11 -11 8c0 -4 0 -4 3 -8h8z" />
    <glyph glyph-name="slash" unicode="/" horiz-adv-x="408" 
d="M393 655c0 -12 0 -23 3 -33c-6 -18 -14 -36 -21 -54c-58 -137 -123 -271 -188 -401c-25 -43 -48 -90 -72 -133c-8 -16 -14 -22 -29 -29v0h-4h4c-7 7 -18 10 -21 10c-12 15 -23 22 -32 29c2 11 2 23 9 30c84 158 156 320 232 479c17 40 36 79 54 116c4 11 7 20 18 24
c10 -4 21 -11 32 -16c4 -8 12 -16 15 -22zM75 191v0h-4v0h4zM90 215c-4 -8 -8 -16 -15 -24c0 8 0 20 4 27c57 112 115 227 173 339c3 11 3 21 14 25c0 -7 -3 -11 -3 -18c-57 -115 -116 -231 -173 -349zM71 191c4 -17 -3 -31 -10 -45c-8 -27 -22 -51 -36 -76
c-8 -10 -18 -15 -26 -26c-3 4 0 7 0 11c23 43 43 83 62 127c4 4 7 7 10 9zM283 617c0 -3 -3 -7 -3 -10l-3 -3s0 3 3 3c0 3 3 7 3 10c5 5 5 8 8 12v3v-3c-3 -4 -3 -7 -8 -12zM274 597v-4v0v0v4c0 3 0 7 3 7c0 -4 -3 -4 -3 -7zM266 582c0 4 0 7 8 11c-3 -4 -3 -7 -8 -11v0v0v0
v0z" />
    <glyph glyph-name="period" unicode="." horiz-adv-x="188" 
d="M59 88c36 0 54 -11 72 -40c3 -11 0 -22 -7 -36c-11 -10 -19 -25 -29 -40c-4 0 -11 5 -20 5c-6 10 -16 17 -24 28c-7 -3 -10 -3 -17 -3c-4 3 -12 10 -19 16c5 33 22 56 44 70z" />
    <glyph glyph-name="hyphen" unicode="-" horiz-adv-x="338" 
d="M229 287c11 -8 26 -4 36 -4c11 0 22 0 29 -8c8 -15 3 -25 -3 -40h-15c-43 0 -82 4 -126 4h-104c-12 0 -22 0 -34 11c0 4 -2 14 -6 22c6 11 4 22 4 32c10 7 17 7 28 7c44 4 83 0 126 0c37 -3 76 -3 112 -7c3 -3 8 -7 15 -14c-23 -7 -40 -3 -62 -3h-9c-42 3 -84 7 -125 7
c-17 0 -36 -4 -53 -4c4 0 4 -3 7 -3h180z" />
    <glyph glyph-name="comma" unicode="," horiz-adv-x="187" 
d="M113 91c19 -14 15 -36 11 -54c-7 -3 -11 -15 -15 -22c-13 -32 -25 -65 -35 -93c-3 -3 -3 -11 -7 -15c-15 8 -26 15 -40 22c-7 25 11 50 14 73c-3 20 -29 16 -36 35c-3 30 -3 33 19 61c28 8 60 -7 89 -7zM124 37h4v0h-4v0zM128 37c4 4 7 11 10 14
c-3 -25 -38 -111 -54 -140c-7 0 -4 4 -4 8c12 31 23 64 37 93c4 6 7 18 11 25z" />
    <glyph glyph-name="plus" unicode="+" horiz-adv-x="356" 
d="M133 456c7 -14 7 -25 10 -32c4 7 8 10 12 21h17c0 -11 3 -18 3 -25h4c4 4 4 7 4 11c0 3 3 7 3 11c4 -4 4 -4 8 -4c4 -18 4 -37 8 -58c0 -17 3 -37 3 -58c26 -4 47 -7 69 -11c3 -7 7 -14 11 -17c0 -7 6 -11 10 -19c-8 -3 -10 -7 -18 -7c-11 0 -21 0 -37 -4
c-9 0 -21 -4 -32 -4c0 -6 -3 -14 -3 -17c0 -21 3 -40 3 -61v-29c-3 -3 -6 -7 -10 -10h-40c-7 7 -3 17 -7 27c-11 0 -8 -10 -11 -17c-7 -3 -14 -7 -18 -15l-5 5c0 24 -3 46 -3 72c0 13 0 28 -3 43c-18 6 -32 2 -47 0c-22 0 -22 0 -39 10c-4 7 3 11 7 19c-4 7 -4 14 -7 21l7 7
c22 3 39 3 57 7c8 0 15 4 25 4c8 39 -7 83 19 130zM143 258c-3 -23 -3 -40 4 -67c4 34 4 44 -4 67zM143 351v0v-21v0v21z" />
    <glyph glyph-name="asterisk" unicode="*" horiz-adv-x="223" 
d="M150 781c18 -8 32 -12 40 -30l-3 -2c-12 -4 -16 2 -23 6h-18v-4c12 -10 18 -17 29 -25c0 -4 3 -8 7 -10c-4 -4 -7 -4 -7 0c-4 2 -7 6 -15 10v-14c-14 4 -18 18 -32 26c-6 -22 0 -41 0 -61c-11 0 -14 3 -22 3c-18 9 -11 29 -18 42c-11 -10 -18 -17 -29 -29h-10
c-3 8 -3 16 0 19c-7 0 -7 -7 -10 -11c-9 -4 -12 4 -12 8c0 7 3 13 7 17c5 4 8 12 12 15h-16c-10 4 -17 8 -17 14c0 7 4 7 7 7c10 4 19 4 29 7c7 4 18 4 25 8c-11 14 -32 18 -44 36c12 8 19 0 26 -3c7 0 14 -4 25 -7c0 7 -4 14 -4 18v20c0 0 4 0 8 4c0 0 3 0 3 5
c15 0 18 -9 34 -44c3 0 10 11 17 4c0 -7 -7 -7 -7 -15c3 4 7 8 10 8c4 3 8 3 11 7c5 -4 7 -7 15 -15c-8 -4 -10 -11 -18 -14zM49 716c3 6 14 14 18 25c-4 -7 -11 -11 -15 -15c-3 -4 -3 -8 -3 -10zM125 791c3 0 3 4 7 4c-4 0 -7 0 -7 -4z" />
    <glyph glyph-name="parenright" unicode=")" horiz-adv-x="366" 
d="M88 669v-4v4zM285 535c58 -108 58 -220 14 -332c-29 -72 -64 -136 -101 -198c-10 -18 -21 -36 -32 -55c-4 -6 -10 -10 -14 -13v13c-4 -6 -4 -10 -7 -13v0v0v0c-4 -4 -8 -12 -12 -15h4v0v0c-12 -7 -18 -18 -25 -25c-12 -15 -22 -29 -40 -36c-8 3 -14 3 -22 7c0 6 4 9 4 21
c-7 -3 -15 -3 -25 -7c-4 11 -4 18 -8 25c-6 -3 -10 -3 -17 -7c3 7 7 11 11 19c14 25 32 53 46 79c7 7 11 14 15 17c0 -13 -12 -25 -15 -36c-7 -14 -18 -25 -18 -39c18 14 25 32 37 50c45 77 82 160 114 242c15 36 30 76 37 111c17 77 7 144 -29 206c-25 51 -65 94 -105 128
c-3 3 -7 3 -13 5c0 -5 4 -9 4 -13c-24 4 -30 20 -56 36c11 0 15 0 22 -4c0 11 0 17 4 25l6 8c12 -4 20 -4 30 -8c25 -10 47 -25 68 -44c47 -39 91 -89 123 -147zM188 12c-11 -10 -18 -18 -18 -33c10 8 14 19 18 33zM152 -50c7 4 7 8 7 11c0 -3 -3 -7 -7 -11zM162 -35
c4 4 8 7 8 12c-8 0 -8 -8 -8 -12zM194 30c4 0 4 0 0 0zM209 62v0zM148 174v0v0v0v0zM206 384c-4 -69 -18 -134 -47 -195c-3 -3 -7 -7 -11 -15c8 15 11 33 14 48c18 46 32 96 36 146c4 33 0 66 -4 99c-3 11 -3 20 -3 29c3 -4 7 -11 7 -15c8 -32 11 -65 8 -97zM97 55
c3 19 8 40 26 54c-4 -21 -11 -39 -26 -54c-3 0 -3 -4 -3 -4v0v0c0 4 0 4 3 4zM184 513h4h-4v0v0zM162 560c15 -11 22 -25 22 -47c-11 15 -18 28 -22 47zM123 625v0v0zM94 658c14 -3 22 -17 29 -33c-15 7 -26 18 -29 33zM141 600c11 -11 21 -22 21 -40c-10 11 -17 22 -21 40z
M162 560v0v0v0v0zM148 174c0 -18 -3 -31 -18 -43c3 19 7 32 18 43zM130 131v0v0v0v0zM80 18v-3h-4v3h4c0 16 4 26 14 33c0 -14 -6 -25 -14 -33zM123 109v0v0v0v0zM130 131c0 -7 0 -17 -7 -22c0 10 0 18 7 22zM184 513c7 -3 7 -7 7 -14c-7 5 -7 7 -7 14zM191 499v0v-3v3v0z
M145 -78v15h7c-4 -8 -4 -12 -7 -15zM152 -63v0v0v0v0zM141 -78v0h4v0h-4zM133 -93c0 8 4 12 4 15h4c0 -3 -4 -7 -8 -15zM88 669c0 -4 2 -8 2 -11h4h-4c0 3 -2 7 -2 7v4zM123 625c2 -3 2 -3 7 -8h-5s-2 5 -2 8v0zM130 617c0 -3 3 -7 3 -7v-3c0 3 -3 7 -8 10h5zM133 610
c4 -3 4 -6 8 -10v0v0c-4 4 -4 7 -8 7v3zM133 -96v3v0v0v0v0v-3zM0 -103c4 0 4 0 4 3v0v-3h-4z" />
    <glyph glyph-name="parenleft" unicode="(" horiz-adv-x="295" 
d="M330 738c2 -16 12 -26 21 -33l-33 -44c-4 -3 -4 -6 -7 -10c-47 -47 -72 -106 -105 -164c-40 -78 -72 -165 -94 -252c-14 -82 -22 -161 0 -241c8 -29 18 -57 33 -87c3 -7 11 -18 7 -30c-4 -3 -7 0 -11 5c-7 4 -18 11 -25 15c-30 10 -46 36 -61 61v3
c-40 83 -62 173 -55 267c4 26 12 55 17 80c8 35 24 72 34 105c4 11 4 18 7 25v0v0v0c4 11 12 18 15 29c47 93 100 176 168 251c8 12 16 20 26 27c8 6 18 14 30 17c17 -3 24 -11 33 -24zM12 330v0v3v-3v0zM4 297c0 11 -4 21 8 33c-4 -12 -4 -22 -8 -33zM12 333
c3 10 0 23 9 32c-4 -9 0 -25 -9 -32zM21 365v0v3v-3v0zM21 368c0 8 0 19 12 26c-4 -10 0 -18 -12 -26zM33 394v0v4v-4v0zM41 416v0v4v-4v0zM33 398c0 7 0 15 8 18c0 -7 0 -15 -8 -18zM41 420c3 7 3 14 10 18c-4 -7 -4 -14 -10 -18zM51 438c0 7 0 18 7 21v-21h-7v0v0v0v0z
M62 463c0 -4 0 -4 -4 -4v0v0l4 4c0 4 4 10 8 15c-4 -5 -4 -11 -8 -15zM70 481v-3v3v4v-4zM70 485v0v0v0v0z" />
    <glyph glyph-name="quotesingle" unicode="'" horiz-adv-x="198" 
d="M65 651c-5 4 -12 4 -18 7c0 22 -3 43 -3 64c0 -29 -4 -53 -19 -79c-7 37 0 95 15 141c4 -7 7 -15 10 -18c3 21 -3 47 7 72c19 7 37 12 58 0c11 -43 8 -89 4 -133c-4 -19 0 -36 -11 -54c-11 4 -22 7 -28 7c-4 0 -7 -3 -15 -7zM130 669c-4 4 -4 4 -4 8c4 35 7 74 11 110v0
c7 -18 12 -46 7 -75c-3 -15 -3 -32 -14 -43z" />
    <glyph glyph-name="ampersand" unicode="&#x26;" horiz-adv-x="634" 
d="M602 297c3 -3 6 -7 3 -18h-29c3 -11 3 -21 7 -33c-11 -28 -32 -47 -51 -64c-21 -63 -31 -192 -17 -257c4 -3 7 -6 15 -14c-8 -7 -19 -11 -27 -18c-6 4 -10 4 -13 7c-23 19 -41 37 -43 65c-5 33 -5 65 -5 97c5 12 5 19 5 29c-15 -10 -26 -17 -41 -24
c-35 -30 -72 -58 -112 -80c-17 -8 -32 -15 -49 -22c-19 -7 -37 -11 -58 -7h-11c-33 -4 -58 3 -83 19h-18c-32 2 -54 17 -62 45c-7 19 -10 38 -7 55c0 29 11 57 26 86c28 52 64 95 103 134c12 7 18 14 30 21c-12 15 -22 22 -37 25c-10 4 -17 8 -28 13c-7 3 -19 9 -15 20
c11 -8 15 -20 33 -17v4c-10 21 -10 38 -7 61c7 21 14 39 24 57c26 47 59 90 94 126c7 7 12 15 20 22c0 3 3 3 3 7v0c0 -4 -3 -4 -3 -7v0h-4h4c-13 -4 -20 -7 -27 -15c-2 -7 -11 -14 -14 -17c-29 -33 -57 -69 -83 -105c-20 -33 -40 -68 -40 -112c-6 11 -6 21 -4 36
c4 18 15 40 24 57c30 52 67 95 106 137c4 4 9 4 11 7c7 15 23 26 37 34v-10c-3 -5 -3 -5 -7 -5c4 0 4 0 7 5v0v0v0v0v0c7 2 14 10 18 20c3 0 3 0 7 4v0v0v0s4 4 7 4v0v0v0c0 4 3 4 3 8v0h-3c3 0 3 3 7 3v0v0c4 2 7 9 15 13c39 25 80 45 125 56c29 6 55 2 81 -4
c18 -4 32 -19 39 -36c14 -23 18 -48 11 -77c-7 -18 -15 -39 -21 -57c-18 -40 -45 -79 -70 -112c-7 -11 -13 -18 -29 -14c-14 7 -28 18 -35 32v0c-4 0 -4 0 0 0c-4 0 -4 0 0 0v0v0c7 18 18 35 28 51c25 39 48 82 59 129c2 12 6 21 0 36c-18 -4 -30 -11 -43 -17
c-44 -22 -84 -51 -120 -87c-44 -44 -79 -89 -112 -141c-15 -21 -25 -43 -32 -65c0 -3 0 -11 -4 -19h14c22 4 48 8 69 19c29 11 61 7 89 -7c15 -8 19 -12 27 -33c-8 -4 -15 -7 -27 -14c-13 3 -31 -3 -45 -15c-51 -31 -91 -72 -127 -119c-14 -25 -33 -53 -43 -82
c-12 -26 -15 -50 -15 -80c0 -3 3 -11 8 -19c7 4 17 8 25 12c25 14 46 25 68 40c55 36 105 80 152 126c4 3 4 7 8 7h-16c-15 12 -32 19 -43 36c11 15 22 21 37 29c35 19 71 29 112 40c18 3 39 7 61 10c22 4 39 -7 58 -21zM71 -13v3c0 4 -4 8 -8 8c-28 32 -42 69 -35 111v18
c-4 -10 -7 -18 -11 -29c-7 -24 -7 -50 4 -72c7 -24 25 -39 50 -39zM157 186c-4 0 -4 -4 -6 -8c2 0 2 4 6 8zM151 174c-4 0 -4 -4 -8 -7c4 0 4 3 8 7zM118 22v4v11c-3 37 -3 72 14 106c3 3 3 7 3 10c-24 -29 -30 -65 -30 -105c0 -11 3 -18 13 -26zM135 156c8 0 8 4 8 7
c-3 0 -3 -3 -8 -7zM393 207c7 0 10 8 10 15c-3 -4 -10 -7 -10 -15zM85 380v-4v0v0v4zM537 146c-7 -44 -12 -84 -18 -128c0 26 3 73 18 128zM432 22c-3 15 0 29 3 45c3 -16 0 -30 -3 -45h3v0h-3v0zM435 -10v0v-3v3v0zM432 -2c0 7 0 17 3 24c3 -10 0 -20 0 -32c-3 4 -3 8 -3 8
zM435 -39v0v-3v3v0c-6 8 -3 18 0 26c3 -8 0 -18 0 -26zM519 -21v15h3c-3 -7 -3 -11 -3 -15v0zM438 -56v0v-4v4v0zM435 -42c7 -4 3 -8 3 -14c-3 3 -3 10 -3 14zM442 -67v0v-4v0v4c-4 0 -4 4 -4 7c0 -3 4 -3 4 -7zM447 -81c-5 3 -5 6 -5 10c0 -4 5 -7 5 -10zM453 -89v0v0v0v0z
M291 677v-8c-3 0 -3 0 -7 4c4 0 4 0 7 4v0v0v0v0v0zM284 673v-4v0v4v-4v4v0zM284 669v-4h-4c0 4 4 4 4 4zM277 665v-4h-4l4 4v0v0h3h-3zM273 661v0v0zM277 661v0v0v-3v3zM273 661c-4 -3 -4 -3 -7 -6v0c3 3 3 3 7 6v0zM266 655c-4 0 -4 0 -7 -4v0v0c3 4 3 4 7 4v0zM447 -81
c2 0 2 -4 6 -8v0h-4c0 4 -2 4 -2 8v0v0z" />
    </font>
</defs>
</svg>
